<?xml version="1.0" encoding="UTF-8" standalone="no"?>
<!-- Created with Fritzing (http://www.fritzing.org/) -->

<svg
   version="1.2"
   x="0in"
   y="0in"
   width="1.9869825in"
   height="0.80404508in"
   viewBox="0 0 143.06288 57.891211"
   id="svg308"
   sodipodi:docname="alarm.svg"
   inkscape:version="1.1.1 (3bf5ae0d25, 2021-09-20)"
   xmlns:inkscape="http://www.inkscape.org/namespaces/inkscape"
   xmlns:sodipodi="http://sodipodi.sourceforge.net/DTD/sodipodi-0.dtd"
   xmlns="http://www.w3.org/2000/svg"
   xmlns:svg="http://www.w3.org/2000/svg">
  <defs
     id="defs312" />
  <sodipodi:namedview
     id="namedview310"
     pagecolor="#505050"
     bordercolor="#ffffff"
     borderopacity="1"
     inkscape:pageshadow="0"
     inkscape:pageopacity="0"
     inkscape:pagecheckerboard="1"
     inkscape:document-units="in"
     showgrid="false"
     inkscape:zoom="2.1407493"
     inkscape:cx="85.951213"
     inkscape:cy="22.889182"
     inkscape:window-width="1366"
     inkscape:window-height="708"
     inkscape:window-x="0"
     inkscape:window-y="19"
     inkscape:window-maximized="1"
     inkscape:current-layer="g53" />
  <g
     partID="129770"
     id="g53"
     transform="translate(-105.2251,10.864358)">
    <g
       stroke="#000000"
       id="connector0leg"
       x2="35.687"
       fill="none"
       stroke-linecap="round"
       y1="67.749"
       x1="35.687"
       y2="76.004"
       stroke-width="2.99599"
       transform="translate(139.349)" />
    <g
       stroke="#ff0000"
       id="connector1leg"
       x2="42.928"
       fill="none"
       stroke-linecap="round"
       y1="67.749"
       x1="42.928"
       y2="76.004"
       stroke-width="2.99599"
       transform="translate(139.349)" />
    <polygon
       points="2.98398,34.0157 31.0317,34.0157 34.0157,31.0307 34.0157,2.98398 31.0307,0 2.98398,0 0,2.98398 0,31.0307 "
       id="polygon2634"
       transform="matrix(1.0000014,0,0,1.0000014,214.27223,5.3780404)" />
    <path
       d="m 246.06397,34.762781 c 0,1.327993 -1.07999,2.411984 -2.41098,2.411984 l -24.74779,2e-5 c -1.326,0 -2.40899,-1.083991 -2.40899,-2.411984 V 10.009996 c 0,-1.3259906 1.08299,-2.4089826 2.40899,-2.4089826 h 24.75183 c 1.32699,0 2.40697,1.082992 2.40697,2.4089826 z"
       fill="#999999"
       id="path2636"
       style="stroke-width:1" />
    <circle
       cy="22.386864"
       cx="231.27806"
       fill="#3f3f3f"
       r="8.6239529"
       id="circle2638"
       style="fill:#1a1a1a;stroke-width:1" />
    <path
       opacity="0.6"
       d="m 233.93606,15.544954 c -0.572,-0.222998 -1.17499,-0.382996 -1.81299,-0.456996 -1.58898,-0.175999 -3.10797,0.174998 -4.40696,0.89499 l -0.161,0.420996 c 1.44999,-0.774995 3.13997,-1.135991 4.89796,-0.937995 0.54199,0.063 1.06799,0.183998 1.56699,0.343998 z"
       fill="#ffffff"
       id="path2642"
       style="stroke-width:1" />
    <polygon
       points="0,31.0307 2.98398,34.0157 31.0317,34.0157 34.0157,31.0307 34.0157,2.98398 31.0307,0 2.98398,0 0,2.98398 "
       id="polygon2028"
       transform="matrix(1.0000014,0,0,1.0000014,107.23646,5.3780414)" />
    <path
       d="m 139.0282,34.762782 c 0,1.327993 -1.07999,2.411984 -2.41098,2.411984 l -24.74779,2e-5 c -1.326,0 -2.40899,-1.083991 -2.40899,-2.411984 V 10.009997 c 0,-1.3259906 1.08299,-2.4089826 2.40899,-2.4089826 h 24.75183 c 1.32699,0 2.40697,1.082992 2.40697,2.4089826 z"
       fill="#999999"
       id="path2030"
       style="stroke-width:1" />
    <circle
       cy="22.386866"
       cx="124.24228"
       fill="#3f3f3f"
       r="8.6239529"
       id="circle2040"
       style="fill:#1a1a1a;stroke-width:1" />
    <path
       opacity="0.6"
       d="m 126.90029,15.544955 c -0.572,-0.222998 -1.17499,-0.382996 -1.81299,-0.456996 -1.58898,-0.175999 -3.10797,0.174998 -4.40696,0.89499 l -0.161,0.420996 c 1.44999,-0.774995 3.13997,-1.135991 4.89796,-0.937995 0.54199,0.063 1.06799,0.183998 1.56699,0.343998 z"
       fill="#ffffff"
       id="path2056"
       style="stroke-width:1" />
    <g
       partID="107260"
       id="g1378"
       transform="matrix(-1.0000003,0,0,1.0000003,283.52741,-262.28521)">
      <g
         transform="translate(45.1498,258.538)"
         id="g1376">
        <g
           id="breadboard">
          <rect
             height="0.72000003"
             x="3.45101"
             y="25.421"
             width="2.151"
             fill="none"
             id="rect1351" />
          <rect
             height="0.72000003"
             x="10.651"
             y="25.421"
             width="2.154"
             fill="none"
             id="rect1353" />
          <g
             y1="29.207"
             stroke="#8c8c8c"
             stroke-width="1.988"
             y2="53.822"
             x1="4.527"
             stroke-linecap="round"
             x2="4.527"
             fill="none"
             id="connector0leg-3" />
          <g
             y1="29.207"
             stroke="#8c8c8c"
             stroke-width="1.988"
             y2="53.822"
             x1="11.729"
             stroke-linecap="round"
             x2="11.729"
             fill="none"
             id="connector1leg-6" />
          <rect
             height="9.8280096"
             x="3.45101"
             y="19.379"
             width="2.151"
             fill="#8c8c8c"
             id="rect1357" />
          <path
             d="m 12.805,29.207 c 0,-1.174 -1.065,-2.103 -2.089,-2.992 -0.416001,-0.367 -1.199,-1.001 -1.199,-1.424 l 1e-5,-5.471 h -2.161 v 5.78 c 0,1.059 0.947001,1.879 1.946,2.748 0.444001,0.377 1.349,1.25 1.349,1.771"
             fill="#8c8c8c"
             id="path1359" />
          <g
             id="g12">
            <path
               opacity="0.3"
               d="M 11.694,14.099 V 9.80001 c 0,-2.845 -2.303,-5.153 -5.15101,-5.153 C 3.69801,4.647 1.39,6.951 1.39,9.80001 v 9.92101 c 1.071,1.201 2.979,2.001 5.15301,2.001 3.35901,0 6.08301,-1.902 6.08301,-4.26 v -1.107 C 12.626,15.525 12.281,14.754 11.694,14.099 Z"
               enable-background="new    "
               fill="#e60000"
               id="color_path14" />
            <path
               opacity="0.5"
               d="M 11.694,14.099 V 9.80001 c 0,-2.845 -2.303,-5.153 -5.15101,-5.153 C 3.69801,4.647 1.39,6.951 1.39,9.80001 v 9.92101 c 1.071,1.201 2.979,2.001 5.15301,2.001 3.35901,0 6.08301,-1.902 6.08301,-4.26 v -1.107 C 12.626,15.525 12.281,14.754 11.694,14.099 Z"
               enable-background="new    "
               fill="#e6e6e6"
               id="path16" />
            <path
               opacity="0.9"
               d="m 11.694,14.099 v 2.257 c 0,1.991 -2.301,3.608 -5.15101,3.608 -2.845,0 -5.15301,-1.612 -5.15301,-3.608 v 2.257 1.109 c 1.071,1.2 2.979,2 5.15301,2 3.35901,0 6.08301,-1.902 6.08301,-4.26 v -1.106 c 0,-0.831 -0.345,-1.602 -0.932,-2.257 z"
               enable-background="new    "
               fill="#d1d1d1"
               id="path18-7" />
            <path
               opacity="0.7"
               d="m 11.694,14.099 v 2.257 c 0,1.991 -2.301,3.608 -5.15101,3.608 -2.845,0 -5.15301,-1.612 -5.15301,-3.608 v 2.257 1.109 c 1.071,1.2 2.979,2 5.15301,2 3.35901,0 6.08301,-1.902 6.08301,-4.26 v -1.106 c 0,-0.831 -0.345,-1.602 -0.932,-2.257 z"
               enable-background="new    "
               fill="#e60000"
               id="color_path20" />
            <path
               opacity="0.25"
               d="m 11.694,14.099 v 2.257 c 0,1.991 -2.301,3.608 -5.15101,3.608 -2.845,0 -5.15301,-1.612 -5.15301,-3.608 v 2.257 c 1.071,1.2 2.979,2.001 5.15301,2.001 3.35901,0 6.08301,-1.903 6.08301,-4.259 0,-0.83 -0.345,-1.601 -0.932,-2.256 z"
               enable-background="new    "
               fill="#e60000"
               id="color_path22" />
            <ellipse
               opacity="0.25"
               cy="16.356001"
               enable-background="new    "
               cx="6.5430102"
               ry="3.6059999"
               fill="#e6e6e6"
               rx="5.1530099"
               id="ellipse24" />
            <ellipse
               opacity="0.25"
               cy="16.356001"
               enable-background="new    "
               cx="6.5430102"
               ry="3.6059999"
               fill="#e60000"
               rx="5.1530099"
               id="color_ellipse26" />
            <polygon
               fill="#666666"
               points="3.71401,14.167 5.76301,14.167 8.66801,11.048 3.86701,11.048 2.991,11.661 2.991,16.355 3.71401,16.355 "
               id="polygon28" />
            <polygon
               fill="#666666"
               points="9.43101,14.167 9.43101,16.355 10.095,16.355 10.095,10.844 9.22601,10.844 9.54401,11.214 6.77801,14.167 "
               id="polygon30" />
            <path
               opacity="0.65"
               d="M 11.694,14.099 V 9.80001 c 0,-2.845 -2.303,-5.153 -5.15101,-5.153 C 3.69801,4.647 1.39,6.951 1.39,9.80001 v 9.92101 c 1.071,1.201 2.979,2.001 5.15301,2.001 3.35901,0 6.08301,-1.902 6.08301,-4.26 v -1.107 C 12.626,15.525 12.281,14.754 11.694,14.099 Z"
               enable-background="new    "
               fill="#e60000"
               id="color_path32" />
            <path
               opacity="0.5"
               d="m 8.94301,7.376 1.043,-0.199 C 9.37401,6.354 8.47301,5.754 7.41101,5.55 l 0.186,0.786 c 0.555,0.196 1.022,0.567 1.346,1.04 z"
               enable-background="new    "
               fill="#ffffff"
               id="path34-5" />
            <path
               opacity="0.5"
               d="m 1.948,19.132 v 1.104 c 0.472001,0.385 1.042,0.71 1.677,0.957001 v -1.107 C 2.988,19.841 2.422,19.518 1.948,19.132 Z"
               enable-background="new    "
               fill="#ffffff"
               id="path36-3" />
            <path
               opacity="0.5"
               d="m 9.44001,19.338 c -0.186,0.089 -0.385001,0.167 -0.585001,0.239 -0.042,0.015 -0.086,0.03 -0.13,0.043 -0.410001,0.131 -0.844001,0.231 -1.305,0.287 -0.054,0.007 -0.11,0.015 -0.164,0.015 -0.233,0.021 -0.468001,0.042 -0.706001,0.042 -0.108,0 -0.223,-0.012 -0.343001,-0.018 -0.873001,-0.042 -1.694,-0.229 -2.397,-0.537 v -6.098 l 3e-6,-3.50799 c 0,-1.069 0.616001,-1.984 1.507,-2.435 L 5.30201,7.33 4.395009,6.23 C 3.181,6.959 2.367,8.281 2.367,9.80101 v 8.653 c -0.036,-0.035 -0.224,-0.224 -0.349001,-0.384 l -0.224,0.499 c 1.019,1.077 2.769,1.789 4.75701,1.789 1.222,0 2.354,-0.271 3.28001,-0.728 l -0.383001,-0.298 c -0.00801,0.006 -0.00801,0.006 -0.00801,0.006 z"
               enable-background="new    "
               fill="#ffffff"
               id="path38-5" />
          </g>
        </g>
      </g>
    </g>
    <g
       partID="138540"
       id="g1528"
       transform="matrix(-1.0000003,0,0,1.0000003,372.0819,-262.28521)">
      <g
         transform="translate(240.74,258.538)"
         id="g1526">
        <g
           id="g1524">
          <rect
             height="0.72000003"
             x="3.45101"
             y="25.421"
             width="2.151"
             fill="none"
             id="rect1484" />
          <rect
             height="0.72000003"
             x="10.651"
             y="25.421"
             width="2.154"
             fill="none"
             id="rect1486" />
          <g
             y1="29.207"
             stroke="#8c8c8c"
             stroke-width="1.988"
             y2="53.822"
             x1="4.527"
             stroke-linecap="round"
             x2="4.527"
             fill="none"
             id="g1488" />
          <g
             y1="29.207"
             stroke="#8c8c8c"
             stroke-width="1.988"
             y2="53.822"
             x1="11.729"
             stroke-linecap="round"
             x2="11.729"
             fill="none"
             id="g1490" />
          <rect
             height="9.8280096"
             x="3.45101"
             y="19.379"
             width="2.151"
             fill="#8c8c8c"
             id="rect1492" />
          <path
             d="m 12.805,29.207 c 0,-1.174 -1.065,-2.103 -2.089,-2.992 -0.416001,-0.367 -1.199,-1.001 -1.199,-1.424 l 1e-5,-5.471 h -2.161 v 5.78 c 0,1.059 0.947001,1.879 1.946,2.748 0.444001,0.377 1.349,1.25 1.349,1.771"
             fill="#8c8c8c"
             id="path1494" />
          <g
             id="g1522">
            <path
               opacity="0.3"
               d="M 11.694,14.099 V 9.80001 c 0,-2.845 -2.303,-5.153 -5.15101,-5.153 C 3.69801,4.647 1.39,6.951 1.39,9.80001 v 9.92101 c 1.071,1.201 2.979,2.001 5.15301,2.001 3.35901,0 6.08301,-1.902 6.08301,-4.26 v -1.107 C 12.626,15.525 12.281,14.754 11.694,14.099 Z"
               enable-background="new    "
               fill="#0000ee"
               id="path1496" />
            <path
               opacity="0.5"
               d="M 11.694,14.099 V 9.80001 c 0,-2.845 -2.303,-5.153 -5.15101,-5.153 C 3.69801,4.647 1.39,6.951 1.39,9.80001 v 9.92101 c 1.071,1.201 2.979,2.001 5.15301,2.001 3.35901,0 6.08301,-1.902 6.08301,-4.26 v -1.107 C 12.626,15.525 12.281,14.754 11.694,14.099 Z"
               enable-background="new    "
               fill="#e6e6e6"
               id="path1498" />
            <path
               opacity="0.9"
               d="m 11.694,14.099 v 2.257 c 0,1.991 -2.301,3.608 -5.15101,3.608 -2.845,0 -5.15301,-1.612 -5.15301,-3.608 v 2.257 1.109 c 1.071,1.2 2.979,2 5.15301,2 3.35901,0 6.08301,-1.902 6.08301,-4.26 v -1.106 c 0,-0.831 -0.345,-1.602 -0.932,-2.257 z"
               enable-background="new    "
               fill="#d1d1d1"
               id="path1500" />
            <path
               opacity="0.7"
               d="m 11.694,14.099 v 2.257 c 0,1.991 -2.301,3.608 -5.15101,3.608 -2.845,0 -5.15301,-1.612 -5.15301,-3.608 v 2.257 1.109 c 1.071,1.2 2.979,2 5.15301,2 3.35901,0 6.08301,-1.902 6.08301,-4.26 v -1.106 c 0,-0.831 -0.345,-1.602 -0.932,-2.257 z"
               enable-background="new    "
               fill="#0000ee"
               id="path1502" />
            <path
               opacity="0.25"
               d="m 11.694,14.099 v 2.257 c 0,1.991 -2.301,3.608 -5.15101,3.608 -2.845,0 -5.15301,-1.612 -5.15301,-3.608 v 2.257 c 1.071,1.2 2.979,2.001 5.15301,2.001 3.35901,0 6.08301,-1.903 6.08301,-4.259 0,-0.83 -0.345,-1.601 -0.932,-2.256 z"
               enable-background="new    "
               fill="#0000ee"
               id="path1504" />
            <ellipse
               opacity="0.25"
               cy="16.356001"
               enable-background="new    "
               cx="6.5430102"
               ry="3.6059999"
               fill="#e6e6e6"
               rx="5.1530099"
               id="ellipse1506" />
            <ellipse
               opacity="0.25"
               cy="16.356001"
               enable-background="new    "
               cx="6.5430102"
               ry="3.6059999"
               fill="#0000ee"
               rx="5.1530099"
               id="ellipse1508" />
            <polygon
               fill="#666666"
               points="2.991,16.355 3.71401,16.355 3.71401,14.167 5.76301,14.167 8.66801,11.048 3.86701,11.048 2.991,11.661 "
               id="polygon1510" />
            <polygon
               fill="#666666"
               points="9.54401,11.214 6.77801,14.167 9.43101,14.167 9.43101,16.355 10.095,16.355 10.095,10.844 9.22601,10.844 "
               id="polygon1512" />
            <path
               opacity="0.65"
               d="M 11.694,14.099 V 9.80001 c 0,-2.845 -2.303,-5.153 -5.15101,-5.153 C 3.69801,4.647 1.39,6.951 1.39,9.80001 v 9.92101 c 1.071,1.201 2.979,2.001 5.15301,2.001 3.35901,0 6.08301,-1.902 6.08301,-4.26 v -1.107 C 12.626,15.525 12.281,14.754 11.694,14.099 Z"
               enable-background="new    "
               fill="#0000ee"
               id="path1514" />
            <path
               opacity="0.5"
               d="m 8.94301,7.376 1.043,-0.199 C 9.37401,6.354 8.47301,5.754 7.41101,5.55 l 0.186,0.786 c 0.555,0.196 1.022,0.567 1.346,1.04 z"
               enable-background="new    "
               fill="#ffffff"
               id="path1516" />
            <path
               opacity="0.5"
               d="m 1.948,19.132 v 1.104 c 0.472001,0.385 1.042,0.71 1.677,0.957001 v -1.107 C 2.988,19.841 2.422,19.518 1.948,19.132 Z"
               enable-background="new    "
               fill="#ffffff"
               id="path1518" />
            <path
               opacity="0.5"
               d="m 9.44001,19.338 c -0.186,0.089 -0.385001,0.167 -0.585001,0.239 -0.042,0.015 -0.086,0.03 -0.13,0.043 -0.410001,0.131 -0.844001,0.231 -1.305,0.287 -0.054,0.007 -0.11,0.015 -0.164,0.015 -0.233,0.021 -0.468001,0.042 -0.706001,0.042 -0.108,0 -0.223,-0.012 -0.343001,-0.018 -0.873001,-0.042 -1.694,-0.229 -2.397,-0.537 v -6.098 l 3e-6,-3.50799 c 0,-1.069 0.616001,-1.984 1.507,-2.435 L 5.30201,7.33 4.395009,6.23 C 3.181,6.959 2.367,8.281 2.367,9.80101 v 8.653 c -0.036,-0.035 -0.224,-0.224 -0.349001,-0.384 l -0.224,0.499 c 1.019,1.077 2.769,1.789 4.75701,1.789 1.222,0 2.354,-0.271 3.28001,-0.728 l -0.383001,-0.298 c -0.00801,0.006 -0.00801,0.006 -0.00801,0.006 z"
               enable-background="new    "
               fill="#ffffff"
               id="path1520" />
          </g>
        </g>
      </g>
    </g>
    <g
       transform="translate(156.50222,-6.4832198)"
       id="g1755">
      <g
         class="relay-songle"
         id="g1753">
        <path
           stroke-miterlimit="10"
           stroke-width="0.5"
           stroke="#0077dd"
           d="m 0.5,0 h 41.52 c 0.276,0 0.5,0.22387 0.5,0.49971 v 52.2607 c 0,0.27584 -0.224,0.49971 -0.5,0.49971 L 0.5,53.2601 C 0.224,53.2601 0,53.03623 0,52.76039 V 0.49971 C 0,0.22387 0.224,0 0.5,0 Z"
           fill="#359dff"
           class="outline"
           id="path1701" />
        <g
           fill="#ffffff"
           id="g1747">
          <path
             d="m 38.263,49.8241 -0.044,-0.503708 c 0.222,-0.02698 0.394,-0.08795 0.517999,-0.182894 0.124,-0.09495 0.223,-0.230866 0.298,-0.407763 0.075,-0.176897 0.113,-0.375782 0.113,-0.597653 0,-0.317816 -0.063,-0.564672 -0.19,-0.74057 -0.127,-0.175898 -0.292,-0.263847 -0.495,-0.263847 -0.119,0 -0.222,0.03198 -0.311,0.09594 -0.089,0.06396 -0.161,0.159907 -0.218,0.288832 -0.057,0.128925 -0.137,0.406764 -0.24,0.834516 -0.092,0.380779 -0.185,0.651622 -0.279,0.812529 -0.094,0.160907 -0.212,0.286834 -0.356,0.375782 -0.144,0.08995 -0.306,0.133922 -0.487,0.133922 -0.326,0 -0.591999,-0.128925 -0.798999,-0.386776 -0.207,-0.25785 -0.31,-0.604649 -0.31,-1.0414 0,-0.299826 0.048,-0.562674 0.145,-0.787543 0.097,-0.22487 0.236,-0.399768 0.417,-0.523696 0.181,-0.123928 0.395,-0.190889 0.639999,-0.199884 l 0.038,0.513702 c -0.262,0.02699 -0.456,0.122929 -0.581999,0.286834 -0.125999,0.163905 -0.189,0.39577 -0.189,0.693598 0,0.301825 0.055,0.532691 0.166,0.691599 0.111,0.158908 0.254,0.238861 0.43,0.238861 0.163,0 0.289,-0.05797 0.379,-0.174899 0.09,-0.115933 0.181,-0.37878 0.272,-0.785544 0.09,-0.398769 0.168,-0.678606 0.235,-0.839513 0.103,-0.245857 0.238,-0.43175 0.405,-0.557677 0.167,-0.125927 0.367,-0.18889 0.598999,-0.18889 0.23,0 0.44,0.06596 0.629999,0.197885 0.189,0.131923 0.333,0.311819 0.432,0.539687 0.099,0.226868 0.148,0.50071 0.148,0.821524 0,0.49971 -0.123,0.897479 -0.368,1.19431 C 39.015,49.6592 38.683,49.8131 38.263,49.8241 Z m 1.296,-3.9407 h -4.026 v -1.79096 c 0,-0.373783 0.038,-0.649623 0.113,-0.828519 0.075,-0.177897 0.2,-0.323812 0.375,-0.438746 0.175,-0.113934 0.377,-0.170901 0.607999,-0.170901 0.304,0 0.549999,0.09694 0.737999,0.290831 0.188,0.193888 0.308,0.475724 0.36,0.84451 0.074,-0.149913 0.148,-0.263847 0.224,-0.342801 0.154,-0.158908 0.325,-0.298827 0.512999,-0.419757 l 1.096,-0.705591 v 0.67161 l -0.836999,0.538688 c -0.328,0.208879 -0.547999,0.365788 -0.661999,0.472726 -0.114,0.106938 -0.19,0.208879 -0.23,0.308821 -0.039,0.09994 -0.059,0.238861 -0.059,0.417758 v 0.617642 h 1.788 L 39.56,45.8834 Z M 37.31,45.3497 v -1.14933 c 0,-0.250855 -0.025,-0.440744 -0.074,-0.570669 -0.049,-0.129925 -0.127,-0.232865 -0.233,-0.308821 -0.106,-0.07596 -0.23,-0.113934 -0.371,-0.113934 -0.203,0 -0.363,0.07296 -0.479,0.217874 -0.116,0.145915 -0.174,0.36179 -0.174,0.648624 v 1.27626 z m 2.249,-3.527 h -4.026 v -1.39419 c 0,-0.3448 0.025,-0.606648 0.074,-0.786544 0.064,-0.234864 0.181,-0.438746 0.352,-0.611645 0.17,-0.1719 0.385,-0.306822 0.643999,-0.402766 0.259,-0.09594 0.565999,-0.143917 0.920999,-0.143917 0.456,0 0.842999,0.08195 1.16,0.244858 0.318,0.163905 0.542999,0.373783 0.675999,0.629635 0.133,0.256851 0.199,0.591657 0.199,1.00642 z m -0.475,-0.5346 v -0.859501 c 0,-0.346799 -0.046,-0.610646 -0.139,-0.789542 -0.092,-0.178896 -0.241,-0.316816 -0.446,-0.412761 -0.273,-0.127926 -0.599999,-0.191889 -0.979999,-0.191889 -0.408,0 -0.728999,0.06796 -0.962999,0.202882 -0.233,0.135921 -0.389,0.30982 -0.468,0.522697 -0.053,0.142917 -0.08,0.370785 -0.08,0.681605 V 41.2881 Z M 38.351,37.996 h -0.497 v -1.52212 h 0.497 z m -0.777,-1.9249 c -0.674999,0 -1.187,-0.110936 -1.535,-0.333806 -0.348,-0.222871 -0.521999,-0.55168 -0.521999,-0.985428 0,-0.384777 0.141,-0.688601 0.423,-0.910472 0.341,-0.268844 0.884999,-0.402766 1.634,-0.402766 0.671999,0 1.182,0.110936 1.531,0.332807 0.349,0.221871 0.522999,0.550681 0.522999,0.987427 0,0.384777 -0.154,0.700594 -0.461,0.945452 C 38.859,35.9482 38.328,36.0711 37.574,36.0711 Z m -10e-4,-0.5077 c 0.653999,0 1.093,-0.07695 1.315,-0.230866 0.223,-0.153911 0.334,-0.350797 0.334,-0.590657 0,-0.226868 -0.113,-0.415759 -0.338,-0.56867 -0.225,-0.152911 -0.661999,-0.228867 -1.311,-0.228867 -0.655999,0 -1.095,0.07696 -1.316,0.230866 -0.222,0.153911 -0.333,0.352795 -0.333,0.597653 0,0.22487 0.113,0.412761 0.338,0.563673 0.225,0.151868 0.662,0.226868 1.311,0.226868 z m 0.932,-2.6295 -0.044,-0.520698 c 0.256,-0.03998 0.447,-0.131923 0.572999,-0.273841 0.126,-0.141918 0.188,-0.307821 0.188,-0.495712 0,-0.234864 -0.088,-0.437746 -0.265,-0.607648 -0.177,-0.169901 -0.418,-0.254852 -0.724999,-0.254852 -0.288,0 -0.511,0.08195 -0.669999,0.246857 -0.159,0.164904 -0.238,0.370785 -0.238,0.619641 0,0.149913 0.034,0.290831 0.103,0.421755 0.069,0.130924 0.165,0.234864 0.288,0.31082 l -0.06,0.466729 -2.069,-0.392772 v -2.00584 h 0.472 v 1.61207 l 1.083,0.215875 c -0.169,-0.239861 -0.254,-0.493714 -0.254,-0.762558 0,-0.337804 0.118,-0.632633 0.353,-0.881489 0.236,-0.249855 0.552999,-0.374783 0.952999,-0.374783 0.394,0 0.731999,0.124928 1.013,0.374783 0.281,0.249855 0.422,0.58566 0.422,1.00642 0,0.349797 -0.099,0.644626 -0.298,0.885486 C 39.132,32.763 38.856,32.8999 38.505,32.9339 Z m 1.054,-4.5074 -4.026,1.56809 v -0.577665 l 2.925,-1.05239 c 0.227,-0.08095 0.447,-0.150912 0.658999,-0.211877 -0.222,-0.06296 -0.441,-0.133922 -0.658999,-0.214875 l -2.925,-1.09337 v -0.544684 l 4.026,1.57908 z m 0,-2.5915 h -4.026 v -1.39419 c 0,-0.3448 0.025,-0.606648 0.074,-0.785544 0.064,-0.234864 0.181,-0.438746 0.352,-0.611645 0.17,-0.1729 0.385,-0.306822 0.643999,-0.402766 0.259,-0.09594 0.565999,-0.144916 0.920999,-0.144916 0.456,0 0.842999,0.08195 1.16,0.244858 0.318,0.163905 0.542999,0.373783 0.675999,0.629635 0.133,0.256851 0.199,0.591657 0.199,1.00642 z m -0.475,-0.5337 v -0.860501 c 0,-0.346799 -0.046,-0.610646 -0.139,-0.789542 -0.092,-0.178896 -0.241,-0.316816 -0.446,-0.412761 -0.273,-0.127926 -0.599999,-0.191889 -0.979999,-0.191889 -0.408,0 -0.728999,0.06796 -0.962999,0.202882 -0.233,0.135921 -0.389,0.30982 -0.468,0.522697 -0.053,0.142917 -0.08,0.370785 -0.08,0.681605 V 25.3003 H 39.084 Z m -0.936,-6.4163 0.135,-0.537688 c 0.452,0.118931 0.788999,0.32681 1.012,0.623638 0.222,0.296828 0.334,0.657619 0.334,1.08337 0,0.373783 -0.075,0.693598 -0.224,0.959444 -0.149,0.265846 -0.389,0.48272 -0.718999,0.651622 -0.33,0.168902 -0.718999,0.253853 -1.168,0.253853 -0.443,0 -0.817999,-0.08495 -1.125,-0.253853 -0.307,-0.168902 -0.538999,-0.398769 -0.694999,-0.687601 -0.157,-0.288832 -0.235,-0.611645 -0.235,-0.968438 0,-0.389774 0.099,-0.725579 0.297,-1.00542 0.198,-0.279838 0.489,-0.476724 0.872999,-0.588659 l 0.124,0.523696 c -0.557999,0.179896 -0.837999,0.539687 -0.837999,1.08037 0,0.268844 0.056,0.502708 0.169,0.699594 0.113,0.196886 0.288,0.354794 0.525999,0.472726 0.238,0.117932 0.539999,0.176897 0.903999,0.176897 0.551999,0 0.964999,-0.118931 1.241,-0.355794 0.276,-0.237862 0.414,-0.553679 0.414,-0.94745 0,-0.290831 -0.085,-0.542685 -0.254,-0.754562 C 38.749,19.0979 38.492,18.956 38.148,18.885 Z m 0.203,-0.9474 h -0.497 v -1.52212 h 0.497 z m -0.088,-1.9549 -0.044,-0.503708 c 0.222,-0.02698 0.394,-0.08795 0.517999,-0.182894 0.124,-0.09495 0.223,-0.230866 0.298,-0.407763 0.075,-0.176897 0.113,-0.375782 0.113,-0.597653 0,-0.317816 -0.063,-0.564672 -0.19,-0.74057 -0.127,-0.175898 -0.292,-0.263847 -0.495,-0.263847 -0.119,0 -0.222,0.03198 -0.311,0.09594 -0.089,0.06396 -0.161,0.159907 -0.218,0.288832 -0.057,0.128925 -0.137,0.406764 -0.24,0.834516 -0.092,0.380779 -0.185,0.651622 -0.279,0.812529 -0.094,0.160907 -0.212,0.286834 -0.356,0.375782 -0.144,0.08895 -0.306,0.133922 -0.487,0.133922 -0.326,0 -0.591999,-0.128925 -0.798999,-0.386776 -0.207,-0.25785 -0.31,-0.604649 -0.31,-1.0414 0,-0.299826 0.048,-0.562674 0.145,-0.787543 0.097,-0.22487 0.236,-0.399768 0.417,-0.523696 0.181,-0.123928 0.395,-0.190889 0.639999,-0.199884 l 0.038,0.513702 c -0.262,0.02698 -0.456,0.122929 -0.581999,0.286834 -0.126,0.164904 -0.189,0.39577 -0.189,0.693598 0,0.302824 0.055,0.532691 0.166,0.691599 0.111,0.158908 0.254,0.238861 0.43,0.238861 0.163,0 0.289,-0.05797 0.379,-0.174899 0.09,-0.116932 0.181,-0.37878 0.272,-0.785544 0.09,-0.398769 0.168,-0.678606 0.235,-0.839513 0.103,-0.245857 0.238,-0.43175 0.405,-0.557677 0.167,-0.125927 0.367,-0.18889 0.598999,-0.18889 0.23,0 0.44,0.06596 0.629999,0.197885 0.189,0.131923 0.333,0.311819 0.432,0.538688 0.099,0.226868 0.148,0.50071 0.148,0.821524 0,0.49971 -0.123,0.897479 -0.368,1.19431 C 39.015,15.8168 38.683,15.9707 38.263,15.9827 Z m 1.296,-3.9107 h -4.026 v -0.53369 h 3.551 V 9.54946 h 0.475 z M 38.351,9.15969 H 37.854 V 7.63757 h 0.497 z m -0.203,-5.0021 0.135,-0.537688 c 0.452,0.118931 0.788999,0.32681 1.012,0.623638 0.222,0.296828 0.334,0.657619 0.334,1.08337 0,0.373783 -0.075,0.693598 -0.224,0.959444 -0.149,0.265846 -0.389,0.48272 -0.718999,0.651622 -0.33,0.168902 -0.718999,0.253853 -1.168,0.253853 -0.443,0 -0.817999,-0.084951 -1.125,-0.253853 -0.307,-0.168902 -0.538999,-0.398769 -0.694999,-0.687601 -0.157,-0.288832 -0.235,-0.611645 -0.235,-0.968438 0,-0.389774 0.099,-0.725579 0.297,-1.00542 0.198,-0.279838 0.489,-0.476724 0.872999,-0.588659 l 0.124,0.523696 c -0.557999,0.179896 -0.837999,0.539687 -0.837999,1.08037 0,0.268844 0.056,0.502708 0.169,0.699594 0.113,0.196886 0.288,0.354794 0.525999,0.472726 0.238,0.117932 0.539999,0.176897 0.903999,0.176897 0.551999,0 0.964999,-0.118931 1.241,-0.355794 0.276,-0.237862 0.414,-0.553679 0.414,-0.94745 0,-0.290831 -0.085,-0.542685 -0.254,-0.754562 C 38.749,4.37047 38.492,4.22955 38.148,4.15759 Z"
             class="srd"
             id="path1703" />
          <g
             id="g1713">
            <path
               d="m 31.445,12.9395 c 0.103,0 0.199,0.01299 0.287,0.03798 0.089,0.02599 0.177,0.05997 0.263,0.10394 0.086,0.04398 0.172,0.09495 0.258,0.153911 0.086,0.05897 0.176,0.122929 0.269,0.191889 l 0.963999,0.705591 v -1.15333 h 0.358 v 1.60207 h -0.376 l -1.218,-0.895481 c -0.142,-0.105939 -0.276,-0.186892 -0.403,-0.243859 -0.127,-0.05697 -0.254,-0.08595 -0.38,-0.08595 -0.145,0 -0.27,0.03298 -0.376,0.09994 -0.106,0.06596 -0.158,0.168902 -0.158,0.307821 0,0.12093 0.042,0.219872 0.124,0.298827 0.083,0.07895 0.203,0.129925 0.36,0.153911 l -0.041,0.384777 c -0.263,-0.04198 -0.461,-0.138919 -0.594999,-0.289832 -0.134,-0.150912 -0.201,-0.341802 -0.201,-0.574667 0,-0.129925 0.023,-0.243859 0.068,-0.343801 0.045,-0.09994 0.106,-0.181895 0.183,-0.248856 C 30.908,13.0774 31,13.0264 31.105,12.9925 c 0.106,-0.035 0.219,-0.053 0.34,-0.053 z m 1.521,-2.3027 c 0.139,0 0.266,0.02099 0.38,0.06296 0.115,0.04198 0.214,0.101941 0.296,0.178895 0.083,0.07696 0.147,0.170902 0.192,0.280837 0.045,0.109936 0.068,0.234864 0.068,0.372784 0,0.135921 -0.023,0.258851 -0.068,0.368786 -0.045,0.109936 -0.109,0.203882 -0.192,0.280837 -0.083,0.07696 -0.182,0.135921 -0.296,0.176897 -0.115,0.04098 -0.241,0.06096 -0.38,0.06096 -0.217,0 -0.396,-0.04797 -0.535999,-0.142917 -0.14,-0.09494 -0.236,-0.218873 -0.287,-0.372784 h -0.009 c -0.06,0.144916 -0.153,0.253853 -0.279,0.32781 -0.125,0.07396 -0.274,0.110936 -0.446,0.110936 -0.112,0 -0.218,-0.01699 -0.319,-0.04997 -0.101,-0.03298 -0.189,-0.08395 -0.265,-0.151912 -0.075,-0.06796 -0.135,-0.152911 -0.179,-0.253853 -0.044,-0.100941 -0.066,-0.219872 -0.066,-0.355794 0,-0.135921 0.022,-0.254852 0.066,-0.355794 0.044,-0.100941 0.103,-0.186892 0.179,-0.256851 0.075,-0.06996 0.164,-0.121929 0.265,-0.15591 0.101,-0.03498 0.208,-0.05197 0.319,-0.05197 0.172,0 0.321,0.03698 0.446,0.109936 0.125,0.07296 0.218,0.182894 0.279,0.328809 h 0.009 c 0.057,-0.156909 0.155,-0.280837 0.292,-0.372784 C 32.571,10.6828 32.748,10.6368 32.966,10.6368 Z m -0.019,0.4168 c -0.19,0 -0.344,0.04397 -0.462,0.131923 -0.118,0.08795 -0.176,0.204881 -0.176,0.349797 0,0.142917 0.059,0.25785 0.176,0.345799 0.118,0.08795 0.272,0.131923 0.462,0.131923 0.091,0 0.174,-0.01099 0.249,-0.03198 0.075,-0.02099 0.142,-0.05197 0.199,-0.09295 0.057,-0.04098 0.102,-0.09095 0.133,-0.149913 0.032,-0.05897 0.048,-0.126926 0.048,-0.202882 0,-0.07596 -0.016,-0.143917 -0.048,-0.204881 -0.032,-0.06096 -0.076,-0.110936 -0.133,-0.151912 -0.057,-0.04098 -0.124,-0.07196 -0.199,-0.09295 C 33.121,11.0636 33.038,11.0536 32.947,11.0536 Z m -1.511,0.063 c -0.16,0 -0.291,0.03598 -0.394,0.108937 -0.103,0.07196 -0.154,0.174899 -0.154,0.307821 0,0.135921 0.051,0.237862 0.154,0.307821 0.103,0.06996 0.234,0.10394 0.394,0.10394 0.072,0 0.143,-0.01 0.21,-0.02898 0.068,-0.01999 0.128,-0.04697 0.179,-0.08195 0.051,-0.03498 0.092,-0.07795 0.122,-0.128925 0.03,-0.05097 0.045,-0.108937 0.045,-0.1719 0,-0.06296 -0.015,-0.12093 -0.045,-0.1719 -0.03,-0.05097 -0.071,-0.09495 -0.122,-0.130924 -0.051,-0.03598 -0.111,-0.06396 -0.179,-0.08395 -0.068,-0.02008 -0.138,-0.02998 -0.21,-0.02998 z m 2.408,-2.00389 v 0.524696 l -3.205,0.787543 V 9.97721 L 33.373,9.366564 V 9.35657 L 30.639,8.745924 V 8.31218 Z M 32.246,5.99952 c 0.518999,0 0.914999,0.105939 1.188,0.316816 0.273,0.210878 0.41,0.506706 0.41,0.886486 V 7.935397 H 30.639 V 7.19882 c 0,-0.37978 0.137,-0.674609 0.412,-0.884487 C 31.325,6.10446 31.724,5.99952 32.246,5.99952 Z m 0,0.40776 c -0.211,0 -0.395,0.019988 -0.551999,0.060965 -0.157,0.040976 -0.287,0.095944 -0.389,0.166903 -0.103,0.070959 -0.18,0.15491 -0.231,0.251854 -0.051,0.097943 -0.077,0.201883 -0.077,0.312819 V 7.52863 h 2.49 L 33.487,7.19982 C 33.487,7.088884 33.461,6.983945 33.41,6.887001 33.359,6.7890578 33.282,6.705106 33.179,6.635147 33.076,6.5641882 32.947,6.50922 32.792,6.468244 32.636,6.42727 32.454,6.40728 32.246,6.40728 Z m 1.559,-2.42959 c 0.077,0.126926 0.115,0.280837 0.115,0.461732 0,0.177897 -0.042,0.337804 -0.127,0.479722 -0.084,0.141918 -0.202,0.260849 -0.353,0.357792 -0.151,0.096944 -0.328,0.170901 -0.531999,0.221871 -0.204,0.05097 -0.426,0.076955 -0.667999,0.076955 -0.241,0 -0.465,-0.025985 -0.669999,-0.078954 -0.205,-0.052969 -0.382,-0.127926 -0.531999,-0.225869 -0.149,-0.097943 -0.266,-0.216874 -0.351,-0.357792 -0.084,-0.139919 -0.127,-0.297827 -0.127,-0.472726 0,-0.162906 0.032,-0.311819 0.095,-0.44774 0.063,-0.135921 0.16,-0.246857 0.29,-0.334806 l 0.276,0.252853 c -0.096,0.065962 -0.168,0.142917 -0.215,0.230866 -0.047,0.08695 -0.07,0.180895 -0.07,0.280837 0,0.123928 0.035,0.230866 0.104,0.321813 0.069,0.090947 0.163,0.164904 0.281,0.22387 0.118,0.058966 0.256,0.10294 0.414,0.133922 0.158,0.029983 0.327,0.044974 0.505,0.044974 0.178,0 0.345,-0.014991 0.502,-0.044974 0.157,-0.029983 0.295,-0.075956 0.414,-0.135921 0.119,-0.060965 0.214,-0.136921 0.283,-0.228867 0.069,-0.091947 0.104,-0.199884 0.104,-0.323812 0,-0.110936 -0.03,-0.209878 -0.091,-0.295828 -0.06,-0.08595 -0.134,-0.15491 -0.222,-0.205881 L 33.5,3.66587 c 0.126,0.08096 0.228,0.1849 0.305,0.31182 z"
               class="28vdc"
               id="path1705" />
            <path
               d="m 33.844,24.4678 h -2.739 l 0.435,0.56967 -0.317,0.18989 -0.583999,-0.782546 v -0.375782 h 3.205 z m -1.603,-3.1082 c 0.124,0 0.251,0.005 0.38,0.01599 0.13,0.01099 0.257,0.02898 0.38,0.05397 0.124,0.02598 0.24,0.05997 0.349,0.10394 0.109,0.04397 0.204,0.09994 0.285,0.166903 0.081,0.06796 0.146,0.148914 0.195,0.24186 0.049,0.09295 0.072,0.201883 0.072,0.325811 0,0.123928 -0.024,0.232865 -0.072,0.325811 -0.048,0.09295 -0.113,0.173899 -0.195,0.24186 -0.082,0.06796 -0.177,0.123928 -0.285,0.166903 -0.109,0.04397 -0.225,0.07896 -0.349,0.10394 -0.124,0.02598 -0.251,0.04397 -0.38,0.05397 -0.13,0.01099 -0.256,0.01599 -0.38,0.01599 -0.184,0 -0.375,-0.01199 -0.572999,-0.03598 -0.198,-0.02399 -0.376,-0.06996 -0.535999,-0.13792 -0.16,-0.06796 -0.292,-0.160907 -0.396,-0.277839 -0.104,-0.117932 -0.156,-0.269843 -0.156,-0.456735 0,-0.186892 0.052,-0.338803 0.156,-0.456735 0.104,-0.117932 0.236,-0.210878 0.396,-0.277839 0.16,-0.06796 0.339,-0.113934 0.535999,-0.13792 C 31.866,21.3716 32.057,21.3596 32.241,21.3596 Z m 0,0.4158 c -0.112,0 -0.242,0.005 -0.392,0.01599 -0.149,0.01099 -0.291,0.03198 -0.426,0.06596 -0.134,0.03298 -0.248,0.08195 -0.342,0.146915 -0.094,0.06496 -0.14,0.152911 -0.14,0.264846 0,0.111935 0.047,0.199884 0.14,0.264846 0.093,0.06496 0.208,0.114933 0.342,0.148914 0.134,0.03498 0.276,0.05697 0.426,0.06596 0.149,0.009 0.28,0.01399 0.392,0.01399 0.075,0 0.16,-0.002 0.253,-0.007 0.094,-0.005 0.189,-0.01199 0.285,-0.02299 0.097,-0.01 0.19,-0.02698 0.281,-0.04997 0.091,-0.02299 0.171,-0.05197 0.242,-0.08795 0.071,-0.03598 0.128,-0.08095 0.172,-0.133922 0.044,-0.05297 0.066,-0.116932 0.066,-0.191889 0,-0.07196 -0.022,-0.135921 -0.066,-0.18989 -0.044,-0.05397 -0.101,-0.09994 -0.172,-0.135921 -0.071,-0.03598 -0.152,-0.06596 -0.242,-0.08795 -0.091,-0.02299 -0.184,-0.03898 -0.281,-0.04997 -0.097,-0.01099 -0.192,-0.01799 -0.285,-0.02299 -0.093,-0.005 -0.177,-0.007 -0.253,-0.007 z m 1.603,-2.3387 -0.750999,0.180895 v 0.927462 L 33.844,20.730949 V 21.14271 L 30.639,20.337177 V 19.7985 l 3.205,-0.787543 z m -2.825,0.6287 v 0.01799 l 1.752,0.406764 v -0.818525 z"
               class="10a"
               id="path1707" />
            <path
               d="m 32.957,37.979 c 0.13,0 0.252,0.01999 0.367,0.06097 0.115,0.04098 0.215,0.09894 0.301,0.173899 0.086,0.07596 0.154,0.166903 0.204,0.27584 0.05,0.108937 0.075,0.231866 0.075,0.370785 0,0.222871 -0.056,0.410762 -0.167,0.563673 -0.112,0.151912 -0.275,0.25885 -0.489,0.318815 l -0.1,-0.36179 c 0.121,-0.03598 0.219,-0.09694 0.294,-0.180895 0.075,-0.08395 0.113,-0.191889 0.113,-0.320814 0,-0.08795 -0.019,-0.162906 -0.057,-0.225869 -0.038,-0.06296 -0.086,-0.115933 -0.145,-0.157908 -0.059,-0.04198 -0.125,-0.07296 -0.197,-0.09295 -0.072,-0.01999 -0.143,-0.02898 -0.213,-0.02898 -0.199,0 -0.35,0.05397 -0.453,0.162906 -0.102,0.108937 -0.154,0.248856 -0.154,0.420756 v 0.112934 L 32.01,39.0703 v -0.121929 c 0,-0.153911 -0.05,-0.27584 -0.15,-0.366787 -0.1,-0.09095 -0.239,-0.135921 -0.418,-0.135921 -0.061,0 -0.122,0.008 -0.184,0.02498 -0.062,0.01699 -0.118,0.04198 -0.168,0.07696 -0.05,0.03498 -0.091,0.07995 -0.123,0.135921 -0.032,0.05597 -0.048,0.121929 -0.048,0.196886 0,0.09394 0.029,0.174899 0.086,0.243859 0.057,0.06896 0.133,0.123928 0.226,0.162906 L 31.122,39.63997 C 31.028,39.60399 30.947,39.55802 30.879,39.50205 30.81,39.44608 30.753,39.383119 30.709,39.31216 30.664,39.2412 30.632,39.166245 30.611,39.08829 30.59,39.01034 30.58,38.931381 30.58,38.853426 c 0,-0.117932 0.02,-0.22487 0.059,-0.320814 0.039,-0.09694 0.095,-0.179896 0.168,-0.250855 0.072,-0.07096 0.159,-0.125927 0.26,-0.164904 0.101,-0.03898 0.212,-0.05897 0.333,-0.05897 0.088,0 0.173,0.01099 0.256,0.03198 0.083,0.02099 0.158,0.05197 0.226,0.09295 0.068,0.04098 0.126,0.09095 0.174,0.151912 0.048,0.05996 0.081,0.129925 0.1,0.207879 h 0.009 c 0.039,-0.1719 0.13,-0.308821 0.272,-0.409762 C 32.578,38.0289 32.751,37.979 32.957,37.979 Z m -0.716,-2.2627 c 0.124,0 0.251,0.005 0.38,0.01599 0.13,0.01099 0.257,0.02898 0.38,0.05397 0.124,0.02598 0.24,0.05997 0.349,0.10394 0.109,0.04397 0.204,0.09994 0.285,0.166903 0.081,0.06796 0.146,0.148914 0.195,0.24186 0.048,0.09395 0.072,0.201883 0.072,0.325811 0,0.123928 -0.024,0.231866 -0.072,0.325811 -0.048,0.09395 -0.113,0.173899 -0.195,0.24186 -0.082,0.06796 -0.177,0.123928 -0.285,0.167903 -0.109,0.04398 -0.225,0.07896 -0.349,0.10394 -0.124,0.02598 -0.251,0.04398 -0.38,0.05397 -0.13,0.01 -0.256,0.01599 -0.38,0.01599 -0.184,0 -0.375,-0.01199 -0.572999,-0.03598 -0.198,-0.02399 -0.376,-0.06996 -0.535999,-0.13792 -0.159999,-0.06796 -0.292,-0.160907 -0.396,-0.277839 -0.104,-0.117932 -0.156,-0.269843 -0.156,-0.456735 0,-0.186892 0.052,-0.339803 0.156,-0.456735 0.104,-0.117932 0.236,-0.209878 0.396,-0.277839 0.16,-0.06796 0.339,-0.113934 0.535999,-0.13792 C 31.866,35.7283 32.057,35.7163 32.241,35.7163 Z m 0,0.4167 c -0.112,0 -0.242,0.005 -0.392,0.01599 -0.149,0.01099 -0.291,0.03298 -0.426,0.06596 -0.134,0.03298 -0.248,0.08195 -0.342,0.146915 -0.094,0.06496 -0.14,0.152911 -0.14,0.264846 0,0.111935 0.047,0.199884 0.14,0.264846 0.094,0.06496 0.208,0.114933 0.342,0.148914 0.134,0.03498 0.276,0.05697 0.426,0.06596 0.149,0.009 0.28,0.01399 0.392,0.01399 0.075,0 0.16,-0.002 0.253,-0.007 0.094,-0.005 0.189,-0.01199 0.285,-0.02299 0.097,-0.01099 0.19,-0.02698 0.281,-0.04997 0.091,-0.02299 0.171,-0.05197 0.242,-0.08795 0.071,-0.03598 0.128,-0.08095 0.172,-0.132923 0.044,-0.05297 0.066,-0.116932 0.066,-0.191889 0,-0.07196 -0.022,-0.135921 -0.066,-0.18989 -0.044,-0.05397 -0.101,-0.09994 -0.172,-0.135921 -0.071,-0.03598 -0.152,-0.06596 -0.242,-0.08795 -0.091,-0.02299 -0.184,-0.03898 -0.281,-0.04997 -0.097,-0.01 -0.192,-0.01799 -0.285,-0.02299 -0.093,-0.006 -0.177,-0.008 -0.253,-0.008 z m 1.603,-1.9318 v 0.524696 l -3.205,0.787543 v -0.44774 l 2.734,-0.610646 v -0.009 L 30.639,33.835407 V 33.400595 Z M 32.246,31.088 c 0.518999,0 0.914999,0.105939 1.188,0.316816 0.273,0.210878 0.41,0.506706 0.41,0.886486 v 0.732575 h -3.205 v -0.737572 c 0,-0.37978 0.137,-0.674609 0.412,-0.884487 C 31.325,31.1929 31.724,31.088 32.246,31.088 Z m 0,0.4077 c -0.211,0 -0.395,0.01999 -0.551999,0.06096 -0.157,0.04098 -0.287,0.09594 -0.389,0.166903 -0.103,0.07096 -0.18,0.15491 -0.231,0.251854 -0.051,0.09794 -0.077,0.201883 -0.077,0.312819 v 0.328809 h 2.49 v -0.328809 c 0,-0.110936 -0.026,-0.215875 -0.077,-0.312819 -0.051,-0.09794 -0.128,-0.181895 -0.231,-0.251854 -0.103,-0.07096 -0.232,-0.125927 -0.387,-0.166903 C 32.636,31.5157 32.454,31.4957 32.246,31.4957 Z m 1.559,-2.4296 c 0.077,0.126926 0.115,0.280837 0.115,0.461732 0,0.177897 -0.042,0.337804 -0.127,0.479722 -0.084,0.141918 -0.202,0.260849 -0.353,0.357792 -0.151,0.09694 -0.328,0.170901 -0.531999,0.221871 -0.204,0.05097 -0.426,0.07696 -0.667999,0.07696 -0.241,0 -0.465,-0.02599 -0.669999,-0.07895 -0.205,-0.05297 -0.382,-0.127926 -0.531999,-0.225869 -0.149,-0.09794 -0.266,-0.216874 -0.351,-0.357792 -0.084,-0.139919 -0.127,-0.297827 -0.127,-0.472726 0,-0.162906 0.032,-0.311819 0.095,-0.44774 0.063,-0.135921 0.16,-0.246857 0.29,-0.334806 l 0.276,0.252853 c -0.096,0.06596 -0.168,0.142917 -0.215,0.230866 -0.047,0.08695 -0.07,0.180895 -0.07,0.280837 0,0.123928 0.035,0.230866 0.104,0.321813 0.069,0.09095 0.163,0.164904 0.281,0.22387 0.118,0.05897 0.256,0.10294 0.414,0.133922 0.158,0.02998 0.327,0.04497 0.505,0.04497 0.178,0 0.345,-0.01499 0.502,-0.04497 0.157,-0.02998 0.295,-0.07596 0.414,-0.135921 0.119,-0.06096 0.214,-0.136921 0.283,-0.228867 0.069,-0.09195 0.104,-0.199884 0.104,-0.323812 0,-0.110936 -0.03,-0.209878 -0.091,-0.295828 -0.06,-0.08595 -0.134,-0.15491 -0.222,-0.205881 l 0.267,-0.243859 C 33.626,28.8353 33.728,28.9392 33.805,29.0661 Z"
               class="30vdc"
               id="path1709" />
            <path
               d="m 33.844,49.0076 h -2.739 l 0.435,0.56967 -0.317,0.18989 -0.583999,-0.782546 v -0.375782 h 3.205 z m -1.603,-3.1082 c 0.124,0 0.251,0.005 0.38,0.01599 0.13,0.01099 0.257,0.02898 0.38,0.05397 0.124,0.02599 0.24,0.05997 0.349,0.10394 0.109,0.04398 0.204,0.09994 0.285,0.166903 0.081,0.06796 0.146,0.148914 0.195,0.24186 0.048,0.09395 0.072,0.201883 0.072,0.325811 0,0.123928 -0.024,0.231866 -0.072,0.325811 -0.048,0.09395 -0.113,0.173899 -0.195,0.24186 -0.082,0.06796 -0.177,0.123928 -0.285,0.167903 -0.109,0.04397 -0.225,0.07796 -0.349,0.10394 -0.124,0.02598 -0.251,0.04397 -0.38,0.05397 -0.13,0.01099 -0.256,0.01599 -0.38,0.01599 -0.184,0 -0.375,-0.01199 -0.572999,-0.03598 -0.198,-0.02399 -0.376,-0.06996 -0.535999,-0.13792 -0.16,-0.06796 -0.292,-0.160907 -0.396,-0.277839 -0.104,-0.117932 -0.156,-0.269843 -0.156,-0.456735 0,-0.186892 0.052,-0.339803 0.156,-0.456735 0.104,-0.117932 0.236,-0.209878 0.396,-0.277839 0.16,-0.06796 0.339,-0.113934 0.535999,-0.13792 C 31.866,45.9114 32.057,45.8994 32.241,45.8994 Z m 0,0.4157 c -0.112,0 -0.242,0.005 -0.392,0.01599 -0.149,0.01099 -0.291,0.03198 -0.426,0.06596 -0.134,0.03298 -0.248,0.08195 -0.342,0.146915 -0.094,0.06496 -0.14,0.152911 -0.14,0.264846 0,0.111935 0.047,0.199884 0.14,0.264846 0.094,0.06496 0.208,0.114933 0.342,0.148914 0.134,0.03498 0.276,0.05697 0.426,0.06596 0.149,0.009 0.28,0.01399 0.392,0.01399 0.075,0 0.16,-0.002 0.253,-0.007 0.094,-0.005 0.189,-0.01199 0.285,-0.02299 0.097,-0.01099 0.19,-0.02698 0.281,-0.04997 0.091,-0.02299 0.171,-0.05197 0.242,-0.08795 0.071,-0.03598 0.128,-0.08095 0.172,-0.132923 0.044,-0.05297 0.066,-0.116932 0.066,-0.191889 0,-0.07196 -0.022,-0.135921 -0.066,-0.18989 -0.044,-0.05397 -0.101,-0.09994 -0.172,-0.135921 -0.071,-0.03598 -0.152,-0.06596 -0.242,-0.08795 -0.091,-0.02299 -0.184,-0.03898 -0.281,-0.04997 -0.097,-0.01099 -0.192,-0.01799 -0.285,-0.02299 -0.093,-0.005 -0.177,-0.008 -0.253,-0.008 z m 1.603,-2.3386 -0.750999,0.180895 v 0.927462 L 33.844,45.270749 v 0.411761 l -3.205,-0.805533 v -0.538688 l 3.205,-0.787543 z m -2.825,0.6286 v 0.01799 l 1.752,0.406764 v -0.818525 z"
               class="10a"
               id="path1711" />
          </g>
          <g
             id="g1723">
            <path
               d="m 29.18,15.433 h -2.739 l 0.435,0.56967 -0.317,0.18989 -0.583999,-0.782546 v -0.375782 h 3.205 z m -2.399,-2.9772 c 0.103,0 0.199,0.01299 0.287,0.03798 0.089,0.02598 0.177,0.06096 0.263,0.10394 0.086,0.04298 0.172,0.09494 0.258,0.153911 0.086,0.05897 0.176,0.122929 0.269,0.191889 l 0.963999,0.705591 v -1.15333 h 0.358 v 1.60107 h -0.376 l -1.218,-0.895481 c -0.142,-0.105939 -0.276,-0.186892 -0.403,-0.243859 -0.127,-0.05697 -0.254,-0.08595 -0.38,-0.08595 -0.145,0 -0.27,0.03298 -0.376,0.09994 -0.106,0.06596 -0.158,0.168902 -0.158,0.307821 0,0.12093 0.042,0.219872 0.124,0.298827 0.083,0.07795 0.203,0.129925 0.36,0.153911 l -0.041,0.384777 c -0.263,-0.04198 -0.461,-0.138919 -0.594999,-0.289832 -0.134,-0.150912 -0.201,-0.341802 -0.201,-0.574667 0,-0.129925 0.023,-0.243859 0.068,-0.343801 0.045,-0.09994 0.106,-0.181895 0.183,-0.248856 0.077,-0.06596 0.168,-0.116932 0.274,-0.151912 0.106,-0.03397 0.219,-0.05197 0.34,-0.05197 z m 1.376,-2.2207 c 0.172,0 0.325,0.02199 0.459,0.06596 0.134,0.04397 0.247,0.10394 0.339,0.180895 0.092,0.07695 0.162,0.168902 0.211,0.27584 0.049,0.106938 0.072,0.22387 0.072,0.350797 0,0.207879 -0.054,0.383777 -0.163,0.526695 -0.109,0.142917 -0.264,0.244858 -0.466,0.305823 l -0.118,-0.348798 c 0.118,-0.04198 0.212,-0.10294 0.283,-0.182894 0.071,-0.07995 0.106,-0.176897 0.106,-0.291831 0,-0.147914 -0.064,-0.265846 -0.192,-0.354794 -0.128,-0.08895 -0.301,-0.132923 -0.517999,-0.132923 -0.216999,0 -0.388,0.04797 -0.513999,0.144916 -0.125,0.09694 -0.188,0.233864 -0.188,0.411761 0,0.08795 0.014,0.183893 0.043,0.289832 0.029,0.105939 0.064,0.194887 0.106,0.266845 l -1.643,-0.04497 v -1.35222 h 0.358 v 1.00442 l 0.895999,0.03598 c -0.024,-0.04797 -0.043,-0.10294 -0.057,-0.164904 -0.014,-0.06196 -0.02,-0.116932 -0.02,-0.164904 0,-0.135921 0.025,-0.254852 0.075,-0.357792 0.05,-0.101941 0.118,-0.187891 0.206,-0.255852 0.088,-0.06796 0.193,-0.118931 0.317,-0.153911 C 27.873,10.2521 28.009,10.2351 28.157,10.2351 Z M 29.18,8.629 V 9.153696 L 25.975,9.941239 V 9.49249 L 28.709,8.881844 V 8.872854 L 25.975,8.262208 V 7.82746 Z m 0,-2.51155 -0.750999,0.180895 -1e-6,0.927465 0.750999,0.185892 v 0.411761 l -3.205,-0.805533 1e-6,-0.53869 3.205,-0.787543 z m -2.825,0.62864 v 0.01799 l 1.752,0.406764 V 6.35332 Z m 2.786,-2.87234 c 0.077,0.126926 0.115,0.280837 0.115,0.461732 0,0.177897 -0.042,0.337804 -0.127,0.479722 -0.084,0.141918 -0.202,0.260849 -0.353,0.357792 -0.151,0.096944 -0.328,0.170901 -0.531999,0.221871 -0.204,0.05097 -0.426,0.076955 -0.667999,0.076955 -0.241999,0 -0.465,-0.025985 -0.669999,-0.078954 -0.205,-0.052969 -0.382,-0.127926 -0.531999,-0.225869 -0.149,-0.097943 -0.266,-0.216874 -0.351,-0.357792 -0.084,-0.139919 -0.127,-0.297827 -0.127,-0.472726 0,-0.162906 0.032,-0.311819 0.095,-0.44774 0.063,-0.135921 0.16,-0.246857 0.29,-0.334806 l 0.276,0.252853 c -0.096,0.065962 -0.168,0.142917 -0.215,0.230866 -0.047,0.08695 -0.07,0.180895 -0.07,0.280837 0,0.123928 0.035,0.230866 0.104,0.320814 0.069,0.090947 0.163,0.164904 0.281,0.22387 0.118,0.058966 0.256,0.10294 0.414,0.133922 0.158,0.030982 0.327,0.044974 0.505,0.044974 0.178,0 0.345,-0.014991 0.502,-0.044974 0.157,-0.029983 0.295,-0.074956 0.414,-0.135921 0.119,-0.059965 0.214,-0.136921 0.283,-0.228867 0.069,-0.091947 0.104,-0.199884 0.104,-0.323812 0,-0.111935 -0.03,-0.209878 -0.091,-0.295828 -0.06,-0.08595 -0.134,-0.15491 -0.222,-0.205881 l 0.267,-0.243859 C 28.963,3.64289 29.064,3.74683 29.141,3.87375 Z"
               class="125vac"
               id="path1715" />
            <path
               d="m 29.18,24.4678 h -2.739 l 0.435,0.56967 -0.317,0.18989 -0.583999,-0.782546 v -0.375782 h 3.205 z m -1.603,-3.1082 c 0.124,0 0.251,0.005 0.38,0.01599 0.13,0.01099 0.257,0.02898 0.38,0.05397 0.124,0.02598 0.24,0.05997 0.349,0.10394 0.109,0.04397 0.204,0.09994 0.285,0.166903 0.081,0.06796 0.146,0.148914 0.195,0.24186 0.049,0.09295 0.072,0.201883 0.072,0.325811 0,0.123928 -0.024,0.232865 -0.072,0.325811 -0.048,0.09295 -0.113,0.173899 -0.195,0.24186 -0.082,0.06796 -0.177,0.123928 -0.285,0.166903 -0.109,0.04397 -0.225,0.07896 -0.349,0.10394 -0.124,0.02598 -0.251,0.04397 -0.38,0.05397 -0.13,0.01099 -0.256,0.01599 -0.38,0.01599 -0.184,0 -0.375,-0.01199 -0.572999,-0.03598 -0.198,-0.02399 -0.376,-0.06996 -0.535999,-0.13792 -0.16,-0.06796 -0.292,-0.160907 -0.396,-0.277839 -0.104,-0.117932 -0.156,-0.269843 -0.156,-0.456735 0,-0.186892 0.052,-0.338803 0.156,-0.456735 0.104,-0.117932 0.236,-0.210878 0.396,-0.277839 0.16,-0.06796 0.339,-0.113934 0.535999,-0.13792 C 27.202,21.3716 27.393,21.3596 27.577,21.3596 Z m 0,0.4158 c -0.112,0 -0.242,0.005 -0.392,0.01599 -0.149,0.01099 -0.291,0.03198 -0.426,0.06596 -0.134,0.03298 -0.248,0.08195 -0.342,0.146915 -0.094,0.06496 -0.14,0.152911 -0.14,0.264846 0,0.111935 0.047,0.199884 0.14,0.264846 0.093,0.06496 0.208,0.114933 0.342,0.148914 0.134,0.03498 0.276,0.05697 0.426,0.06596 0.149,0.009 0.28,0.01399 0.392,0.01399 0.075,0 0.16,-0.002 0.253,-0.007 0.094,-0.005 0.189,-0.01199 0.285,-0.02299 0.097,-0.01 0.19,-0.02698 0.281,-0.04997 0.091,-0.02299 0.171,-0.05197 0.242,-0.08795 0.071,-0.03598 0.128,-0.08095 0.172,-0.133922 0.044,-0.05297 0.066,-0.116932 0.066,-0.191889 0,-0.07196 -0.022,-0.135921 -0.066,-0.18989 -0.044,-0.05397 -0.101,-0.09994 -0.172,-0.135921 -0.071,-0.03598 -0.152,-0.06596 -0.242,-0.08795 -0.091,-0.02299 -0.184,-0.03898 -0.281,-0.04997 -0.097,-0.01099 -0.192,-0.01799 -0.285,-0.02299 -0.093,-0.005 -0.177,-0.007 -0.253,-0.007 z m 1.603,-2.3387 -0.750999,0.180895 v 0.927462 L 29.18,20.730949 V 21.14271 L 25.975,20.337177 V 19.7985 l 3.205,-0.787543 z m -2.825,0.6287 v 0.01799 l 1.752,0.406764 v -0.818525 z"
               class="10a"
               id="path1717" />
            <path
               d="m 26.781,39.725 c 0.103,0 0.199,0.01299 0.287,0.03798 0.089,0.02599 0.177,0.05997 0.263,0.10394 0.086,0.04398 0.172,0.09495 0.258,0.153911 0.086,0.05897 0.176,0.122929 0.269,0.191889 l 0.963999,0.705591 v -1.15333 h 0.358 v 1.60107 h -0.376 l -1.218,-0.895481 c -0.142,-0.105939 -0.276,-0.186892 -0.403,-0.243859 -0.127,-0.05697 -0.254,-0.08595 -0.38,-0.08595 -0.145,0 -0.27,0.03298 -0.376,0.09994 -0.106,0.06596 -0.158,0.168902 -0.158,0.307821 0,0.12093 0.042,0.219872 0.124,0.298827 0.083,0.07795 0.203,0.129925 0.36,0.153911 l -0.041,0.384777 c -0.263,-0.04198 -0.461,-0.138919 -0.594999,-0.289832 -0.133999,-0.150913 -0.201,-0.341802 -0.201,-0.574667 0,-0.129925 0.023,-0.243859 0.068,-0.343801 0.045,-0.09994 0.106,-0.182894 0.183,-0.248856 0.077,-0.06596 0.168,-0.116932 0.274,-0.151912 0.106,-0.03507 0.219,-0.05197 0.34,-0.05197 z m 1.376,-2.2218 c 0.172,0 0.325,0.02199 0.459,0.06596 0.134,0.04397 0.247,0.10394 0.339,0.180895 0.092,0.07696 0.162,0.168902 0.211,0.27584 0.048,0.106938 0.072,0.22387 0.072,0.350797 0,0.207879 -0.054,0.383777 -0.163,0.526695 -0.109,0.142918 -0.264,0.244858 -0.466,0.305823 l -0.118,-0.348798 c 0.118,-0.04198 0.212,-0.10294 0.283,-0.182894 0.071,-0.07995 0.106,-0.176897 0.106,-0.291831 0,-0.147914 -0.064,-0.265846 -0.192,-0.354794 -0.128,-0.08895 -0.301,-0.133922 -0.517999,-0.133922 -0.216999,0 -0.388,0.04797 -0.513999,0.144916 -0.125,0.09694 -0.188,0.233864 -0.188,0.411761 0,0.08795 0.014,0.183893 0.043,0.289832 0.029,0.105939 0.064,0.194887 0.106,0.266845 l -1.643,-0.04497 v -1.35322 h 0.358 v 1.00442 l 0.895999,0.03598 c -0.024,-0.04797 -0.043,-0.10294 -0.057,-0.164904 -0.014,-0.06196 -0.02,-0.116932 -0.02,-0.164904 0,-0.135921 0.025,-0.254852 0.075,-0.357792 0.05,-0.10294 0.118,-0.187891 0.206,-0.255852 0.088,-0.06796 0.193,-0.118931 0.317,-0.153911 C 27.873,37.5212 28.009,37.5032 28.157,37.5032 Z m -0.58,-2.2706 c 0.124,0 0.251,0.005 0.38,0.01599 0.13,0.01099 0.257,0.02898 0.38,0.05397 0.124,0.02598 0.24,0.05997 0.349,0.10394 0.109,0.04398 0.204,0.09994 0.285,0.166903 0.081,0.06796 0.146,0.148914 0.195,0.24186 0.048,0.09395 0.072,0.201883 0.072,0.325811 0,0.123928 -0.024,0.231866 -0.072,0.325811 -0.048,0.09395 -0.113,0.173899 -0.195,0.24186 -0.082,0.06796 -0.177,0.123928 -0.285,0.167903 -0.109,0.04398 -0.225,0.07896 -0.349,0.10394 -0.124,0.02598 -0.251,0.04398 -0.38,0.05397 -0.13,0.01099 -0.256,0.01599 -0.38,0.01599 -0.184,0 -0.375,-0.01199 -0.572999,-0.03598 -0.198,-0.02399 -0.376,-0.06996 -0.535999,-0.13792 -0.16,-0.06796 -0.292,-0.160907 -0.396,-0.277839 -0.104,-0.117932 -0.156,-0.269843 -0.156,-0.456735 0,-0.186892 0.052,-0.338803 0.156,-0.456735 0.104,-0.117932 0.236,-0.209878 0.396,-0.277839 0.16,-0.06796 0.339,-0.113934 0.535999,-0.13792 C 27.202,35.2446 27.393,35.2326 27.577,35.2326 Z m 0,0.4157 c -0.112,0 -0.242,0.005 -0.392,0.01599 -0.149,0.01099 -0.291,0.03298 -0.426,0.06596 -0.134,0.03298 -0.248,0.08195 -0.342,0.146915 -0.094,0.06496 -0.14,0.152911 -0.14,0.264846 0,0.111935 0.047,0.199884 0.14,0.264846 0.094,0.06496 0.208,0.114933 0.342,0.148914 0.134,0.03498 0.276,0.05697 0.426,0.06596 0.149,0.009 0.28,0.01399 0.392,0.01399 0.075,0 0.16,-0.002 0.253,-0.007 0.094,-0.005 0.189,-0.01199 0.285,-0.02299 0.097,-0.01099 0.19,-0.02698 0.281,-0.04997 0.091,-0.02299 0.171,-0.05197 0.242,-0.08795 0.071,-0.03598 0.128,-0.08095 0.172,-0.133922 0.044,-0.05297 0.066,-0.116932 0.066,-0.191889 0,-0.07196 -0.022,-0.135921 -0.066,-0.18989 -0.044,-0.05397 -0.101,-0.09994 -0.172,-0.135921 -0.071,-0.03598 -0.152,-0.06596 -0.242,-0.08795 -0.091,-0.02299 -0.184,-0.03898 -0.281,-0.04997 -0.097,-0.01 -0.192,-0.01799 -0.285,-0.02299 -0.093,-0.004 -0.177,-0.007 -0.253,-0.007 z m 1.603,-1.9309 v 0.524696 l -3.205,0.787543 v -0.44774 l 2.734,-0.610646 v -0.009 l -2.734,-0.610646 v -0.434748 z m 0,-2.5115 -0.750999,0.180895 v 0.927462 L 29.18,32.500149 v 0.411761 l -3.205,-0.805533 v -0.538688 l 3.205,-0.787543 z m -2.825,0.6286 v 0.01799 l 1.752,0.406764 v -0.818525 z m 2.786,-2.8723 c 0.077,0.126926 0.115,0.280837 0.115,0.461732 0,0.177897 -0.042,0.337804 -0.127,0.479722 -0.084,0.141918 -0.202,0.260849 -0.353,0.357792 -0.151,0.09694 -0.328,0.170901 -0.531999,0.221871 -0.204,0.05097 -0.426,0.07696 -0.667999,0.07696 -0.241999,0 -0.465,-0.02599 -0.669999,-0.07895 -0.205,-0.05297 -0.382,-0.127926 -0.531999,-0.225869 -0.149,-0.09794 -0.266,-0.216874 -0.351,-0.357792 -0.084,-0.139919 -0.127,-0.297827 -0.127,-0.472726 0,-0.162906 0.032,-0.311819 0.095,-0.44774 0.063,-0.135921 0.16,-0.246857 0.29,-0.334806 l 0.276,0.252853 c -0.096,0.06596 -0.168,0.142917 -0.215,0.230866 -0.047,0.08695 -0.07,0.180895 -0.07,0.280837 0,0.123928 0.035,0.230866 0.104,0.320814 0.069,0.09095 0.163,0.164904 0.281,0.22387 0.118,0.05897 0.256,0.10294 0.414,0.133922 0.158,0.02998 0.327,0.04497 0.505,0.04497 0.178,0 0.345,-0.01499 0.502,-0.04497 0.157,-0.02998 0.295,-0.07496 0.414,-0.135921 0.119,-0.05996 0.214,-0.136921 0.283,-0.228867 0.069,-0.09195 0.104,-0.199884 0.104,-0.323812 0,-0.111935 -0.03,-0.209878 -0.091,-0.295828 -0.06,-0.08595 -0.134,-0.15491 -0.222,-0.205881 l 0.267,-0.243859 C 28.963,28.7313 29.064,28.8353 29.141,28.9622 Z"
               class="250vac"
               id="path1719" />
            <path
               d="m 29.18,49.0076 h -2.739 l 0.435,0.56967 -0.317,0.18989 -0.583999,-0.782546 v -0.375782 h 3.205 z m -1.603,-3.1082 c 0.124,0 0.251,0.005 0.38,0.01599 0.13,0.01099 0.257,0.02898 0.38,0.05397 0.124,0.02599 0.24,0.05997 0.349,0.10394 0.109,0.04398 0.204,0.09994 0.285,0.166903 0.081,0.06796 0.146,0.148914 0.195,0.24186 0.048,0.09395 0.072,0.201883 0.072,0.325811 0,0.123928 -0.024,0.231866 -0.072,0.325811 -0.048,0.09395 -0.113,0.173899 -0.195,0.24186 -0.082,0.06796 -0.177,0.123928 -0.285,0.167903 -0.109,0.04397 -0.225,0.07796 -0.349,0.10394 -0.124,0.02598 -0.251,0.04397 -0.38,0.05397 -0.13,0.01099 -0.256,0.01599 -0.38,0.01599 -0.184,0 -0.375,-0.01199 -0.572999,-0.03598 -0.198,-0.02399 -0.376,-0.06996 -0.535999,-0.13792 -0.16,-0.06796 -0.292,-0.160907 -0.396,-0.277839 -0.104,-0.117932 -0.156,-0.269843 -0.156,-0.456735 0,-0.186892 0.052,-0.339803 0.156,-0.456735 0.104,-0.117932 0.236,-0.209878 0.396,-0.277839 0.16,-0.06796 0.339,-0.113934 0.535999,-0.13792 C 27.202,45.9114 27.393,45.8994 27.577,45.8994 Z m 0,0.4157 c -0.112,0 -0.242,0.005 -0.392,0.01599 -0.149,0.01099 -0.291,0.03198 -0.426,0.06596 -0.134,0.03298 -0.248,0.08195 -0.342,0.146915 -0.094,0.06496 -0.14,0.152911 -0.14,0.264846 0,0.111935 0.047,0.199884 0.14,0.264846 0.094,0.06496 0.208,0.114933 0.342,0.148914 0.134,0.03498 0.276,0.05697 0.426,0.06596 0.149,0.009 0.28,0.01399 0.392,0.01399 0.075,0 0.16,-0.002 0.253,-0.007 0.094,-0.005 0.189,-0.01199 0.285,-0.02299 0.097,-0.01099 0.19,-0.02698 0.281,-0.04997 0.091,-0.02299 0.171,-0.05197 0.242,-0.08795 0.071,-0.03598 0.128,-0.08095 0.172,-0.132923 0.044,-0.05297 0.066,-0.116932 0.066,-0.191889 0,-0.07196 -0.022,-0.135921 -0.066,-0.18989 -0.044,-0.05397 -0.101,-0.09994 -0.172,-0.135921 -0.071,-0.03598 -0.152,-0.06596 -0.242,-0.08795 -0.091,-0.02299 -0.184,-0.03898 -0.281,-0.04997 -0.097,-0.01099 -0.192,-0.01799 -0.285,-0.02299 -0.093,-0.005 -0.177,-0.008 -0.253,-0.008 z m 1.603,-2.3386 -0.750999,0.180895 v 0.927462 L 29.18,45.270749 v 0.411761 l -3.205,-0.805533 v -0.538688 l 3.205,-0.787543 z m -2.825,0.6286 v 0.01799 l 1.752,0.406764 v -0.818525 z"
               class="10a"
               id="path1721" />
          </g>
          <path
             d="m 19.179,8.07732 v -0.5187 h 1.702 c 0.264,0 0.437,-0.006 0.516999,-0.018989 0.139,-0.022987 0.246,-0.077955 0.322,-0.163905 0.076,-0.08695 0.114,-0.200883 0.114,-0.342801 0,-0.11993 -0.027,-0.217874 -0.08,-0.29383 -0.054,-0.075956 -0.128,-0.127926 -0.223,-0.15591 -0.095,-0.027984 -0.299,-0.041976 -0.611999,-0.041976 H 19.181 V 6.0225097 h 1.65 c 0.422,0 0.725999,0.022987 0.913999,0.067961 0.188,0.044974 0.34,0.146915 0.457,0.303824 0.117,0.157908 0.175,0.365788 0.175,0.624638 0,0.268844 -0.048,0.477723 -0.145,0.628635 -0.096,0.150912 -0.232,0.259849 -0.407,0.32781 -0.175,0.067961 -0.498,0.101941 -0.967999,0.101941 z m 2.118,-2.47057 -0.06,-0.507706 c 0.402,-0.056967 0.601999,-0.243859 0.601999,-0.561674 0,-0.156909 -0.041,-0.280837 -0.123,-0.370785 -0.082,-0.089948 -0.184,-0.134922 -0.305,-0.134922 -0.071,0 -0.132,0.015991 -0.182,0.046973 -0.05,0.030982 -0.091,0.078954 -0.123,0.143917 -0.032,0.064963 -0.086,0.219872 -0.162,0.466729 -0.067,0.221871 -0.14,0.383777 -0.218,0.486718 -0.079,0.10294 -0.182,0.184893 -0.309,0.244858 -0.128,0.060965 -0.265,0.090947 -0.412,0.090947 -0.171,0 -0.326,-0.038977 -0.463,-0.116932 C 19.404,5.31792 19.3,5.21098 19.23,5.07406 19.16,4.93714 19.125,4.768237 19.125,4.566354 c 0,-0.302824 0.082,-0.538688 0.246,-0.708589 0.164,-0.169901 0.399,-0.259849 0.704999,-0.269843 l 0.028,0.520698 c -0.169,0.022987 -0.286,0.071958 -0.354,0.147914 -0.067,0.075956 -0.101,0.183893 -0.101,0.323812 0,0.139919 0.029,0.247856 0.088,0.323812 0.058,0.075956 0.131,0.113934 0.218,0.113934 0.085,0 0.157,-0.03398 0.216,-0.10294 0.058,-0.06896 0.123,-0.226868 0.193,-0.473725 0.076,-0.260849 0.156,-0.449739 0.239,-0.566671 0.084,-0.115933 0.191,-0.204881 0.324,-0.266845 0.132,-0.060965 0.293,-0.091947 0.481,-0.091947 0.273,0 0.502,0.083951 0.687999,0.251854 0.186,0.167903 0.279,0.43075 0.279,0.787543 C 22.375,5.18399 22.015,5.53579 21.297,5.60675 Z"
             class="us-logo"
             id="path1725" />
          <path
             d="m 16.819,4.25453 h 0.768999 l 1e-6,2.90132 C 17.297,7.124868 17.022001,7.029923 16.761001,6.873014 c -0.26,-0.156909 -0.605999,-0.467729 -1.036,-0.93046 -0.348,-0.372784 -0.583999,-0.601651 -0.706999,-0.686602 -0.171,-0.113934 -0.34,-0.170901 -0.507,-0.170901 -0.185,0 -0.327,0.049971 -0.426,0.148914 -0.099,0.098943 -0.149,0.235863 -0.149,0.410762 0,0.1729 0.052,0.31082 0.156,0.412761 0.104,0.101941 0.277,0.160907 0.518999,0.176897 l -0.083,0.824522 C 14.072001,7.0099354 13.745002,6.856025 13.547002,6.596175 13.35,6.33632 13.25,6.01251 13.25,5.62374 c 0,-0.425753 0.115,-0.760559 0.345,-1.00442 0.23,-0.243859 0.515999,-0.364788 0.857999,-0.364788 0.195,0 0.38,0.03498 0.555999,0.104939 0.176,0.069959 0.36,0.179896 0.552999,0.331808 0.128,0.099942 0.311,0.280837 0.550999,0.541686 0.24,0.260849 0.399,0.426752 0.477,0.496712 0.079,0.069959 0.155,0.125927 0.23,0.168902 L 16.82,4.25453 Z"
             class="2-logo"
             id="path1727" />
          <path
             d="m 22.414,15.499 -0.37,1.46215 -0.730999,-0.184893 c -0.819999,-0.20688 -1.455,-0.478722 -1.941,-0.753563 v 0.91347 c 0,0.341802 -0.23,0.641628 -0.560999,0.728577 l -2.332,0.616642 c -0.226,0.05996 -0.468,0.01099 -0.652999,-0.130924 -0.186,-0.142917 -0.294,-0.363789 -0.294,-0.597653 v -3.52995 c 0,-0.337804 0.225,-0.634632 0.549999,-0.725579 l 4.299,-1.2103 -0.045,-1.22729 -4.541,1.43617 -0.455,-1.43817 5.48599,-1.73599 c 0.225,-0.070959 0.47,-0.032981 0.661999,0.101941 0.191999,0.1349219 0.311,0.353795 0.319,0.588659 l 0.103,2.81037 c 0.014,0.350797 -0.214,0.658618 -0.548999,0.753563 l -2.137,0.601651 c 0.01,0.01499 0.02,0.02998 0.029,0.04497 0.058,0.07795 0.675999,0.84551 2.431,1.28925 z m -4.551,0.8575 v -1.92189 c 0,-0.02498 0.001,-0.04897 0.003,-0.07296 l -0.825999,0.232865 v 1.97985 z"
             class="ru-logo"
             id="path1729" />
          <path
             d="m 19.653,18.88 c -0.076,0.04997 -0.136,0.107937 -0.18,0.175898 -0.044,0.06696 -0.066,0.151912 -0.066,0.254852 0,0.13792 0.05,0.259849 0.149,0.368786 0.099,0.107937 0.226,0.200883 0.38,0.27584 0.154,0.07596 0.322,0.134922 0.505,0.175898 0.183,0.04098 0.358,0.06096 0.524999,0.06096 0.222,0 0.403,-0.03998 0.541999,-0.12093 0.139,-0.08095 0.208,-0.20688 0.208,-0.37978 0,-0.113934 -0.029,-0.211877 -0.086,-0.29383 -0.057,-0.08195 -0.115,-0.148914 -0.173,-0.201883 l 0.347,-0.24186 c 0.117,0.101941 0.211,0.219872 0.281,0.352795 0.07,0.132923 0.105,0.291831 0.105,0.475724 0,0.148914 -0.029,0.281837 -0.088,0.39677 -0.059,0.115933 -0.14,0.212877 -0.244,0.291831 -0.104,0.07895 -0.227,0.138919 -0.371,0.179896 -0.143,0.04098 -0.301,0.06096 -0.474,0.06096 -0.26,0 -0.514999,-0.03498 -0.763999,-0.104939 -0.249,-0.06996 -0.471,-0.168902 -0.666999,-0.295828 -0.196,-0.126926 -0.353,-0.279838 -0.472,-0.458734 -0.119,-0.177897 -0.178,-0.374783 -0.178,-0.587659 0,-0.177897 0.032,-0.328809 0.097,-0.451738 0.064,-0.122929 0.154,-0.219872 0.268,-0.289832 z"
             class="c-logo"
             id="path1731" />
          <path
             d="m 21.937,35.9641 c 0,0.549681 -0.105,1.13534 -0.409,1.78097 l -0.196,0.415759 -6.49799,-3.99368 5.20999,-3.04124 -0.128,0.849507 c -0.003,0.01899 -0.283,1.98785 0.552999,3.24112 0.126,0.18889 0.075,0.444742 -0.114,0.570669 -0.189,0.125927 -0.445,0.07496 -0.570999,-0.113934 -0.643999,-0.966439 -0.750999,-2.21272 -0.738999,-3.01125 l -2.611,1.52412 4.521,2.77839 c 0.302,-0.91447 0.126,-1.66403 -0.088,-2.5805 -0.219,-0.937456 -0.468,-1.99984 -0.186,-3.39603 0.045,-0.222871 0.262,-0.366787 0.485,-0.321813 0.223,0.04497 0.368,0.261848 0.322,0.484719 -0.246,1.22129 -0.029,2.14875 0.181,3.04623 C 21.801,34.7628 21.937,35.3405 21.937,35.9641 Z"
             class="a-logo"
             id="path1733" />
          <g
             class="cqc"
             id="g1739">
            <path
               d="m 22.527,44.0475 c 0,3.0992 -1.708,5.62074 -3.807,5.62074 -2.099,0 -3.807,-2.52154 -3.807,-5.62074 0,-3.0992 1.708,-5.62074 3.807,-5.62074 2.099,-6e-5 3.807,2.52154 3.807,5.62074 z m -7.065,0 c 0,2.79738 1.461,5.07206 3.258,5.07206 1.796,0 3.258,-2.27568 3.258,-5.07206 0,-2.79738 -1.462,-5.07206 -3.258,-5.07206 -1.796,-10e-4 -3.258,2.27466 -3.258,5.07206 z"
               class="cqc-elipse"
               id="path1735" />
            <path
               d="m 18.953,46.8298 0.14,-0.441744 c 0.246,0.06796 0.43,0.179896 0.548999,0.337804 0.12,0.157908 0.18,0.357792 0.18,0.599652 0,0.299826 -0.102,0.545684 -0.307,0.738572 -0.205,0.192888 -0.485,0.289832 -0.839999,0.289832 -0.376,0 -0.667999,-0.09694 -0.875999,-0.290831 -0.208,-0.193888 -0.312,-0.44874 -0.312,-0.765556 0,-0.27584 0.082,-0.50071 0.245,-0.67261 0.097,-0.10294 0.235,-0.179896 0.416,-0.230866 l 0.108,0.450739 c -0.117,0.02698 -0.21,0.08295 -0.277,0.166903 -0.068,0.08495 -0.102,0.187891 -0.102,0.308821 0,0.166903 0.06,0.302824 0.18,0.407763 0.12,0.104939 0.315,0.15591 0.583999,0.15591 0.286,0 0.489,-0.05097 0.609999,-0.153911 0.121,-0.10294 0.182,-0.235863 0.182,-0.400768 0,-0.12093 -0.039,-0.22487 -0.116,-0.312819 C 19.24,46.9298 19.118,46.8668 18.953,46.8298 Z m 0.544,-3.5259 c 0.08,-0.111935 0.144,-0.233864 0.191,-0.364788 l 0.322,0.167903 c -0.02,0.06896 -0.049,0.135921 -0.085,0.201883 -0.007,0.01399 -0.074,0.115933 -0.2,0.302824 0.065,0.147914 0.097,0.311819 0.097,0.491715 0,0.346799 -0.102,0.618641 -0.307,0.815527 -0.204,0.196886 -0.491,0.294829 -0.860999,0.294829 -0.369,0 -0.655999,-0.09894 -0.859999,-0.295828 -0.205,-0.196886 -0.307,-0.46473 -0.307,-0.802535 0,-0.334806 0.102,-0.599652 0.307,-0.795539 0.205,-0.195886 0.492,-0.29383 0.859999,-0.29383 0.195,0 0.367,0.02698 0.514999,0.08195 0.113,0.03999 0.222,0.104886 0.328,0.195886 z m -0.257,0.3658 c -0.069,-0.05897 -0.152,-0.101941 -0.25,-0.131923 -0.098,-0.02898 -0.21,-0.04397 -0.336,-0.04397 -0.261,0 -0.456,0.05797 -0.584999,0.1729 -0.129,0.114933 -0.193,0.265847 -0.193,0.450739 0,0.184893 0.065,0.336805 0.194,0.451738 0.129,0.115933 0.324,0.1729 0.583999,0.1729 0.264,0 0.461,-0.05797 0.591999,-0.1729 0.131,-0.114933 0.196,-0.261848 0.196,-0.437746 0,-0.06596 -0.011,-0.127926 -0.032,-0.185892 -0.061,0.09195 -0.108,0.185892 -0.142,0.281837 l -0.26,-0.127926 C 19.06,43.9495 19.137,43.8066 19.24,43.6697 Z m -0.287,-3.3221 0.14,-0.441744 c 0.246,0.06796 0.43,0.179896 0.548999,0.337804 0.12,0.157908 0.18,0.357792 0.18,0.599652 0,0.299826 -0.102,0.545684 -0.307,0.738572 -0.205,0.192888 -0.485,0.289832 -0.839999,0.289832 -0.376,0 -0.667999,-0.09694 -0.875999,-0.290831 -0.208,-0.193888 -0.312,-0.44874 -0.312,-0.765556 0,-0.27584 0.082,-0.50071 0.245,-0.67261 0.097,-0.10294 0.235,-0.179896 0.416,-0.230866 l 0.108,0.450739 c -0.117,0.02698 -0.21,0.08295 -0.277,0.166903 -0.068,0.08495 -0.102,0.187891 -0.102,0.308821 0,0.166903 0.06,0.302824 0.18,0.407763 0.12,0.104939 0.315,0.15591 0.583999,0.15591 0.286,0 0.489,-0.05097 0.609999,-0.153911 0.121,-0.10294 0.182,-0.235863 0.182,-0.400768 0,-0.12093 -0.039,-0.22487 -0.116,-0.312819 C 19.24,40.4475 19.118,40.3856 18.953,40.3476 Z"
               class="cqc-letters"
               id="path1737" />
          </g>
          <path
             d="m 9.00499,32.3193 c 0,-0.355794 0.091,-0.703592 0.274,-1.04339 0.183,-0.338803 0.444,-0.60365 0.784999,-0.79254 0.340999,-0.18889 0.694999,-0.283835 1.065,-0.283835 0.366,0 0.716999,0.09295 1.055,0.279838 0.338,0.186892 0.599999,0.44774 0.785999,0.784545 0.187,0.336805 0.28,0.688601 0.28,1.05539 0,0.367787 -0.093,0.719583 -0.28,1.05539 -0.187,0.336805 -0.449,0.598653 -0.785999,0.785544 -0.338,0.187891 -0.688999,0.280837 -1.055,0.280837 -0.369,0 -0.723999,-0.09495 -1.065,-0.284835 C 9.722988,33.966354 9.46199,33.701508 9.27899,33.361705 9.09599,33.0228 9.00499,32.676 9.00499,32.3193 Z m 0.351,0 c 0,0.297827 0.076,0.587659 0.229,0.870495 0.153,0.281837 0.371,0.502708 0.654999,0.661616 0.284,0.158908 0.579999,0.238861 0.887999,0.238861 0.306,0 0.598999,-0.07795 0.878999,-0.234864 0.28,-0.15591 0.499,-0.374783 0.654999,-0.656619 0.157,-0.280837 0.235,-0.574667 0.235,-0.880489 0,-0.305823 -0.078,-0.598653 -0.235,-0.880489 -0.157,-0.280837 -0.375,-0.49971 -0.654999,-0.65462 -0.279999,-0.15491 -0.572999,-0.232865 -0.878999,-0.232865 -0.308,0 -0.602999,0.07895 -0.887999,0.237862 -0.284,0.157908 -0.503,0.37878 -0.654999,0.661616 -0.152,0.283796 -0.229,0.573596 -0.229,0.869496 z m 2.94601,0.9304 h -2.284 v -0.784545 c 0,-0.267845 0.021,-0.461732 0.063,-0.581663 0.042,-0.11993 0.116,-0.215875 0.221,-0.286834 0.105,-0.07096 0.217,-0.106938 0.335,-0.106938 0.167,0 0.312,0.05997 0.436,0.178896 0.124,0.118931 0.193,0.276839 0.208,0.473725 0.034,-0.08095 0.074,-0.144916 0.121,-0.193888 0.09,-0.09195 0.241,-0.203882 0.453,-0.337804 l 0.447,-0.278838 v 0.449739 l -0.36,0.202882 c -0.283,0.158908 -0.46,0.287833 -0.531999,0.384777 -0.053,0.06796 -0.079,0.165904 -0.079,0.294829 v 0.216874 H 12.302 Z m -1.286,-0.3678 v -0.446741 c 0,-0.213876 -0.032,-0.359791 -0.096,-0.436747 -0.064,-0.07795 -0.148,-0.116932 -0.253,-0.116932 -0.068,0 -0.128,0.01899 -0.181,0.05597 -0.053,0.03798 -0.093,0.08995 -0.12,0.155911 -0.026,0.06696 -0.039,0.18989 -0.039,0.369785 V 32.8819 Z"
             class="reg"
             id="path1741" />
          <path
             d="m 8.58199,29.1341 0.012,-0.09095 c 0.055,9.99e-4 0.087,0.002 0.096,0.002 0.244,0 0.44,-0.06796 0.586999,-0.202882 0.148,-0.134922 0.222,-0.299826 0.222,-0.495712 0,-0.196886 -0.066,-0.348798 -0.199,-0.456735 -0.133,-0.107937 -0.278,-0.161906 -0.436,-0.161906 -0.059,0 -0.122,0.01 -0.188,0.03098 -0.102,0.03098 -0.192,0.08295 -0.272,0.15491 l -0.328,0.299826 c -0.253,0.230866 -0.434,0.37978 -0.543999,0.445741 -0.109,0.06596 -0.228,0.09794 -0.356,0.09794 -0.197,0 -0.379,-0.07296 -0.544999,-0.219872 -0.167,-0.146915 -0.25,-0.36279 -0.25,-0.646625 0,-0.126926 0.022,-0.256851 0.064,-0.391773 0.043,-0.133922 0.065,-0.214875 0.065,-0.24186 0,-0.05097 -0.014,-0.09395 -0.043,-0.125927 -0.029,-0.03298 -0.059,-0.05897 -0.09,-0.07995 v -0.109936 l 0.955999,0.194887 -0.013,0.08394 c -0.227,0.008 -0.393,0.03698 -0.498,0.08695 -0.185,0.08995 -0.278,0.260849 -0.278,0.511703 0,0.153911 0.044,0.279838 0.132,0.376781 0.088,0.09694 0.199,0.144916 0.332,0.144916 0.108,0 0.198,-0.02199 0.272,-0.06596 0.073,-0.04397 0.176,-0.126926 0.309,-0.250855 l 0.466,-0.433748 c 0.084,-0.07795 0.18,-0.143917 0.287,-0.196886 0.107,-0.05297 0.231,-0.07995 0.373,-0.07995 0.25,0 0.472,0.08695 0.664999,0.260849 0.193,0.173899 0.29,0.406764 0.29,0.696596 0,0.151912 -0.029,0.304823 -0.088,0.460733 -0.059,0.15591 -0.088,0.251854 -0.088,0.288832 0,0.05597 0.013,0.09694 0.04,0.121929 0.027,0.02499 0.066,0.04797 0.12,0.06796 v 0.08395 z m -1.883,-5.201 c 0.219,-0.207879 0.487,-0.311819 0.803999,-0.311819 0.559999,0 1.059,0.207879 1.498,0.623638 0.43,0.408763 0.644999,0.863499 0.644999,1.36121 0,0.315817 -0.098,0.577665 -0.295,0.784545 -0.197,0.207879 -0.477,0.311819 -0.841999,0.311819 -0.516999,0 -1.003,-0.204881 -1.456,-0.616642 -0.455,-0.412761 -0.681999,-0.857503 -0.681999,-1.33523 0,-0.336821 0.109,-0.609621 0.328,-0.817521 z m 1.918,0.5437 c -0.464,-0.235863 -0.894999,-0.353795 -1.292,-0.353795 -0.245,0 -0.437,0.05297 -0.575999,0.158908 -0.138,0.105939 -0.207,0.265846 -0.207,0.480721 0,0.412761 0.276,0.763557 0.827999,1.05439 0.464,0.244876 0.911,0.367776 1.343,0.367776 0.253,0 0.445,-0.05497 0.573999,-0.166903 0.13,-0.110936 0.195,-0.265846 0.195,-0.463731 C 9.48199,25.1284 9.19299,24.7686 8.61699,24.4768 Z m 0.869,-0.8625 c -0.022,-0.13792 -0.071,-0.233864 -0.148,-0.290831 -0.077,-0.05597 -0.264,-0.125927 -0.562999,-0.208879 l -2.011,-0.556677 c -0.009,-0.003 -0.037,0.01 -0.083,0.03898 -0.046,0.02898 -0.079,0.05797 -0.1,0.08795 -0.02,0.02998 -0.035,0.06496 -0.045,0.10394 -0.009,0.03998 -0.019,0.09594 -0.028,0.167903 L 6.43199,22.9567 v -0.771553 l 2.373,-0.984429 0.003,-0.01599 -1.832,-0.477723 c -0.055,-0.01399 -0.104,-0.02499 -0.148,-0.03298 -0.044,-0.008 -0.077,-0.01199 -0.098,-0.01199 -0.087,0 -0.148,0.03798 -0.181,0.112934 -0.02,0.04497 -0.034,0.12093 -0.04,0.226868 l -0.077,-3.2e-5 v -0.955446 h 0.077 c 0.031,0.144916 0.082,0.242859 0.152,0.29383 0.07,0.05097 0.256,0.118931 0.557999,0.204881 l 2.051,0.572668 c 0.067,0.01799 0.116,0.03198 0.146,0.03998 0.031,0.008 0.106,0.02798 0.226,0.05797 v 0.08995 l -2.619,1.08937 v 0.02399 l 1.995,0.53369 c 0.036,0.009 0.079,0.01899 0.129,0.02898 0.05,0.01 0.09,0.01499 0.12,0.01499 0.089,0 0.15,-0.04098 0.183,-0.121929 0.02,-0.04697 0.032,-0.118931 0.035,-0.217874 h 0.077 v 0.955446 L 9.48599,23.6123 Z m -3.1,-5.7687 c 0.015,-0.09195 0.043,-0.192888 0.084,-0.301825 0.03,-0.08295 0.049,-0.138919 0.057,-0.169901 0.008,-0.02998 0.012,-0.06096 0.012,-0.09295 0,-0.07795 -0.015,-0.136921 -0.045,-0.177897 -0.03,-0.04098 -0.071,-0.07895 -0.124,-0.114933 l 0.016,-0.07296 0.944999,0.238861 -0.010999,0.083 c -0.193,0.02499 -0.348,0.07696 -0.466,0.15491 -0.218,0.146915 -0.327,0.383777 -0.327,0.712587 0,0.451738 0.24,0.816526 0.719999,1.09437 0.393,0.226868 0.801999,0.339803 1.229,0.339803 0.299,0 0.539999,-0.08095 0.722999,-0.242859 0.183,-0.161906 0.274,-0.392772 0.274,-0.692598 0,-0.104939 -0.018,-0.218873 -0.055,-0.341802 -0.037,-0.122929 -0.092,-0.20688 -0.165,-0.250855 -0.047,-0.02798 -0.141,-0.06196 -0.281,-0.100941 -0.089,-0.02499 -0.214,-0.05597 -0.375,-0.09395 l -0.216,-0.05197 c -0.012,-0.003 -0.025,-0.005 -0.039,-0.007 -0.013,-0.002 -0.027,-0.002 -0.041,-0.002 -0.07,0 -0.115,0.02199 -0.135,0.06396 -0.02,0.04298 -0.039,0.145915 -0.06,0.307821 L 8.03099,18.1265 v -1.27926 h 0.077 c 0.016,0.161906 0.044,0.271842 0.084,0.328809 0.041,0.05697 0.127,0.10294 0.26,0.136921 l 0.899999,0.234864 c 0.081,0.122929 0.152,0.282836 0.211,0.477723 0.059,0.194887 0.089,0.406764 0.089,0.634632 0,0.457735 -0.138,0.814528 -0.413,1.07038 -0.242,0.22487 -0.541999,0.337804 -0.897999,0.337804 -0.469,0 -0.904999,-0.176897 -1.308,-0.531692 C 6.58599,19.14191 6.362991,18.65919 6.362991,18.091521 6.36399,18.0205 6.37099,17.9386 6.38599,17.8456 Z m 3.1,-0.9534 c -0.009,-0.112934 -0.03,-0.18989 -0.061,-0.231866 -0.047,-0.06596 -0.145,-0.11993 -0.293,-0.161906 L 7.00899,15.9108 c -0.086,-0.02199 -0.147,-0.03698 -0.182,-0.04397 -0.035,-0.008 -0.07,-0.01199 -0.104,-0.01199 -0.078,0 -0.132,0.02698 -0.163,0.08095 -0.031,0.05397 -0.047,0.150911 -0.05,0.29183 l -0.078,-1.6e-5 v -1.30824 h 0.077 c 0.011,0.129925 0.032,0.222871 0.063,0.278838 0.052,0.09694 0.148,0.164904 0.29,0.203882 l 2.124,0.58666 0.183,0.04397 c 0.009,0.002 0.02,0.003 0.03,0.003 0.011,9.99e-4 0.02,9.99e-4 0.028,9.99e-4 0.039,0 0.07,-0.01199 0.093,-0.03798 0.023,-0.02499 0.039,-0.06396 0.05,-0.116932 0.008,-0.04397 0.013,-0.10394 0.016,-0.180895 0.004,-0.04401 0.004,-0.119907 0.004,-0.225907 0,-0.32681 -0.043,-0.574667 -0.13,-0.745568 -0.087,-0.169901 -0.282,-0.32681 -0.584999,-0.468728 l 0.028,-0.09395 0.859999,0.276839 v 2.44858 z m 0,-2.7004 c -0.009,-0.112934 -0.03,-0.18989 -0.061,-0.231866 -0.047,-0.06596 -0.145,-0.11993 -0.293,-0.161906 l -2.124,-0.587659 c -0.07,-0.01899 -0.129,-0.03298 -0.175,-0.04298 -0.046,-0.01 -0.086,-0.01499 -0.118,-0.01499 -0.075,0 -0.127,0.02898 -0.157,0.08495 -0.03,0.05697 -0.046,0.153911 -0.049,0.289832 l -0.077,1.5e-5 v -2.38762 l 0.730999,0.149913 -0.007,0.09794 c -0.047,-0.005 -0.092,-0.008 -0.135,-0.009 -0.043,-9.99e-4 -0.059,-0.002 -0.048,-0.002 -0.158,-0.003 -0.261,0.05297 -0.311,0.167903 -0.049,0.114933 -0.074,0.350797 -0.074,0.708589 0,0.163905 0.008,0.266845 0.023,0.30982 0.015,0.04198 0.049,0.07096 0.101,0.08695 l 1.118,0.311819 c -0.014,-0.421755 -0.041,-0.675608 -0.08,-0.760559 -0.039,-0.08595 -0.168,-0.176897 -0.387,-0.272842 l 0.021,-0.08895 1.111,0.32781 -0.021,0.09395 c -0.094,-0.01599 -0.151,-0.02499 -0.171,-0.02798 -0.02,-0.003 -0.043,-0.005 -0.068,-0.005 -0.102,0 -0.168,0.03598 -0.198,0.108937 -0.03,0.07196 -0.046,0.204881 -0.046,0.397769 v 0.272842 l 1.071,0.298827 c 0.033,0.009 0.063,0.01699 0.091,0.02199 0.028,0.005 0.057,0.008 0.087,0.008 0.05,0 0.088,-0.01299 0.113,-0.03998 0.044,-0.04797 0.066,-0.143917 0.066,-0.285834 0,-0.429751 -0.046,-0.736573 -0.138,-0.922465 -0.092,-0.184893 -0.27,-0.369786 -0.533999,-0.553679 l 0.04,-0.07695 0.775999,0.299826 10e-7,2.434578 z"
             class="songle-letters"
             id="path1743" />
          <path
             d="m 9.79199,35.2725 1.19,0.767555 c 0.782999,0.504707 1.256,1.3722 1.256,2.30366 v 9.15369 c 0,0.108937 -0.12,0.173899 -0.212,0.114933 l -2.235,-1.44116 V 35.2725 Z m -3.84,-2.4765 -2.006,-1.29325 c -0.091,-0.05897 -0.212,0.007 -0.212,0.114933 v 9.15369 c 0,0.93146 0.473,1.79896 1.256,2.30366 l 0.960999,0.619641 1e-6,-10.898674 z m 0.685,11.3414 2.469,1.59208 V 34.8298 l -2.469,-1.59208 z"
             class="songle-logo"
             id="path1745" />
        </g>
        <circle
           cy="5.8436098"
           fill="#0088ee"
           cx="4.671"
           class="corner-marker"
           r="2.881"
           id="circle1749" />
        <circle
           cy="24.922501"
           fill="#0088ff"
           cx="19.738001"
           class="center-marker"
           r="3.0409999"
           id="circle1751" />
      </g>
    </g>
    <path
       sodipodi:type="spiral"
       style="fill:none;fill-rule:evenodd;stroke:#0000ff"
       id="path989"
       sodipodi:cx="12.307408"
       sodipodi:cy="-34.003059"
       sodipodi:expansion="1"
       sodipodi:revolution="3"
       sodipodi:radius="62.138512"
       sodipodi:argument="-18.540083"
       sodipodi:t0="0"
       d="m 12.307408,-34.003059 c 2.967521,0.948854 0.185034,4.468289 -1.577058,4.932214 -4.7751594,1.257207 -8.2928603,-3.876034 -8.2873704,-8.086331 0.00982,-7.531233 7.6353914,-12.343467 14.5956034,-11.642526 10.214391,1.028658 16.475855,11.431918 14.997683,21.104876 C 30.066094,-14.802294 16.79644,-7.0540343 4.4221165,-9.3419876 -11.149707,-12.221143 -20.399983,-28.394703 -17.285878,-43.46541 -13.51428,-61.718055 5.5824447,-72.478209 23.346817,-68.52856 44.281515,-63.874035 56.5562,-41.842951 51.765123,-21.386592 46.233635,2.2310827 21.261105,16.023301 -1.8861169,10.38687 -28.187461,3.9823989 -43.49927,-23.936349 -37.014735,-49.773643 c 7.274667,-28.985539 38.1430011,-45.818411 66.669785,-38.483774 31.670138,8.142837 50.02517,41.963223 41.838931,73.179058"
       transform="matrix(0.37692147,0,0,0.37692147,119.92489,23.236355)" />
  </g>
</svg>
