<?xml version="1.0" encoding="UTF-8" standalone="no"?>
<!-- Created with Fritzing (http://www.fritzing.org/) -->

<svg
   version="1.2"
   x="0in"
   y="0in"
   width="1.2632657in"
   height="1.2812256in"
   viewBox="0 0 90.955105 92.248271"
   id="svg2859"
   sodipodi:docname="switch.svg"
   inkscape:version="1.1.1 (3bf5ae0d25, 2021-09-20)"
   xmlns:inkscape="http://www.inkscape.org/namespaces/inkscape"
   xmlns:sodipodi="http://sodipodi.sourceforge.net/DTD/sodipodi-0.dtd"
   xmlns="http://www.w3.org/2000/svg"
   xmlns:svg="http://www.w3.org/2000/svg">
  <defs
     id="defs2863" />
  <sodipodi:namedview
     id="namedview2861"
     pagecolor="#505050"
     bordercolor="#ffffff"
     borderopacity="1"
     inkscape:pageshadow="0"
     inkscape:pageopacity="0"
     inkscape:pagecheckerboard="1"
     inkscape:document-units="in"
     showgrid="false"
     inkscape:zoom="2.2097588"
     inkscape:cx="32.582742"
     inkscape:cy="43.896194"
     inkscape:window-width="1366"
     inkscape:window-height="708"
     inkscape:window-x="0"
     inkscape:window-y="19"
     inkscape:window-maximized="1"
     inkscape:current-layer="svg2859" />
  <g
     id="g1454"
     transform="matrix(0.70878114,0,0,0.70878114,0,11.11128)">
    <g
       id="g1452">
      <g
         id="g1450">
        <rect
           y="18.091999"
           width="39.457001"
           fill="#cccccc"
           height="66.816002"
           id="rect1412"
           x="0" />
        <polyline
           points="39.457,19.375,0,19.375,0,18.092,39.457,18.092"
           opacity="0.2"
           fill="#ffffff"
           id="polyline1414" />
        <polyline
           points="39.457,85.5497,0,85.5497,0,84.2659,39.457,84.2659"
           opacity="0.2"
           id="polyline1416" />
        <rect
           x="12.062"
           y="24.5"
           width="15.333"
           height="54"
           id="rect1418" />
        <rect
           x="12.062"
           y="37.588001"
           width="15.333"
           fill="#333333"
           height="40.911999"
           id="rect1420" />
        <polyline
           points="12.062,79.8329,27.395,79.8329,27.395,78.5002,12.062,78.5002"
           opacity="0.2"
           fill="#ffffff"
           id="polyline1422" />
        <g
           id="g1436">
          <rect
             x="13.252"
             y="0"
             width="12.951"
             fill="#4d4d4d"
             height="13"
             id="rect1424" />
          <rect
             x="13.252"
             y="13"
             width="12.951"
             fill="#1a1a1a"
             height="24.587999"
             id="rect1426" />
          <polyline
             points="26.204,38.375,13.252,38.375,13.252,37.588,26.204,37.588"
             opacity="0.2"
             id="polyline1428" />
          <polyline
             points="13.252,11.833,26.204,11.833,26.204,13,13.252,13"
             opacity="0.2"
             fill="#ffffff"
             id="polyline1430" />
          <rect
             x="13.252"
             y="0"
             width="12.951"
             fill="#333333"
             height="6.5"
             id="rect1432" />
          <polyline
             points="13.252,0,26.204,0,26.204,1.166,13.252,1.166"
             opacity="0.2"
             id="polyline1434" />
        </g>
        <rect
           y="84.908203"
           width="39.457001"
           fill="#b3b3b3"
           height="18.259001"
           id="rect1438"
           x="0" />
        <rect
           x="15.603"
           y="103.167"
           width="8.24998"
           fill="#b3b3b3"
           height="4.9580002"
           id="rect1440" />
        <polyline
           points="15.603,107.312,23.853,107.312,23.853,108.125,15.603,108.125"
           opacity="0.2"
           id="polyline1442" />
        <g
           id="g1448">
          <rect
             y="101.884"
             width="15.603"
             opacity="0.2"
             height="1.283"
             id="rect1444"
             x="0" />
          <rect
             x="23.853001"
             y="101.884"
             width="15.604"
             opacity="0.2"
             height="1.283"
             id="rect1446" />
        </g>
      </g>
    </g>
  </g>
  <g
     stroke="#000000"
     id="connector0leg"
     x2="35.687"
     fill="none"
     stroke-linecap="round"
     y1="67.749"
     x1="35.687"
     y2="76.004"
     stroke-width="2.99599"
     transform="translate(83.087849,24.933964)" />
  <g
     stroke="#ff0000"
     id="connector1leg"
     x2="42.928"
     fill="none"
     stroke-linecap="round"
     y1="67.749"
     x1="42.928"
     y2="76.004"
     stroke-width="2.99599"
     transform="translate(83.087849,24.933964)" />
  <g
     id="g1318"
     transform="translate(4.75877,15.61128)">
    <polygon
       points="2.98398,0 0,2.98398 0,31.0307 2.98398,34.0157 31.0317,34.0157 34.0157,31.0307 34.0157,2.98398 31.0307,0 "
       id="polygon2634"
       transform="matrix(1.0000014,0,0,1.0000014,46.216534,42.621213)" />
    <path
       d="m 78.00827,72.005954 c 0,1.327993 -1.07999,2.411984 -2.41098,2.411984 l -24.747786,2e-5 c -1.326,0 -2.40899,-1.083991 -2.40899,-2.411984 V 47.253169 c 0,-1.325991 1.08299,-2.408983 2.40899,-2.408983 H 75.60133 c 1.32699,0 2.40697,1.082992 2.40697,2.408983 z"
       fill="#999999"
       id="path2636"
       style="stroke-width:1" />
    <circle
       cy="59.630039"
       cx="63.222366"
       fill="#3f3f3f"
       r="8.6239529"
       id="circle2638"
       style="fill:#1a1a1a;stroke-width:1" />
    <path
       opacity="0.6"
       d="m 65.88036,52.788127 c -0.572,-0.222998 -1.17499,-0.382996 -1.81299,-0.456996 -1.58898,-0.175999 -3.10797,0.174998 -4.40696,0.89499 l -0.161,0.420996 c 1.44999,-0.774995 3.13997,-1.135991 4.89796,-0.937995 0.54199,0.063 1.06799,0.183998 1.56699,0.343998 z"
       fill="#ffffff"
       id="path2642"
       style="stroke-width:1" />
    <g
       partID="107260"
       id="g1378"
       transform="matrix(-1.0000003,0,0,1.0000003,115.47171,-225.04204)">
      <g
         transform="translate(45.1498,258.538)"
         id="g1376">
        <g
           id="breadboard">
          <rect
             height="0.72000003"
             x="3.45101"
             y="25.421"
             width="2.151"
             fill="none"
             id="rect1351" />
          <rect
             height="0.72000003"
             x="10.651"
             y="25.421"
             width="2.154"
             fill="none"
             id="rect1353" />
          <g
             y1="29.207"
             stroke="#8c8c8c"
             stroke-width="1.988"
             y2="53.822"
             x1="4.527"
             stroke-linecap="round"
             x2="4.527"
             fill="none"
             id="connector0leg-3" />
          <g
             y1="29.207"
             stroke="#8c8c8c"
             stroke-width="1.988"
             y2="53.822"
             x1="11.729"
             stroke-linecap="round"
             x2="11.729"
             fill="none"
             id="connector1leg-6" />
          <rect
             height="9.8280096"
             x="3.45101"
             y="19.379"
             width="2.151"
             fill="#8c8c8c"
             id="rect1357" />
          <path
             d="m 12.805,29.207 c 0,-1.174 -1.065,-2.103 -2.089,-2.992 -0.416001,-0.367 -1.199,-1.001 -1.199,-1.424 l 1e-5,-5.471 h -2.161 v 5.78 c 0,1.059 0.947001,1.879 1.946,2.748 0.444001,0.377 1.349,1.25 1.349,1.771"
             fill="#8c8c8c"
             id="path1359" />
          <g
             id="g12">
            <path
               opacity="0.3"
               d="M 11.694,14.099 V 9.80001 c 0,-2.845 -2.303,-5.153 -5.15101,-5.153 C 3.69801,4.647 1.39,6.951 1.39,9.80001 v 9.92101 c 1.071,1.201 2.979,2.001 5.15301,2.001 3.35901,0 6.08301,-1.902 6.08301,-4.26 v -1.107 C 12.626,15.525 12.281,14.754 11.694,14.099 Z"
               enable-background="new    "
               fill="#e60000"
               id="color_path14" />
            <path
               opacity="0.5"
               d="M 11.694,14.099 V 9.80001 c 0,-2.845 -2.303,-5.153 -5.15101,-5.153 C 3.69801,4.647 1.39,6.951 1.39,9.80001 v 9.92101 c 1.071,1.201 2.979,2.001 5.15301,2.001 3.35901,0 6.08301,-1.902 6.08301,-4.26 v -1.107 C 12.626,15.525 12.281,14.754 11.694,14.099 Z"
               enable-background="new    "
               fill="#e6e6e6"
               id="path16" />
            <path
               opacity="0.9"
               d="m 11.694,14.099 v 2.257 c 0,1.991 -2.301,3.608 -5.15101,3.608 -2.845,0 -5.15301,-1.612 -5.15301,-3.608 v 2.257 1.109 c 1.071,1.2 2.979,2 5.15301,2 3.35901,0 6.08301,-1.902 6.08301,-4.26 v -1.106 c 0,-0.831 -0.345,-1.602 -0.932,-2.257 z"
               enable-background="new    "
               fill="#d1d1d1"
               id="path18-7" />
            <path
               opacity="0.7"
               d="m 11.694,14.099 v 2.257 c 0,1.991 -2.301,3.608 -5.15101,3.608 -2.845,0 -5.15301,-1.612 -5.15301,-3.608 v 2.257 1.109 c 1.071,1.2 2.979,2 5.15301,2 3.35901,0 6.08301,-1.902 6.08301,-4.26 v -1.106 c 0,-0.831 -0.345,-1.602 -0.932,-2.257 z"
               enable-background="new    "
               fill="#e60000"
               id="color_path20" />
            <path
               opacity="0.25"
               d="m 11.694,14.099 v 2.257 c 0,1.991 -2.301,3.608 -5.15101,3.608 -2.845,0 -5.15301,-1.612 -5.15301,-3.608 v 2.257 c 1.071,1.2 2.979,2.001 5.15301,2.001 3.35901,0 6.08301,-1.903 6.08301,-4.259 0,-0.83 -0.345,-1.601 -0.932,-2.256 z"
               enable-background="new    "
               fill="#e60000"
               id="color_path22" />
            <ellipse
               opacity="0.25"
               cy="16.356001"
               enable-background="new    "
               cx="6.5430102"
               ry="3.6059999"
               fill="#e6e6e6"
               rx="5.1530099"
               id="ellipse24" />
            <ellipse
               opacity="0.25"
               cy="16.356001"
               enable-background="new    "
               cx="6.5430102"
               ry="3.6059999"
               fill="#e60000"
               rx="5.1530099"
               id="color_ellipse26" />
            <polygon
               fill="#666666"
               points="3.71401,14.167 5.76301,14.167 8.66801,11.048 3.86701,11.048 2.991,11.661 2.991,16.355 3.71401,16.355 "
               id="polygon28" />
            <polygon
               fill="#666666"
               points="9.43101,14.167 9.43101,16.355 10.095,16.355 10.095,10.844 9.22601,10.844 9.54401,11.214 6.77801,14.167 "
               id="polygon30" />
            <path
               opacity="0.65"
               d="M 11.694,14.099 V 9.80001 c 0,-2.845 -2.303,-5.153 -5.15101,-5.153 C 3.69801,4.647 1.39,6.951 1.39,9.80001 v 9.92101 c 1.071,1.201 2.979,2.001 5.15301,2.001 3.35901,0 6.08301,-1.902 6.08301,-4.26 v -1.107 C 12.626,15.525 12.281,14.754 11.694,14.099 Z"
               enable-background="new    "
               fill="#e60000"
               id="color_path32" />
            <path
               opacity="0.5"
               d="m 8.94301,7.376 1.043,-0.199 C 9.37401,6.354 8.47301,5.754 7.41101,5.55 l 0.186,0.786 c 0.555,0.196 1.022,0.567 1.346,1.04 z"
               enable-background="new    "
               fill="#ffffff"
               id="path34-5" />
            <path
               opacity="0.5"
               d="m 1.948,19.132 v 1.104 c 0.472001,0.385 1.042,0.71 1.677,0.957001 v -1.107 C 2.988,19.841 2.422,19.518 1.948,19.132 Z"
               enable-background="new    "
               fill="#ffffff"
               id="path36-3" />
            <path
               opacity="0.5"
               d="m 9.44001,19.338 c -0.186,0.089 -0.385001,0.167 -0.585001,0.239 -0.042,0.015 -0.086,0.03 -0.13,0.043 -0.410001,0.131 -0.844001,0.231 -1.305,0.287 -0.054,0.007 -0.11,0.015 -0.164,0.015 -0.233,0.021 -0.468001,0.042 -0.706001,0.042 -0.108,0 -0.223,-0.012 -0.343001,-0.018 -0.873001,-0.042 -1.694,-0.229 -2.397,-0.537 v -6.098 l 3e-6,-3.50799 c 0,-1.069 0.616001,-1.984 1.507,-2.435 L 5.30201,7.33 4.395009,6.23 C 3.181,6.959 2.367,8.281 2.367,9.80101 v 8.653 c -0.036,-0.035 -0.224,-0.224 -0.349001,-0.384 l -0.224,0.499 c 1.019,1.077 2.769,1.789 4.75701,1.789 1.222,0 2.354,-0.271 3.28001,-0.728 l -0.383001,-0.298 c -0.00801,0.006 -0.00801,0.006 -0.00801,0.006 z"
               enable-background="new    "
               fill="#ffffff"
               id="path38-5" />
          </g>
        </g>
      </g>
    </g>
  </g>
  <g
     id="g1289"
     transform="translate(4.758781,6.6112786)">
    <polygon
       points="34.0157,2.98398 31.0307,0 2.98398,0 0,2.98398 0,31.0307 2.98398,34.0157 31.0317,34.0157 34.0157,31.0307 "
       id="polygon2028"
       transform="matrix(1.0000014,0,0,1.0000014,46.216534,4.478168)" />
    <path
       d="m 78.008274,33.862911 c 0,1.32799 -1.07999,2.41198 -2.41098,2.41198 l -24.74779,2e-5 c -1.326,0 -2.40899,-1.08399 -2.40899,-2.41198 V 9.110124 c 0,-1.325991 1.08299,-2.408983 2.40899,-2.408983 h 24.75183 c 1.32699,0 2.40697,1.082992 2.40697,2.408983 z"
       fill="#999999"
       id="path2030"
       style="stroke-width:1" />
    <circle
       cy="21.486988"
       cx="63.222355"
       fill="#3f3f3f"
       r="8.6239529"
       id="circle2040"
       style="fill:#1a1a1a;stroke-width:1" />
    <path
       opacity="0.6"
       d="m 65.880364,14.645082 c -0.572,-0.222998 -1.17499,-0.382996 -1.81299,-0.456996 -1.58898,-0.175999 -3.10797,0.174998 -4.40696,0.89499 l -0.161,0.420996 c 1.44999,-0.774995 3.13997,-1.135991 4.89796,-0.937995 0.54199,0.063 1.06799,0.183998 1.56699,0.343998 z"
       fill="#ffffff"
       id="path2056"
       style="stroke-width:1" />
    <g
       partID="138540"
       id="g1528"
       transform="matrix(-1.0000003,0,0,1.0000003,311.06197,-263.18509)">
      <g
         transform="translate(240.74,258.538)"
         id="g1526">
        <g
           id="g1524">
          <rect
             height="0.72000003"
             x="3.45101"
             y="25.421"
             width="2.151"
             fill="none"
             id="rect1484" />
          <rect
             height="0.72000003"
             x="10.651"
             y="25.421"
             width="2.154"
             fill="none"
             id="rect1486" />
          <g
             y1="29.207"
             stroke="#8c8c8c"
             stroke-width="1.988"
             y2="53.822"
             x1="4.527"
             stroke-linecap="round"
             x2="4.527"
             fill="none"
             id="g1488" />
          <g
             y1="29.207"
             stroke="#8c8c8c"
             stroke-width="1.988"
             y2="53.822"
             x1="11.729"
             stroke-linecap="round"
             x2="11.729"
             fill="none"
             id="g1490" />
          <rect
             height="9.8280096"
             x="3.45101"
             y="19.379"
             width="2.151"
             fill="#8c8c8c"
             id="rect1492" />
          <path
             d="m 12.805,29.207 c 0,-1.174 -1.065,-2.103 -2.089,-2.992 -0.416001,-0.367 -1.199,-1.001 -1.199,-1.424 l 1e-5,-5.471 h -2.161 v 5.78 c 0,1.059 0.947001,1.879 1.946,2.748 0.444001,0.377 1.349,1.25 1.349,1.771"
             fill="#8c8c8c"
             id="path1494" />
          <g
             id="g1522">
            <path
               opacity="0.3"
               d="M 11.694,14.099 V 9.80001 c 0,-2.845 -2.303,-5.153 -5.15101,-5.153 C 3.69801,4.647 1.39,6.951 1.39,9.80001 v 9.92101 c 1.071,1.201 2.979,2.001 5.15301,2.001 3.35901,0 6.08301,-1.902 6.08301,-4.26 v -1.107 C 12.626,15.525 12.281,14.754 11.694,14.099 Z"
               enable-background="new    "
               fill="#0000ee"
               id="path1496" />
            <path
               opacity="0.5"
               d="M 11.694,14.099 V 9.80001 c 0,-2.845 -2.303,-5.153 -5.15101,-5.153 C 3.69801,4.647 1.39,6.951 1.39,9.80001 v 9.92101 c 1.071,1.201 2.979,2.001 5.15301,2.001 3.35901,0 6.08301,-1.902 6.08301,-4.26 v -1.107 C 12.626,15.525 12.281,14.754 11.694,14.099 Z"
               enable-background="new    "
               fill="#e6e6e6"
               id="path1498" />
            <path
               opacity="0.9"
               d="m 11.694,14.099 v 2.257 c 0,1.991 -2.301,3.608 -5.15101,3.608 -2.845,0 -5.15301,-1.612 -5.15301,-3.608 v 2.257 1.109 c 1.071,1.2 2.979,2 5.15301,2 3.35901,0 6.08301,-1.902 6.08301,-4.26 v -1.106 c 0,-0.831 -0.345,-1.602 -0.932,-2.257 z"
               enable-background="new    "
               fill="#d1d1d1"
               id="path1500" />
            <path
               opacity="0.7"
               d="m 11.694,14.099 v 2.257 c 0,1.991 -2.301,3.608 -5.15101,3.608 -2.845,0 -5.15301,-1.612 -5.15301,-3.608 v 2.257 1.109 c 1.071,1.2 2.979,2 5.15301,2 3.35901,0 6.08301,-1.902 6.08301,-4.26 v -1.106 c 0,-0.831 -0.345,-1.602 -0.932,-2.257 z"
               enable-background="new    "
               fill="#0000ee"
               id="path1502" />
            <path
               opacity="0.25"
               d="m 11.694,14.099 v 2.257 c 0,1.991 -2.301,3.608 -5.15101,3.608 -2.845,0 -5.15301,-1.612 -5.15301,-3.608 v 2.257 c 1.071,1.2 2.979,2.001 5.15301,2.001 3.35901,0 6.08301,-1.903 6.08301,-4.259 0,-0.83 -0.345,-1.601 -0.932,-2.256 z"
               enable-background="new    "
               fill="#0000ee"
               id="path1504" />
            <ellipse
               opacity="0.25"
               cy="16.356001"
               enable-background="new    "
               cx="6.5430102"
               ry="3.6059999"
               fill="#e6e6e6"
               rx="5.1530099"
               id="ellipse1506" />
            <ellipse
               opacity="0.25"
               cy="16.356001"
               enable-background="new    "
               cx="6.5430102"
               ry="3.6059999"
               fill="#0000ee"
               rx="5.1530099"
               id="ellipse1508" />
            <polygon
               fill="#666666"
               points="2.991,11.661 2.991,16.355 3.71401,16.355 3.71401,14.167 5.76301,14.167 8.66801,11.048 3.86701,11.048 "
               id="polygon1510" />
            <polygon
               fill="#666666"
               points="9.22601,10.844 9.54401,11.214 6.77801,14.167 9.43101,14.167 9.43101,16.355 10.095,16.355 10.095,10.844 "
               id="polygon1512" />
            <path
               opacity="0.65"
               d="M 11.694,14.099 V 9.80001 c 0,-2.845 -2.303,-5.153 -5.15101,-5.153 C 3.69801,4.647 1.39,6.951 1.39,9.80001 v 9.92101 c 1.071,1.201 2.979,2.001 5.15301,2.001 3.35901,0 6.08301,-1.902 6.08301,-4.26 v -1.107 C 12.626,15.525 12.281,14.754 11.694,14.099 Z"
               enable-background="new    "
               fill="#0000ee"
               id="path1514" />
            <path
               opacity="0.5"
               d="m 8.94301,7.376 1.043,-0.199 C 9.37401,6.354 8.47301,5.754 7.41101,5.55 l 0.186,0.786 c 0.555,0.196 1.022,0.567 1.346,1.04 z"
               enable-background="new    "
               fill="#ffffff"
               id="path1516" />
            <path
               opacity="0.5"
               d="m 1.948,19.132 v 1.104 c 0.472001,0.385 1.042,0.71 1.677,0.957001 v -1.107 C 2.988,19.841 2.422,19.518 1.948,19.132 Z"
               enable-background="new    "
               fill="#ffffff"
               id="path1518" />
            <path
               opacity="0.5"
               d="m 9.44001,19.338 c -0.186,0.089 -0.385001,0.167 -0.585001,0.239 -0.042,0.015 -0.086,0.03 -0.13,0.043 -0.410001,0.131 -0.844001,0.231 -1.305,0.287 -0.054,0.007 -0.11,0.015 -0.164,0.015 -0.233,0.021 -0.468001,0.042 -0.706001,0.042 -0.108,0 -0.223,-0.012 -0.343001,-0.018 -0.873001,-0.042 -1.694,-0.229 -2.397,-0.537 v -6.098 l 3e-6,-3.50799 c 0,-1.069 0.616001,-1.984 1.507,-2.435 L 5.30201,7.33 4.395009,6.23 C 3.181,6.959 2.367,8.281 2.367,9.80101 v 8.653 c -0.036,-0.035 -0.224,-0.224 -0.349001,-0.384 l -0.224,0.499 c 1.019,1.077 2.769,1.789 4.75701,1.789 1.222,0 2.354,-0.271 3.28001,-0.728 l -0.383001,-0.298 c -0.00801,0.006 -0.00801,0.006 -0.00801,0.006 z"
               enable-background="new    "
               fill="#ffffff"
               id="path1520" />
          </g>
        </g>
      </g>
    </g>
  </g>
  <path
     sodipodi:type="spiral"
     style="fill:none;fill-rule:evenodd;stroke:#0000ff"
     id="path989"
     sodipodi:cx="12.307408"
     sodipodi:cy="-34.003059"
     sodipodi:expansion="1"
     sodipodi:revolution="3"
     sodipodi:radius="62.138512"
     sodipodi:argument="-18.540083"
     sodipodi:t0="0"
     transform="matrix(0.37692147,0,0,0.37692147,63.085739,34.100754)"
     d="m 12.307408,-34.003059 c 2.967521,0.948854 0.185034,4.468289 -1.577058,4.932214 -4.7751594,1.257207 -8.2928603,-3.876034 -8.2873704,-8.086331 0.00982,-7.531233 7.6353914,-12.343467 14.5956034,-11.642526 10.214391,1.028658 16.475855,11.431918 14.997683,21.104876 C 30.066094,-14.802294 16.79644,-7.0540343 4.4221165,-9.3419876 -11.149707,-12.221143 -20.399983,-28.394703 -17.285878,-43.46541 -13.51428,-61.718055 5.5824447,-72.478209 23.346817,-68.52856 44.281515,-63.874035 56.5562,-41.842951 51.765123,-21.386592 46.233635,2.2310827 21.261105,16.023301 -1.8861169,10.38687 -28.187461,3.9823989 -43.49927,-23.936349 -37.014735,-49.773643 c 7.274667,-28.985539 38.1430011,-45.818411 66.669785,-38.483774 31.670138,8.142837 50.02517,41.963223 41.838931,73.179058" />
</svg>
