<?xml version="1.0" encoding="UTF-8" standalone="no"?>
<!-- Created with Fritzing (http://www.fritzing.org/) -->

<svg
   version="1.2"
   x="0in"
   y="0in"
   width="1.0900126in"
   height="0.78689092in"
   viewBox="0 0 78.480978 56.656113"
   id="svg308"
   sodipodi:docname="alarm.svg"
   inkscape:version="1.1.1 (3bf5ae0d25, 2021-09-20)"
   xmlns:inkscape="http://www.inkscape.org/namespaces/inkscape"
   xmlns:sodipodi="http://sodipodi.sourceforge.net/DTD/sodipodi-0.dtd"
   xmlns="http://www.w3.org/2000/svg"
   xmlns:svg="http://www.w3.org/2000/svg">
  <defs
     id="defs312" />
  <sodipodi:namedview
     id="namedview310"
     pagecolor="#505050"
     bordercolor="#ffffff"
     borderopacity="1"
     inkscape:pageshadow="0"
     inkscape:pageopacity="0"
     inkscape:pagecheckerboard="1"
     inkscape:document-units="in"
     showgrid="false"
     inkscape:zoom="4.2814986"
     inkscape:cx="64.696973"
     inkscape:cy="33.39952"
     inkscape:window-width="1366"
     inkscape:window-height="708"
     inkscape:window-x="0"
     inkscape:window-y="19"
     inkscape:window-maximized="1"
     inkscape:current-layer="g53" />
  <g
     partID="129770"
     id="g53"
     transform="translate(-139.349,-0.0020528)">
    <g
       stroke="#000000"
       id="connector0leg"
       x2="35.687"
       fill="none"
       stroke-linecap="round"
       y1="67.749"
       x1="35.687"
       y2="76.004"
       stroke-width="2.99599"
       transform="translate(139.349)" />
    <g
       stroke="#ff0000"
       id="connector1leg"
       x2="42.928"
       fill="none"
       stroke-linecap="round"
       y1="67.749"
       x1="42.928"
       y2="76.004"
       stroke-width="2.99599"
       transform="translate(139.349)" />
    <g
       id="g16"
       transform="translate(139.349)"
       style="fill:#1a1a1a">
      <path
         d="M 3.67908,22.9872 C 1.90445,23.4087 0,25.7755 0,28.3301 c 0,2.55458 1.77662,4.86049 3.67908,5.34285 1.90345,0.479358 10.2902,2.59852 10.2902,2.59852 l 2e-5,-15.88277 z m 1.80758,7.3951 c -1.13448,0 -2.05325,-0.919768 -2.05325,-2.05325 0,-1.13448 0.918771,-2.05525 2.05325,-2.05525 1.13448,0 2.05325,0.919768 2.05325,2.05525 0,1.13445 -0.91877,2.05325 -2.05325,2.05325 z"
         id="path14"
         style="fill:#1a1a1a" />
    </g>
    <g
       id="g20"
       transform="translate(139.349)"
       style="fill:#1a1a1a">
      <path
         d="M 74.8009,22.9852 C 72.89845,22.506841 64.5107,20.38668 64.5107,20.38668 v 15.8817 l 10.2902,-2.59852 c 1.77363,-0.422434 3.68008,-2.78827 3.68008,-5.34285 C 78.48,25.7725 76.7044,23.4666 74.8009,22.9852 Z m -1.8076,7.3981 c -1.13348,0 -2.05425,-0.919768 -2.05425,-2.05325 0,-1.13448 0.920768,-2.05425 2.05425,-2.05425 1.13448,0 2.05425,0.919768 2.05425,2.05425 5e-5,1.13345 -0.91975,2.05325 -2.05425,2.05325 z"
         id="path18"
         style="fill:#1a1a1a" />
    </g>
    <path
       id="circle22"
       style="stroke-width:1.33333"
       d="M 52.318359 0 A 37.769432 37.769432 0 0 0 14.550781 37.769531 A 37.769432 37.769432 0 0 0 52.318359 75.539062 A 37.769432 37.769432 0 0 0 90.087891 37.769531 A 37.769432 37.769432 0 0 0 52.318359 0 z M 52.320312 31.361328 A 6.4100872 6.4100872 0 0 1 58.730469 37.771484 A 6.4100872 6.4100872 0 0 1 52.320312 44.181641 A 6.4100872 6.4100872 0 0 1 45.910156 37.771484 A 6.4100872 6.4100872 0 0 1 52.320312 31.361328 z "
       transform="matrix(0.75000071,0,0,0.75000071,139.349,0.00200991)" />
    <path
       id="circle24"
       style="fill:#1a1a1a;stroke-width:1.33333"
       d="M 52.318359 0 A 37.770764 37.770764 0 0 0 14.548828 37.771484 A 37.770764 37.770764 0 0 0 52.318359 75.541016 A 37.770764 37.770764 0 0 0 90.089844 37.771484 A 37.770764 37.770764 0 0 0 52.318359 0 z M 52.320312 31.361328 A 6.4100872 6.4100872 0 0 1 58.730469 37.771484 A 6.4100872 6.4100872 0 0 1 52.320312 44.181641 A 6.4100872 6.4100872 0 0 1 45.910156 37.771484 A 6.4100872 6.4100872 0 0 1 52.320312 31.361328 z "
       transform="matrix(0.75000071,0,0,0.75000071,139.349,0.00200991)" />
    <path
       stroke="#58595b"
       d="m 151.8613,33.3244 c -1.28628,-6.87679 0.0679,-14.2429 4.35817,-20.4496 C 164.753,0.519305 181.6894,-2.57855 194.0458,5.96002"
       fill="none"
       stroke-linecap="round"
       stroke-linejoin="round"
       stroke-width="1.85492"
       id="path30" />
    <path
       stroke="#3f3f41"
       d="m 193.4436,43.1832 c 8.21201,-8.212 8.21201,-21.4972 0,-29.7082 -8.21201,-8.212 -21.4972,-8.212 -29.7103,0 -8.21101,8.211 -8.21002,21.4962 0,29.7082 8.2131,8.211 21.5003,8.211 29.7103,0 z"
       fill="none"
       stroke-linecap="round"
       stroke-linejoin="round"
       stroke-width="0.208221"
       id="path32" />
    <path
       stroke="#3f3f41"
       d="m 165.3892,41.5314 c -7.29624,-7.29723 -7.29624,-19.1054 0,-26.4026 7.29624,-7.29723 19.1034,-7.29623 26.4017,0 7.29624,7.29823 7.29524,19.1034 -0.001,26.4016 -7.2963,7.2962 -19.1045,7.2982 -26.4007,10e-4 z"
       fill="none"
       stroke-linecap="round"
       stroke-linejoin="round"
       stroke-width="0.208221"
       id="path34" />
    <path
       stroke="#3f3f41"
       d="m 190.144,39.8836 c 6.38446,-6.38245 6.37647,-16.7186 -0.007,-23.1001 -6.38346,-6.38345 -16.7186,-6.38944 -23.1011,-0.007 -6.38346,6.38245 -6.37447,16.7176 0.008,23.1021 6.3825,6.3785 16.7187,6.3884 23.1001,0.005 z"
       fill="none"
       stroke-linecap="round"
       stroke-linejoin="round"
       stroke-width="0.208221"
       id="path36" />
    <path
       stroke="#3f3f41"
       d="m 168.6838,38.2378 c -5.47667,-5.47667 -5.46269,-14.3398 0.007,-19.8085 5.46868,-5.46968 14.3318,-5.48266 19.8065,-0.007 5.47368,5.47467 5.46269,14.3378 -0.006,19.8065 -5.4697,5.4707 -14.3329,5.4837 -19.8075,0.009 z"
       fill="none"
       stroke-linecap="round"
       stroke-linejoin="round"
       stroke-width="0.208221"
       id="path38" />
    <path
       stroke="#3f3f41"
       d="m 186.8445,36.583 c 4.5559,-4.5559 4.5609,-11.945 0,-16.5079 -4.5609,-4.56189 -11.953,-4.5549 -16.5069,0 -4.55491,4.5559 -4.5629,11.945 0,16.5079 4.5608,4.5629 11.9519,4.5539 16.5069,0 z"
       fill="none"
       stroke-linecap="round"
       stroke-linejoin="round"
       stroke-width="0.208221"
       id="path40" />
    <path
       stroke="#3f3f41"
       d="m 171.9903,34.9292 c -3.64812,-3.64712 -3.65611,-9.54422 0,-13.2003 3.65511,-3.65511 9.55122,-3.64811 13.2003,9.99e-4 3.64812,3.64811 3.65511,9.54422 0,13.1993 -3.656,3.657101 -9.5522,3.648101 -13.2003,1e-6 z"
       fill="none"
       stroke-linecap="round"
       stroke-linejoin="round"
       stroke-width="0.208221"
       id="path42" />
    <path
       stroke="#303032"
       d="m 167.2367,53.037 c 13.6487,6.26661 29.7931,0.288614 36.0598,-13.3591 3.41743,-7.43904 3.19373,-15.6241 0.0709,-22.5438"
       fill="none"
       stroke-linecap="round"
       stroke-linejoin="round"
       stroke-width="1.85492"
       id="path48" />
    <path
       style="fill:#00ff00;stroke:#00ff00;stroke-width:3.50345"
       d="m 95.669944,39.691644 c -1.404671,-1.181952 -1.122092,-3.435892 0.529503,-4.223482 1.764316,-0.841344 3.64877,0.382161 3.64877,2.369011 0,2.164136 -2.49449,3.271282 -4.178273,1.854471 z"
       id="path3094"
       transform="matrix(0.75000071,0,0,0.75000071,139.349,0.00200991)" />
    <path
       style="fill:#00ff00;stroke:#008000;stroke-width:3.50345"
       d="m 95.449821,41.42341 c -2.619342,-1.29654 -3.065613,-4.768575 -0.861645,-6.703684 2.176795,-1.911252 5.181459,-1.325725 6.429794,1.252992 1.73712,3.588406 -1.979774,7.226892 -5.568149,5.450692 z"
       id="path3326"
       transform="matrix(0.75000071,0,0,0.75000071,139.349,0.00200991)" />
    <path
       style="fill:#ff0000;stroke:#ff0000;stroke-width:3.50345"
       d="m 5.5066988,39.570976 c -0.5820363,-0.582037 -0.7186557,-0.91164 -0.7186557,-1.733803 0,-2.634617 3.3414504,-3.64455 4.6980121,-1.419945 0.6922388,1.135192 0.5757628,2.148787 -0.3537388,3.078289 -0.6690178,0.669018 -0.9605326,0.794114 -1.8505382,0.794114 -0.8682558,0 -1.1844292,-0.128005 -1.7750794,-0.718655 z"
       id="path3745"
       transform="matrix(0.75000071,0,0,0.75000071,139.349,0.00200991)" />
    <path
       style="fill:#ff0000;stroke:#800000;stroke-width:3.50345"
       d="m 5.5053392,41.515475 c -2.5850778,-1.31817 -3.1083179,-4.686656 -1.040017,-6.695364 2.1182892,-2.057256 5.2326104,-1.441694 6.6503148,1.314471 0.780711,1.517783 0.515145,2.973948 -0.794796,4.358072 -1.3515813,1.428122 -3.2358014,1.828333 -4.8155018,1.022821 z"
       id="path3860"
       transform="matrix(0.75000071,0,0,0.75000071,139.349,0.00200991)" />
    <path
       style="fill:#000080;stroke:#000080;stroke-width:3.50345"
       d="m 50.27224,43.707105 c -2.535543,-0.946071 -4.13706,-3.241575 -4.14125,-5.935779 -0.0039,-2.525048 1.206936,-4.483612 3.452603,-5.584565 3.271249,-1.603751 7.155469,-0.115296 8.576925,3.286726 0.190868,0.456812 0.346007,1.49084 0.344752,2.297839 -0.0038,2.452759 -1.30433,4.535379 -3.560846,5.702269 -1.012704,0.52369 -3.554072,0.650705 -4.672184,0.23351 z"
       id="path3936"
       transform="matrix(0.75000071,0,0,0.75000071,139.349,0.00200991)" />
    <path
       style="fill:#0000ff;stroke:#000080;stroke-width:3.50345"
       d="M 50.435155,45.456876 C 49.241031,45.147213 47.30654,43.982934 46.544979,43.115564 46.149318,42.664932 45.55221,41.713368 45.218072,41.000978 44.712063,39.922155 44.61093,39.373991 44.61283,37.720437 c 0.0027,-2.376764 0.540237,-3.773373 2.05257,-5.333222 1.544001,-1.592514 2.948943,-2.204809 5.338136,-2.326442 1.816566,-0.09248 2.159199,-0.03984 3.386665,0.520357 1.657415,0.756414 3.179592,2.183383 4.00302,3.752643 0.526374,1.003144 0.614171,1.464804 0.622636,3.274004 0.009,1.926104 -0.05685,2.241762 -0.770337,3.691773 -0.875234,1.778739 -2.646195,3.389372 -4.257613,3.872164 -1.211398,0.362944 -3.661121,0.516383 -4.552752,0.285162 z"
       id="path4248"
       transform="matrix(0.75000071,0,0,0.75000071,139.349,0.00200991)" />
  </g>
</svg>
