<?xml version="1.0" encoding="UTF-8" standalone="no"?>
<!-- Created with Fritzing (http://www.fritzing.org/) -->

<svg
   version="1.2"
   x="0in"
   y="0in"
   width="1.7403543in"
   height="1.7408751in"
   viewBox="0 0 125.30546 125.34283"
   id="svg557"
   sodipodi:docname="dpad_bb.svg"
   inkscape:version="1.1.1 (3bf5ae0d25, 2021-09-20)"
   xmlns:inkscape="http://www.inkscape.org/namespaces/inkscape"
   xmlns:sodipodi="http://sodipodi.sourceforge.net/DTD/sodipodi-0.dtd"
   xmlns="http://www.w3.org/2000/svg"
   xmlns:svg="http://www.w3.org/2000/svg">
  <defs
     id="defs561" />
  <sodipodi:namedview
     id="namedview559"
     pagecolor="#505050"
     bordercolor="#ffffff"
     borderopacity="1"
     inkscape:pageshadow="0"
     inkscape:pageopacity="0"
     inkscape:pagecheckerboard="1"
     inkscape:document-units="in"
     showgrid="false"
     inkscape:zoom="1.4755626"
     inkscape:cx="96.912191"
     inkscape:cy="87.424284"
     inkscape:window-width="1366"
     inkscape:window-height="708"
     inkscape:window-x="0"
     inkscape:window-y="19"
     inkscape:window-maximized="1"
     inkscape:current-layer="svg557" />
  <g
     transform="translate(44.761758,-5.0698076e-5)"
     id="g38">
    <g
       id="g36">
      <polygon
         points="2.98398,0 0,2.98398 0,31.0307 2.98398,34.0157 31.0317,34.0157 34.0157,31.0307 34.0157,2.98398 31.0307,0 "
         id="polygon4" />
      <g
         id="g34">
        <path
           d="m 31.7917,29.3847 c 0,1.32799 -1.07999,2.41198 -2.41098,2.41198 l -24.74776,2e-5 c -1.32599,0 -2.40898,-1.08399 -2.40898,-2.41198 V 4.63195 c 0,-1.32599 1.08299,-2.40898 2.40898,-2.40898 h 24.7518 c 1.32699,0 2.40697,1.08299 2.40697,2.40898 z"
           fill="#999999"
           id="path6" />
        <circle
           cy="6.5299401"
           cx="6.5289402"
           r="2.56198"
           id="circle8" />
        <circle
           cy="6.5759401"
           cx="27.558701"
           r="2.5609801"
           id="circle10" />
        <circle
           cy="27.603701"
           cx="27.512699"
           r="2.56198"
           id="circle12" />
        <circle
           cy="27.555799"
           cx="6.4839401"
           r="2.56198"
           id="circle14" />
        <circle
           cy="17.008801"
           cx="17.0058"
           fill="#3f3f3f"
           r="8.6239405"
           id="circle16" />
        <circle
           cy="17.008801"
           cx="17.0058"
           fill="#2d2d2d"
           r="8.6239405"
           id="circle18" />
        <circle
           opacity="0.6"
           cy="18.032801"
           cx="17.156799"
           r="7.5879402"
           id="circle20" />
        <circle
           cy="17.059799"
           cx="17.017799"
           fill="#313131"
           r="7.3948998"
           id="circle22" />
        <path
           opacity="0.5"
           d="m 6.19794,6.39594 c 0.052,-0.119 0.143,-0.213 0.276,-0.234 l -0.254,-1.61598 c -0.097,0.016 -0.199,0.003 -0.29399,0.034 L 5.92394,4.57196 C 5.32595,4.75495 4.88095,5.20095 4.64995,5.76894 Z"
           fill="#ffffff"
           id="path24" />
        <path
           opacity="0.5"
           d="m 27.2247,6.44094 c 0.05,-0.122999 0.141998,-0.215998 0.274998,-0.236998 L 27.2507,4.589952 c -0.101999,0.018 -0.198998,0.003 -0.297997,0.031 l -0.004,-0.009 c -0.590995,0.182998 -1.03899,0.627994 -1.26798,1.19699 z"
           fill="#ffffff"
           id="path26" />
        <path
           opacity="0.5"
           d="m 27.1817,27.4687 c 0.051,-0.124998 0.140998,-0.216998 0.274998,-0.237997 L 27.2047,25.617713 c -0.098,0.018 -0.198998,0.004 -0.293997,0.033 l -0.004,-0.014 c -0.594994,0.183998 -1.04299,0.628994 -1.26899,1.19899 z"
           fill="#ffffff"
           id="path28" />
        <path
           opacity="0.5"
           d="m 6.15194,27.4237 c 0.051,-0.122999 0.142998,-0.212998 0.276998,-0.235998 l -0.253997,-1.61498 c -0.097999,0.023 -0.198998,0.004 -0.294997,0.033 l -0.003,-0.008 c -0.596994,0.179999 -1.04199,0.626994 -1.27199,1.19699 z"
           fill="#ffffff"
           id="path30" />
        <path
           opacity="0.6"
           d="M 19.6638,10.1669 C 19.091805,9.943902 18.48881,9.783904 17.85082,9.709904 16.26184,9.533906 14.74285,9.884902 13.44386,10.604893 l -0.160998,0.420996 c 1.44999,-0.774994 3.13997,-1.13599 4.89795,-0.937994 0.541995,0.063 1.06799,0.183998 1.56699,0.343997 z"
           fill="#ffffff"
           id="path32" />
      </g>
    </g>
  </g>
  <g
     transform="translate(44.761758,91.32721)"
     id="g1990">
    <g
       id="g1988">
      <polygon
         points="2.98398,34.0157 31.0317,34.0157 34.0157,31.0307 34.0157,2.98398 31.0307,0 2.98398,0 0,2.98398 0,31.0307 "
         id="polygon1956" />
      <g
         id="g1986">
        <path
           d="m 31.7917,29.3847 c 0,1.32799 -1.07999,2.41198 -2.41098,2.41198 l -24.74776,2e-5 c -1.32599,0 -2.40898,-1.08399 -2.40898,-2.41198 V 4.63195 c 0,-1.32599 1.08299,-2.40898 2.40898,-2.40898 h 24.7518 c 1.32699,0 2.40697,1.08299 2.40697,2.40898 z"
           fill="#999999"
           id="path1958" />
        <circle
           cy="6.5299401"
           cx="6.5289402"
           r="2.56198"
           id="circle1960" />
        <circle
           cy="6.5759401"
           cx="27.558701"
           r="2.5609801"
           id="circle1962" />
        <circle
           cy="27.603701"
           cx="27.512699"
           r="2.56198"
           id="circle1964" />
        <circle
           cy="27.555799"
           cx="6.4839401"
           r="2.56198"
           id="circle1966" />
        <circle
           cy="17.008801"
           cx="17.0058"
           fill="#3f3f3f"
           r="8.6239405"
           id="circle1968" />
        <circle
           cy="17.008801"
           cx="17.0058"
           fill="#2d2d2d"
           r="8.6239405"
           id="circle1970" />
        <circle
           opacity="0.6"
           cy="18.032801"
           cx="17.156799"
           r="7.5879402"
           id="circle1972" />
        <circle
           cy="17.059799"
           cx="17.017799"
           fill="#313131"
           r="7.3948998"
           id="circle1974" />
        <path
           opacity="0.5"
           d="m 6.19794,6.39594 c 0.052,-0.119 0.143,-0.213 0.276,-0.234 l -0.254,-1.61598 c -0.097,0.016 -0.199,0.003 -0.29399,0.034 L 5.92394,4.57196 C 5.32595,4.75495 4.88095,5.20095 4.64995,5.76894 Z"
           fill="#ffffff"
           id="path1976" />
        <path
           opacity="0.5"
           d="m 27.2247,6.44094 c 0.05,-0.122999 0.141998,-0.215998 0.274998,-0.236998 L 27.2507,4.589952 c -0.101999,0.018 -0.198998,0.003 -0.297997,0.031 l -0.004,-0.009 c -0.590995,0.182998 -1.03899,0.627994 -1.26798,1.19699 z"
           fill="#ffffff"
           id="path1978" />
        <path
           opacity="0.5"
           d="m 27.1817,27.4687 c 0.051,-0.124998 0.140998,-0.216998 0.274998,-0.237997 L 27.2047,25.617713 c -0.098,0.018 -0.198998,0.004 -0.293997,0.033 l -0.004,-0.014 c -0.594994,0.183998 -1.04299,0.628994 -1.26899,1.19899 z"
           fill="#ffffff"
           id="path1980" />
        <path
           opacity="0.5"
           d="m 6.15194,27.4237 c 0.051,-0.122999 0.142998,-0.212998 0.276998,-0.235998 l -0.253997,-1.61498 c -0.097999,0.023 -0.198998,0.004 -0.294997,0.033 l -0.003,-0.008 c -0.596994,0.179999 -1.04199,0.626994 -1.27199,1.19699 z"
           fill="#ffffff"
           id="path1982" />
        <path
           opacity="0.6"
           d="M 19.6638,10.1669 C 19.091805,9.943902 18.48881,9.783904 17.85082,9.709904 16.26184,9.533906 14.74285,9.884902 13.44386,10.604893 l -0.160998,0.420996 c 1.44999,-0.774994 3.13997,-1.13599 4.89795,-0.937994 0.541995,0.063 1.06799,0.183998 1.56699,0.343997 z"
           fill="#ffffff"
           id="path1984" />
      </g>
    </g>
  </g>
  <g
     transform="translate(91.289768,46.07235)"
     id="g2026">
    <g
       id="g2024">
      <polygon
         points="2.98398,0 0,2.98398 0,31.0307 2.98398,34.0157 31.0317,34.0157 34.0157,31.0307 34.0157,2.98398 31.0307,0 "
         id="polygon1992" />
      <g
         id="g2022">
        <path
           d="m 31.7917,29.3847 c 0,1.32799 -1.07999,2.41198 -2.41098,2.41198 l -24.74776,2e-5 c -1.32599,0 -2.40898,-1.08399 -2.40898,-2.41198 V 4.63195 c 0,-1.32599 1.08299,-2.40898 2.40898,-2.40898 h 24.7518 c 1.32699,0 2.40697,1.08299 2.40697,2.40898 z"
           fill="#999999"
           id="path1994" />
        <circle
           cy="6.5299401"
           cx="6.5289402"
           r="2.56198"
           id="circle1996" />
        <circle
           cy="6.5759401"
           cx="27.558701"
           r="2.5609801"
           id="circle1998" />
        <circle
           cy="27.603701"
           cx="27.512699"
           r="2.56198"
           id="circle2000" />
        <circle
           cy="27.555799"
           cx="6.4839401"
           r="2.56198"
           id="circle2002" />
        <circle
           cy="17.008801"
           cx="17.0058"
           fill="#3f3f3f"
           r="8.6239405"
           id="circle2004" />
        <circle
           cy="17.008801"
           cx="17.0058"
           fill="#2d2d2d"
           r="8.6239405"
           id="circle2006" />
        <circle
           opacity="0.6"
           cy="18.032801"
           cx="17.156799"
           r="7.5879402"
           id="circle2008" />
        <circle
           cy="17.059799"
           cx="17.017799"
           fill="#313131"
           r="7.3948998"
           id="circle2010" />
        <path
           opacity="0.5"
           d="m 6.19794,6.39594 c 0.052,-0.119 0.143,-0.213 0.276,-0.234 l -0.254,-1.61598 c -0.097,0.016 -0.199,0.003 -0.29399,0.034 L 5.92394,4.57196 C 5.32595,4.75495 4.88095,5.20095 4.64995,5.76894 Z"
           fill="#ffffff"
           id="path2012" />
        <path
           opacity="0.5"
           d="m 27.2247,6.44094 c 0.05,-0.122999 0.141998,-0.215998 0.274998,-0.236998 L 27.2507,4.589952 c -0.101999,0.018 -0.198998,0.003 -0.297997,0.031 l -0.004,-0.009 c -0.590995,0.182998 -1.03899,0.627994 -1.26798,1.19699 z"
           fill="#ffffff"
           id="path2014" />
        <path
           opacity="0.5"
           d="m 27.1817,27.4687 c 0.051,-0.124998 0.140998,-0.216998 0.274998,-0.237997 L 27.2047,25.617713 c -0.098,0.018 -0.198998,0.004 -0.293997,0.033 l -0.004,-0.014 c -0.594994,0.183998 -1.04299,0.628994 -1.26899,1.19899 z"
           fill="#ffffff"
           id="path2016" />
        <path
           opacity="0.5"
           d="m 6.15194,27.4237 c 0.051,-0.122999 0.142998,-0.212998 0.276998,-0.235998 l -0.253997,-1.61498 c -0.097999,0.023 -0.198998,0.004 -0.294997,0.033 l -0.003,-0.008 c -0.596994,0.179999 -1.04199,0.626994 -1.27199,1.19699 z"
           fill="#ffffff"
           id="path2018" />
        <path
           opacity="0.6"
           d="M 19.6638,10.1669 C 19.091805,9.943902 18.48881,9.783904 17.85082,9.709904 16.26184,9.533906 14.74285,9.884902 13.44386,10.604893 l -0.160998,0.420996 c 1.44999,-0.774994 3.13997,-1.13599 4.89795,-0.937994 0.541995,0.063 1.06799,0.183998 1.56699,0.343997 z"
           fill="#ffffff"
           id="path2020" />
      </g>
    </g>
  </g>
  <g
     transform="translate(0,45.663579)"
     id="g2062">
    <g
       id="g2060">
      <polygon
         points="0,2.98398 0,31.0307 2.98398,34.0157 31.0317,34.0157 34.0157,31.0307 34.0157,2.98398 31.0307,0 2.98398,0 "
         id="polygon2028" />
      <g
         id="g2058">
        <path
           d="m 31.7917,29.3847 c 0,1.32799 -1.07999,2.41198 -2.41098,2.41198 l -24.74776,2e-5 c -1.32599,0 -2.40898,-1.08399 -2.40898,-2.41198 V 4.63195 c 0,-1.32599 1.08299,-2.40898 2.40898,-2.40898 h 24.7518 c 1.32699,0 2.40697,1.08299 2.40697,2.40898 z"
           fill="#999999"
           id="path2030" />
        <circle
           cy="6.5299401"
           cx="6.5289402"
           r="2.56198"
           id="circle2032" />
        <circle
           cy="6.5759401"
           cx="27.558701"
           r="2.5609801"
           id="circle2034" />
        <circle
           cy="27.603701"
           cx="27.512699"
           r="2.56198"
           id="circle2036" />
        <circle
           cy="27.555799"
           cx="6.4839401"
           r="2.56198"
           id="circle2038" />
        <circle
           cy="17.008801"
           cx="17.0058"
           fill="#3f3f3f"
           r="8.6239405"
           id="circle2040" />
        <circle
           cy="17.008801"
           cx="17.0058"
           fill="#2d2d2d"
           r="8.6239405"
           id="circle2042" />
        <circle
           opacity="0.6"
           cy="18.032801"
           cx="17.156799"
           r="7.5879402"
           id="circle2044" />
        <circle
           cy="17.059799"
           cx="17.017799"
           fill="#313131"
           r="7.3948998"
           id="circle2046" />
        <path
           opacity="0.5"
           d="m 6.19794,6.39594 c 0.052,-0.119 0.143,-0.213 0.276,-0.234 l -0.254,-1.61598 c -0.097,0.016 -0.199,0.003 -0.29399,0.034 L 5.92394,4.57196 C 5.32595,4.75495 4.88095,5.20095 4.64995,5.76894 Z"
           fill="#ffffff"
           id="path2048" />
        <path
           opacity="0.5"
           d="m 27.2247,6.44094 c 0.05,-0.122999 0.141998,-0.215998 0.274998,-0.236998 L 27.2507,4.589952 c -0.101999,0.018 -0.198998,0.003 -0.297997,0.031 l -0.004,-0.009 c -0.590995,0.182998 -1.03899,0.627994 -1.26798,1.19699 z"
           fill="#ffffff"
           id="path2050" />
        <path
           opacity="0.5"
           d="m 27.1817,27.4687 c 0.051,-0.124998 0.140998,-0.216998 0.274998,-0.237997 L 27.2047,25.617713 c -0.098,0.018 -0.198998,0.004 -0.293997,0.033 l -0.004,-0.014 c -0.594994,0.183998 -1.04299,0.628994 -1.26899,1.19899 z"
           fill="#ffffff"
           id="path2052" />
        <path
           opacity="0.5"
           d="m 6.15194,27.4237 c 0.051,-0.122999 0.142998,-0.212998 0.276998,-0.235998 l -0.253997,-1.61498 c -0.097999,0.023 -0.198998,0.004 -0.294997,0.033 l -0.003,-0.008 c -0.596994,0.179999 -1.04199,0.626994 -1.27199,1.19699 z"
           fill="#ffffff"
           id="path2054" />
        <path
           opacity="0.6"
           d="M 19.6638,10.1669 C 19.091805,9.943902 18.48881,9.783904 17.85082,9.709904 16.26184,9.533906 14.74285,9.884902 13.44386,10.604893 l -0.160998,0.420996 c 1.44999,-0.774994 3.13997,-1.13599 4.89795,-0.937994 0.541995,0.063 1.06799,0.183998 1.56699,0.343997 z"
           fill="#ffffff"
           id="path2056" />
      </g>
    </g>
  </g>
</svg>
