<?xml version="1.0" encoding="UTF-8" standalone="no"?>
<!-- Created with Fritzing (http://www.fritzing.org/) -->

<svg
   version="1.2"
   x="0in"
   y="0in"
   width="1.0900126in"
   height="0.78689092in"
   viewBox="0 0 78.480978 56.656113"
   id="svg308"
   sodipodi:docname="buzzer.svg"
   inkscape:version="1.1.1 (3bf5ae0d25, 2021-09-20)"
   xmlns:inkscape="http://www.inkscape.org/namespaces/inkscape"
   xmlns:sodipodi="http://sodipodi.sourceforge.net/DTD/sodipodi-0.dtd"
   xmlns="http://www.w3.org/2000/svg"
   xmlns:svg="http://www.w3.org/2000/svg">
  <defs
     id="defs312" />
  <sodipodi:namedview
     id="namedview310"
     pagecolor="#505050"
     bordercolor="#ffffff"
     borderopacity="1"
     inkscape:pageshadow="0"
     inkscape:pageopacity="0"
     inkscape:pagecheckerboard="1"
     inkscape:document-units="in"
     showgrid="false"
     inkscape:zoom="6.0549534"
     inkscape:cx="54.335678"
     inkscape:cy="40.627893"
     inkscape:window-width="1366"
     inkscape:window-height="708"
     inkscape:window-x="0"
     inkscape:window-y="19"
     inkscape:window-maximized="1"
     inkscape:current-layer="g53" />
  <g
     partID="129770"
     id="g53"
     transform="translate(-139.349,-0.0020528)">
    <g
       stroke="#000000"
       id="connector0leg"
       x2="35.687"
       fill="none"
       stroke-linecap="round"
       y1="67.749"
       x1="35.687"
       y2="76.004"
       stroke-width="2.99599"
       transform="translate(139.349)" />
    <g
       stroke="#ff0000"
       id="connector1leg"
       x2="42.928"
       fill="none"
       stroke-linecap="round"
       y1="67.749"
       x1="42.928"
       y2="76.004"
       stroke-width="2.99599"
       transform="translate(139.349)" />
    <g
       id="g16"
       transform="translate(139.349)"
       style="fill:#1a1a1a">
      <path
         d="M 3.67908,22.9872 C 1.90445,23.4087 0,25.7755 0,28.3301 c 0,2.55458 1.77662,4.86049 3.67908,5.34285 1.90345,0.479358 10.2902,2.59852 10.2902,2.59852 l 2e-5,-15.88277 z m 1.80758,7.3951 c -1.13448,0 -2.05325,-0.919768 -2.05325,-2.05325 0,-1.13448 0.918771,-2.05525 2.05325,-2.05525 1.13448,0 2.05325,0.919768 2.05325,2.05525 0,1.13445 -0.91877,2.05325 -2.05325,2.05325 z"
         id="path14"
         style="fill:#1a1a1a" />
    </g>
    <g
       id="g20"
       transform="translate(139.349)"
       style="fill:#1a1a1a">
      <path
         d="M 74.8009,22.9852 C 72.89845,22.506841 64.5107,20.38668 64.5107,20.38668 v 15.8817 l 10.2902,-2.59852 c 1.77363,-0.422434 3.68008,-2.78827 3.68008,-5.34285 C 78.48,25.7725 76.7044,23.4666 74.8009,22.9852 Z m -1.8076,7.3981 c -1.13348,0 -2.05425,-0.919768 -2.05425,-2.05325 0,-1.13448 0.920768,-2.05425 2.05425,-2.05425 1.13448,0 2.05425,0.919768 2.05425,2.05425 5e-5,1.13345 -0.91975,2.05325 -2.05425,2.05325 z"
         id="path18"
         style="fill:#1a1a1a" />
    </g>
    <path
       id="circle22"
       style="stroke-width:1.33333"
       d="M 52.318359 0 A 37.769432 37.769432 0 0 0 14.550781 37.769531 A 37.769432 37.769432 0 0 0 52.318359 75.539062 A 37.769432 37.769432 0 0 0 90.087891 37.769531 A 37.769432 37.769432 0 0 0 52.318359 0 z M 52.320312 31.361328 A 6.4100872 6.4100872 0 0 1 58.730469 37.771484 A 6.4100872 6.4100872 0 0 1 52.320312 44.181641 A 6.4100872 6.4100872 0 0 1 45.910156 37.771484 A 6.4100872 6.4100872 0 0 1 52.320312 31.361328 z "
       transform="matrix(0.75000071,0,0,0.75000071,139.349,0.00200991)" />
    <path
       id="circle24"
       style="fill:#1a1a1a;stroke-width:1.33333"
       d="M 52.318359 0 A 37.770764 37.770764 0 0 0 14.548828 37.771484 A 37.770764 37.770764 0 0 0 52.318359 75.541016 A 37.770764 37.770764 0 0 0 90.089844 37.771484 A 37.770764 37.770764 0 0 0 52.318359 0 z M 52.320312 31.361328 A 6.4100872 6.4100872 0 0 1 58.730469 37.771484 A 6.4100872 6.4100872 0 0 1 52.320312 44.181641 A 6.4100872 6.4100872 0 0 1 45.910156 37.771484 A 6.4100872 6.4100872 0 0 1 52.320312 31.361328 z "
       transform="matrix(0.75000071,0,0,0.75000071,139.349,0.00200991)" />
    <path
       stroke="#58595b"
       d="m 151.8613,33.3244 c -1.28628,-6.87679 0.0679,-14.2429 4.35817,-20.4496 C 164.753,0.519305 181.6894,-2.57855 194.0458,5.96002"
       fill="none"
       stroke-linecap="round"
       stroke-linejoin="round"
       stroke-width="1.85492"
       id="path30" />
    <g
       id="g46"
       transform="translate(139.349)">
      <g
         id="g44">
        <path
           stroke="#3f3f41"
           d="m 54.0946,43.1832 c 8.21201,-8.212 8.21201,-21.4972 0,-29.7082 -8.21201,-8.212 -21.4972,-8.212 -29.7103,0 -8.21101,8.211 -8.21002,21.4962 0,29.7082 8.2131,8.211 21.5003,8.211 29.7103,0 z"
           fill="none"
           stroke-linecap="round"
           stroke-linejoin="round"
           stroke-width="0.208221"
           id="path32" />
        <path
           stroke="#3f3f41"
           d="m 26.0402,41.5314 c -7.29624,-7.29723 -7.29624,-19.1054 0,-26.4026 7.29624,-7.29723 19.1034,-7.29623 26.4017,0 7.29624,7.29823 7.29524,19.1034 -9.99e-4,26.4016 C 45.1446,48.8266 33.3364,48.8286 26.0402,41.5314 Z"
           fill="none"
           stroke-linecap="round"
           stroke-linejoin="round"
           stroke-width="0.208221"
           id="path34" />
        <path
           stroke="#3f3f41"
           d="m 50.795,39.8836 c 6.38446,-6.38245 6.37647,-16.7186 -0.007,-23.1001 -6.38346,-6.38345 -16.7186,-6.38944 -23.1011,-0.007 -6.38346,6.38245 -6.37447,16.7176 0.008,23.1021 6.3825,6.3785 16.7187,6.3884 23.1001,0.005 z"
           fill="none"
           stroke-linecap="round"
           stroke-linejoin="round"
           stroke-width="0.208221"
           id="path36" />
        <path
           stroke="#3f3f41"
           d="m 29.3348,38.2378 c -5.47667,-5.47667 -5.46269,-14.3398 0.007,-19.8085 5.46868,-5.46968 14.3318,-5.48266 19.8065,-0.007 5.47368,5.47467 5.46269,14.3378 -0.006,19.8065 -5.4697,5.4707 -14.3329,5.4837 -19.8075,0.009 z"
           fill="none"
           stroke-linecap="round"
           stroke-linejoin="round"
           stroke-width="0.208221"
           id="path38" />
        <path
           stroke="#3f3f41"
           d="m 47.4955,36.583 c 4.5559,-4.5559 4.5609,-11.945 0,-16.5079 -4.5609,-4.56189 -11.953,-4.5549 -16.5069,0 -4.55491,4.5559 -4.5629,11.945 0,16.5079 4.5608,4.5629 11.9519,4.5539 16.5069,0 z"
           fill="none"
           stroke-linecap="round"
           stroke-linejoin="round"
           stroke-width="0.208221"
           id="path40" />
        <path
           stroke="#3f3f41"
           d="m 32.6413,34.9292 c -3.64812,-3.64712 -3.65611,-9.54422 0,-13.2003 3.65511,-3.65511 9.55122,-3.64811 13.2003,9.99e-4 3.64812,3.64811 3.65511,9.54422 0,13.1993 -3.656,3.657101 -9.5522,3.648101 -13.2003,1e-6 z"
           fill="none"
           stroke-linecap="round"
           stroke-linejoin="round"
           stroke-width="0.208221"
           id="path42" />
      </g>
    </g>
    <path
       stroke="#303032"
       d="m 167.2367,53.037 c 13.6487,6.26661 29.7931,0.288614 36.0598,-13.3591 3.41743,-7.43904 3.19373,-15.6241 0.0709,-22.5438"
       fill="none"
       stroke-linecap="round"
       stroke-linejoin="round"
       stroke-width="1.85492"
       id="path48" />
  </g>
</svg>
