<?xml version="1.0" encoding="UTF-8" standalone="no"?>
<!-- Created with Fritzing (http://www.fritzing.org/) -->

<svg
   version="1.2"
   x="0in"
   y="0in"
   width="1.0668991in"
   height="1.0668991in"
   viewBox="0 0 76.816805 76.816687"
   id="svg308"
   sodipodi:docname="parts_bb.svg"
   inkscape:version="1.1.1 (3bf5ae0d25, 2021-09-20)"
   xmlns:inkscape="http://www.inkscape.org/namespaces/inkscape"
   xmlns:sodipodi="http://sodipodi.sourceforge.net/DTD/sodipodi-0.dtd"
   xmlns="http://www.w3.org/2000/svg"
   xmlns:svg="http://www.w3.org/2000/svg">
  <defs
     id="defs312" />
  <sodipodi:namedview
     id="namedview310"
     pagecolor="#505050"
     bordercolor="#ffffff"
     borderopacity="1"
     inkscape:pageshadow="0"
     inkscape:pageopacity="0"
     inkscape:pagecheckerboard="1"
     inkscape:document-units="in"
     showgrid="false"
     inkscape:zoom="1.5137383"
     inkscape:cx="109.00166"
     inkscape:cy="24.442798"
     inkscape:window-width="1366"
     inkscape:window-height="708"
     inkscape:window-x="0"
     inkscape:window-y="19"
     inkscape:window-maximized="1"
     inkscape:current-layer="svg308" />
  <g
     partID="129770"
     id="g53"
     transform="translate(-7.2,-47.444202)" />
  <g
     transform="translate(0,-0.00170202)"
     id="g87">
    <g
       id="g85">
      <circle
         fill="#313131"
         r="38.408401"
         cx="38.408401"
         cy="38.41"
         id="circle57" />
      <g
         opacity="0.5"
         id="g61">
        <circle
           fill="#161616"
           r="35.969501"
           cx="38.408401"
           cy="38.41"
           id="circle59" />
      </g>
      <circle
         fill="#161616"
         r="34.041599"
         cx="38.408401"
         cy="38.41"
         id="circle63" />
      <circle
         r="30.8277"
         cx="38.407398"
         cy="38.41"
         id="circle65" />
      <circle
         fill="#313131"
         r="29.087799"
         cx="38.407398"
         cy="38.41"
         id="circle67" />
      <g
         opacity="0.3"
         id="g71">
        <path
           d="M 42.3423,9.58802 C 26.4249,7.41499 11.7606,18.555 9.58759,34.473 c -2.17391,15.92 8.96861,30.584 24.886,32.758 15.9163,2.173 30.5808,-8.96897 32.7547,-24.888 C 69.4002,26.424 58.2596,11.761 42.3423,9.58802 Z M 55.6428,61.0929 c -11.8495,9.00202 -29.1678,6.142 -38.6864,-6.386 -9.51862,-12.529 -7.63171,-29.982 4.21782,-38.984 11.8475,-9.00202 29.1658,-6.142 38.6844,6.388 C 69.3762,34.638 67.4892,52.09 55.6428,61.0929 Z"
           fill="#ffffff"
           id="path69" />
      </g>
      <g
         opacity="0.05"
         id="g75">
        <path
           d="m 54.4098,23.918 c 7.86571,8.16797 10.5895,19.312 8.14867,29.187 5.16579,-9.31097 4.47381,-21.55 -2.69989,-30.993 C 50.341,9.58399 33.0216,6.72399 21.1731,15.726 20.979108,15.873 20.795116,16.029 20.606123,16.182 31.6857,11.691 45.2121,14.368 54.4098,23.918 Z"
           fill="#ffffff"
           id="path73" />
      </g>
      <g
         opacity="0.05"
         id="g79">
        <path
           d="m 57.8646,22.915 c 7.05571,9.288 8.34062,21.067 4.36882,30.75 5.51277,-9.37598 4.9438,-21.918 -2.37491,-31.553 C 54.0038,14.406 45.1981,10.365 36.5285,10.485 c 8.0677,0.995 15.8814,5.25 21.3361,12.43 z"
           fill="#ffffff"
           id="path77" />
      </g>
      <g
         opacity="0.2"
         id="g83">
        <path
           d="m 10.9526,35.076 c -0.438982,6.703 1.50994,13.716 6.00376,19.632 5.37678,7.077 13.2425,11.066 21.2062,11.577 C 22.8361,63.305 11.9765,50.585 10.9526,35.076 Z"
           id="path81" />
      </g>
    </g>
  </g>
</svg>
