<?xml version="1.0" encoding="UTF-8" standalone="no"?>
<!-- Created with Fritzing (http://www.fritzing.org/) -->

<svg
   version="1.2"
   x="0in"
   y="0in"
   width="1.7403543in"
   height="1.8239048in"
   viewBox="0 0 125.30546 131.32095"
   id="svg557"
   sodipodi:docname="leds.svg"
   inkscape:version="1.1.1 (3bf5ae0d25, 2021-09-20)"
   xmlns:inkscape="http://www.inkscape.org/namespaces/inkscape"
   xmlns:sodipodi="http://sodipodi.sourceforge.net/DTD/sodipodi-0.dtd"
   xmlns="http://www.w3.org/2000/svg"
   xmlns:svg="http://www.w3.org/2000/svg">
  <defs
     id="defs561" />
  <sodipodi:namedview
     id="namedview559"
     pagecolor="#505050"
     bordercolor="#ffffff"
     borderopacity="1"
     inkscape:pageshadow="0"
     inkscape:pageopacity="0"
     inkscape:pagecheckerboard="1"
     inkscape:document-units="in"
     showgrid="false"
     inkscape:zoom="1.4755626"
     inkscape:cx="47.439533"
     inkscape:cy="74.547837"
     inkscape:window-width="1366"
     inkscape:window-height="708"
     inkscape:window-x="0"
     inkscape:window-y="19"
     inkscape:window-maximized="1"
     inkscape:current-layer="svg557" />
  <g
     id="g2736"
     transform="translate(44.761762,-39.685513)">
    <polygon
       points="34.0157,31.0307 34.0157,2.98398 31.0307,0 2.98398,0 0,2.98398 0,31.0307 2.98398,34.0157 31.0317,34.0157 "
       id="polygon2726"
       transform="translate(0,45.663579)" />
    <path
       d="m 31.7917,75.048279 c 0,1.32799 -1.07999,2.41198 -2.41098,2.41198 l -24.74776,2e-5 c -1.32599,0 -2.40898,-1.08399 -2.40898,-2.41198 v -24.75277 c 0,-1.32599 1.08299,-2.40898 2.40898,-2.40898 h 24.7518 c 1.32699,0 2.40697,1.08299 2.40697,2.40898 z"
       fill="#999999"
       id="path2728" />
    <circle
       cy="62.672379"
       cx="17.0058"
       fill="#3f3f3f"
       r="8.6239405"
       id="circle2730" />
    <circle
       cy="62.672379"
       cx="17.0058"
       fill="#2d2d2d"
       r="8.6239405"
       id="circle2732"
       style="fill:#000000" />
    <path
       opacity="0.6"
       d="m 19.6638,55.830479 c -0.571995,-0.222998 -1.17499,-0.382996 -1.81298,-0.456996 -1.58898,-0.175998 -3.10797,0.174998 -4.40696,0.894989 l -0.160998,0.420996 c 1.44999,-0.774994 3.13997,-1.13599 4.89795,-0.937994 0.541995,0.063 1.06799,0.183998 1.56699,0.343997 z"
       fill="#ffffff"
       id="path2734" />
  </g>
  <g
     id="g2644"
     transform="translate(91.28977,6.3868868)">
    <polygon
       points="2.98398,34.0157 31.0317,34.0157 34.0157,31.0307 34.0157,2.98398 31.0307,0 2.98398,0 0,2.98398 0,31.0307 "
       id="polygon2634"
       transform="translate(0,45.663579)" />
    <path
       d="m 31.7917,75.048279 c 0,1.32799 -1.07999,2.41198 -2.41098,2.41198 l -24.74776,2e-5 c -1.32599,0 -2.40898,-1.08399 -2.40898,-2.41198 v -24.75277 c 0,-1.32599 1.08299,-2.40898 2.40898,-2.40898 h 24.7518 c 1.32699,0 2.40697,1.08299 2.40697,2.40898 z"
       fill="#999999"
       id="path2636" />
    <circle
       cy="62.672379"
       cx="17.0058"
       fill="#3f3f3f"
       r="8.6239405"
       id="circle2638" />
    <circle
       cy="62.672379"
       cx="17.0058"
       fill="#2d2d2d"
       r="8.6239405"
       id="circle2640"
       style="fill:#000000" />
    <path
       opacity="0.6"
       d="m 19.6638,55.830479 c -0.571995,-0.222998 -1.17499,-0.382996 -1.81298,-0.456996 -1.58898,-0.175998 -3.10797,0.174998 -4.40696,0.894989 l -0.160998,0.420996 c 1.44999,-0.774994 3.13997,-1.13599 4.89795,-0.937994 0.541995,0.063 1.06799,0.183998 1.56699,0.343997 z"
       fill="#ffffff"
       id="path2642" />
  </g>
  <g
     id="g2540"
     transform="translate(44.761758,51.641751)">
    <polygon
       points="0,2.98398 0,31.0307 2.98398,34.0157 31.0317,34.0157 34.0157,31.0307 34.0157,2.98398 31.0307,0 2.98398,0 "
       id="polygon2530"
       transform="translate(0,45.663579)" />
    <path
       d="m 31.7917,75.048279 c 0,1.32799 -1.07999,2.41198 -2.41098,2.41198 l -24.74776,2e-5 c -1.32599,0 -2.40898,-1.08399 -2.40898,-2.41198 v -24.75277 c 0,-1.32599 1.08299,-2.40898 2.40898,-2.40898 h 24.7518 c 1.32699,0 2.40697,1.08299 2.40697,2.40898 z"
       fill="#999999"
       id="path2532" />
    <circle
       cy="62.672379"
       cx="17.0058"
       fill="#3f3f3f"
       r="8.6239405"
       id="circle2534" />
    <circle
       cy="62.672379"
       cx="17.0058"
       fill="#2d2d2d"
       r="8.6239405"
       id="circle2536"
       style="fill:#000000" />
    <path
       opacity="0.6"
       d="m 19.6638,55.830479 c -0.571995,-0.222998 -1.17499,-0.382996 -1.81298,-0.456996 -1.58898,-0.175998 -3.10797,0.174998 -4.40696,0.894989 l -0.160998,0.420996 c 1.44999,-0.774994 3.13997,-1.13599 4.89795,-0.937994 0.541995,0.063 1.06799,0.183998 1.56699,0.343997 z"
       fill="#ffffff"
       id="path2538" />
  </g>
  <g
     id="g2448"
     transform="translate(0,5.9781202)">
    <polygon
       points="31.0307,0 2.98398,0 0,2.98398 0,31.0307 2.98398,34.0157 31.0317,34.0157 34.0157,31.0307 34.0157,2.98398 "
       id="polygon2028"
       transform="translate(0,45.663579)" />
    <path
       d="m 31.7917,75.048279 c 0,1.32799 -1.07999,2.41198 -2.41098,2.41198 l -24.74776,2e-5 c -1.32599,0 -2.40898,-1.08399 -2.40898,-2.41198 v -24.75277 c 0,-1.32599 1.08299,-2.40898 2.40898,-2.40898 h 24.7518 c 1.32699,0 2.40697,1.08299 2.40697,2.40898 z"
       fill="#999999"
       id="path2030" />
    <circle
       cy="62.672379"
       cx="17.0058"
       fill="#3f3f3f"
       r="8.6239405"
       id="circle2040" />
    <circle
       cy="62.672379"
       cx="17.0058"
       fill="#2d2d2d"
       r="8.6239405"
       id="circle2042"
       style="fill:#000000" />
    <path
       opacity="0.6"
       d="m 19.6638,55.830479 c -0.571995,-0.222998 -1.17499,-0.382996 -1.81298,-0.456996 -1.58898,-0.175998 -3.10797,0.174998 -4.40696,0.894989 l -0.160998,0.420996 c 1.44999,-0.774994 3.13997,-1.13599 4.89795,-0.937994 0.541995,0.063 1.06799,0.183998 1.56699,0.343997 z"
       fill="#ffffff"
       id="path2056" />
  </g>
  <g
     partID="138480"
     id="g1428"
     transform="matrix(-0.99999895,0,0,0.99999895,244.41091,-263.1848)">
    <g
       transform="translate(175.544,258.538)"
       id="g1426">
      <g
         id="g1424">
        <rect
           height="0.72000003"
           x="3.45101"
           y="25.421"
           width="2.151"
           fill="none"
           id="rect1384" />
        <rect
           height="0.72000003"
           x="10.651"
           y="25.421"
           width="2.154"
           fill="none"
           id="rect1386" />
        <g
           y1="29.207"
           stroke="#8c8c8c"
           stroke-width="1.988"
           y2="53.822"
           x1="4.527"
           stroke-linecap="round"
           x2="4.527"
           fill="none"
           id="g1388" />
        <g
           y1="29.207"
           stroke="#8c8c8c"
           stroke-width="1.988"
           y2="53.822"
           x1="11.729"
           stroke-linecap="round"
           x2="11.729"
           fill="none"
           id="g1390" />
        <rect
           height="9.8280096"
           x="3.45101"
           y="19.379"
           width="2.151"
           fill="#8c8c8c"
           id="rect1392" />
        <path
           d="m 12.805,29.207 c 0,-1.174 -1.065,-2.103 -2.089,-2.992 -0.416001,-0.367 -1.199,-1.001 -1.199,-1.424 l 1e-5,-5.471 h -2.161 v 5.78 c 0,1.059 0.947001,1.879 1.946,2.748 0.444001,0.377 1.349,1.25 1.349,1.771"
           fill="#8c8c8c"
           id="path1394" />
        <g
           id="g1422">
          <path
             opacity="0.3"
             d="M 11.694,14.099 V 9.80001 c 0,-2.845 -2.303,-5.153 -5.15101,-5.153 C 3.69801,4.647 1.39,6.951 1.39,9.80001 v 9.92101 c 1.071,1.201 2.979,2.001 5.15301,2.001 3.35901,0 6.08301,-1.902 6.08301,-4.26 v -1.107 C 12.626,15.525 12.281,14.754 11.694,14.099 Z"
             enable-background="new    "
             fill="#00b33b"
             id="path1396" />
          <path
             opacity="0.5"
             d="M 11.694,14.099 V 9.80001 c 0,-2.845 -2.303,-5.153 -5.15101,-5.153 C 3.69801,4.647 1.39,6.951 1.39,9.80001 v 9.92101 c 1.071,1.201 2.979,2.001 5.15301,2.001 3.35901,0 6.08301,-1.902 6.08301,-4.26 v -1.107 C 12.626,15.525 12.281,14.754 11.694,14.099 Z"
             enable-background="new    "
             fill="#e6e6e6"
             id="path1398" />
          <path
             opacity="0.9"
             d="m 11.694,14.099 v 2.257 c 0,1.991 -2.301,3.608 -5.15101,3.608 -2.845,0 -5.15301,-1.612 -5.15301,-3.608 v 2.257 1.109 c 1.071,1.2 2.979,2 5.15301,2 3.35901,0 6.08301,-1.902 6.08301,-4.26 v -1.106 c 0,-0.831 -0.345,-1.602 -0.932,-2.257 z"
             enable-background="new    "
             fill="#d1d1d1"
             id="path1400" />
          <path
             opacity="0.7"
             d="m 11.694,14.099 v 2.257 c 0,1.991 -2.301,3.608 -5.15101,3.608 -2.845,0 -5.15301,-1.612 -5.15301,-3.608 v 2.257 1.109 c 1.071,1.2 2.979,2 5.15301,2 3.35901,0 6.08301,-1.902 6.08301,-4.26 v -1.106 c 0,-0.831 -0.345,-1.602 -0.932,-2.257 z"
             enable-background="new    "
             fill="#00b33b"
             id="path1402" />
          <path
             opacity="0.25"
             d="m 11.694,14.099 v 2.257 c 0,1.991 -2.301,3.608 -5.15101,3.608 -2.845,0 -5.15301,-1.612 -5.15301,-3.608 v 2.257 c 1.071,1.2 2.979,2.001 5.15301,2.001 3.35901,0 6.08301,-1.903 6.08301,-4.259 0,-0.83 -0.345,-1.601 -0.932,-2.256 z"
             enable-background="new    "
             fill="#00b33b"
             id="path1404" />
          <ellipse
             opacity="0.25"
             cy="16.356001"
             enable-background="new    "
             cx="6.5430102"
             ry="3.6059999"
             fill="#e6e6e6"
             rx="5.1530099"
             id="ellipse1406" />
          <ellipse
             opacity="0.25"
             cy="16.356001"
             enable-background="new    "
             cx="6.5430102"
             ry="3.6059999"
             fill="#00b33b"
             rx="5.1530099"
             id="ellipse1408" />
          <polygon
             fill="#666666"
             points="2.991,11.661 2.991,16.355 3.71401,16.355 3.71401,14.167 5.76301,14.167 8.66801,11.048 3.86701,11.048 "
             id="polygon1410" />
          <polygon
             fill="#666666"
             points="9.22601,10.844 9.54401,11.214 6.77801,14.167 9.43101,14.167 9.43101,16.355 10.095,16.355 10.095,10.844 "
             id="polygon1412" />
          <path
             opacity="0.65"
             d="M 11.694,14.099 V 9.80001 c 0,-2.845 -2.303,-5.153 -5.15101,-5.153 C 3.69801,4.647 1.39,6.951 1.39,9.80001 v 9.92101 c 1.071,1.201 2.979,2.001 5.15301,2.001 3.35901,0 6.08301,-1.902 6.08301,-4.26 v -1.107 C 12.626,15.525 12.281,14.754 11.694,14.099 Z"
             enable-background="new    "
             fill="#00b33b"
             id="path1414" />
          <path
             opacity="0.5"
             d="m 8.94301,7.376 1.043,-0.199 C 9.37401,6.354 8.47301,5.754 7.41101,5.55 l 0.186,0.786 c 0.555,0.196 1.022,0.567 1.346,1.04 z"
             enable-background="new    "
             fill="#ffffff"
             id="path1416" />
          <path
             opacity="0.5"
             d="m 1.948,19.132 v 1.104 c 0.472001,0.385 1.042,0.71 1.677,0.957001 v -1.107 C 2.988,19.841 2.422,19.518 1.948,19.132 Z"
             enable-background="new    "
             fill="#ffffff"
             id="path1418" />
          <path
             opacity="0.5"
             d="m 9.44001,19.338 c -0.186,0.089 -0.385001,0.167 -0.585001,0.239 -0.042,0.015 -0.086,0.03 -0.13,0.043 -0.410001,0.131 -0.844001,0.231 -1.305,0.287 -0.054,0.007 -0.11,0.015 -0.164,0.015 -0.233,0.021 -0.468001,0.042 -0.706001,0.042 -0.108,0 -0.223,-0.012 -0.343001,-0.018 -0.873001,-0.042 -1.694,-0.229 -2.397,-0.537 v -6.098 l 3e-6,-3.50799 c 0,-1.069 0.616001,-1.984 1.507,-2.435 L 5.30201,7.33 4.395009,6.23 C 3.181,6.959 2.367,8.281 2.367,9.80101 v 8.653 c -0.036,-0.035 -0.224,-0.224 -0.349001,-0.384 l -0.224,0.499 c 1.019,1.077 2.769,1.789 4.75701,1.789 1.222,0 2.354,-0.271 3.28001,-0.728 l -0.383001,-0.298 c -0.00801,0.006 -0.00801,0.006 -0.00801,0.006 z"
             enable-background="new    "
             fill="#ffffff"
             id="path1420" />
        </g>
      </g>
    </g>
  </g>
  <g
     partID="138420"
     id="g1478"
     transform="matrix(-0.99999895,0,0,0.99999895,179.21397,-171.85754)">
    <g
       transform="translate(110.347,258.538)"
       id="g1476">
      <g
         id="g1474">
        <rect
           height="0.72000003"
           x="3.45101"
           y="25.421"
           width="2.151"
           fill="none"
           id="rect1434" />
        <rect
           height="0.72000003"
           x="10.651"
           y="25.421"
           width="2.154"
           fill="none"
           id="rect1436" />
        <g
           y1="29.207"
           stroke="#8c8c8c"
           stroke-width="1.988"
           y2="53.822"
           x1="4.527"
           stroke-linecap="round"
           x2="4.527"
           fill="none"
           id="g1438" />
        <g
           y1="29.207"
           stroke="#8c8c8c"
           stroke-width="1.988"
           y2="53.822"
           x1="11.729"
           stroke-linecap="round"
           x2="11.729"
           fill="none"
           id="g1440" />
        <rect
           height="9.8280096"
           x="3.45101"
           y="19.379"
           width="2.151"
           fill="#8c8c8c"
           id="rect1442" />
        <path
           d="m 12.805,29.207 c 0,-1.174 -1.065,-2.103 -2.089,-2.992 -0.416001,-0.367 -1.199,-1.001 -1.199,-1.424 l 1e-5,-5.471 h -2.161 v 5.78 c 0,1.059 0.947001,1.879 1.946,2.748 0.444001,0.377 1.349,1.25 1.349,1.771"
           fill="#8c8c8c"
           id="path1444" />
        <g
           id="g1472">
          <path
             opacity="0.3"
             d="M 11.694,14.099 V 9.80001 c 0,-2.845 -2.303,-5.153 -5.15101,-5.153 C 3.69801,4.647 1.39,6.951 1.39,9.80001 v 9.92101 c 1.071,1.201 2.979,2.001 5.15301,2.001 3.35901,0 6.08301,-1.902 6.08301,-4.26 v -1.107 C 12.626,15.525 12.281,14.754 11.694,14.099 Z"
             enable-background="new    "
             fill="#fadf47"
             id="path1446" />
          <path
             opacity="0.5"
             d="M 11.694,14.099 V 9.80001 c 0,-2.845 -2.303,-5.153 -5.15101,-5.153 C 3.69801,4.647 1.39,6.951 1.39,9.80001 v 9.92101 c 1.071,1.201 2.979,2.001 5.15301,2.001 3.35901,0 6.08301,-1.902 6.08301,-4.26 v -1.107 C 12.626,15.525 12.281,14.754 11.694,14.099 Z"
             enable-background="new    "
             fill="#e6e6e6"
             id="path1448" />
          <path
             opacity="0.9"
             d="m 11.694,14.099 v 2.257 c 0,1.991 -2.301,3.608 -5.15101,3.608 -2.845,0 -5.15301,-1.612 -5.15301,-3.608 v 2.257 1.109 c 1.071,1.2 2.979,2 5.15301,2 3.35901,0 6.08301,-1.902 6.08301,-4.26 v -1.106 c 0,-0.831 -0.345,-1.602 -0.932,-2.257 z"
             enable-background="new    "
             fill="#d1d1d1"
             id="path1450" />
          <path
             opacity="0.7"
             d="m 11.694,14.099 v 2.257 c 0,1.991 -2.301,3.608 -5.15101,3.608 -2.845,0 -5.15301,-1.612 -5.15301,-3.608 v 2.257 1.109 c 1.071,1.2 2.979,2 5.15301,2 3.35901,0 6.08301,-1.902 6.08301,-4.26 v -1.106 c 0,-0.831 -0.345,-1.602 -0.932,-2.257 z"
             enable-background="new    "
             fill="#fadf47"
             id="path1452" />
          <path
             opacity="0.25"
             d="m 11.694,14.099 v 2.257 c 0,1.991 -2.301,3.608 -5.15101,3.608 -2.845,0 -5.15301,-1.612 -5.15301,-3.608 v 2.257 c 1.071,1.2 2.979,2.001 5.15301,2.001 3.35901,0 6.08301,-1.903 6.08301,-4.259 0,-0.83 -0.345,-1.601 -0.932,-2.256 z"
             enable-background="new    "
             fill="#fadf47"
             id="path1454" />
          <ellipse
             opacity="0.25"
             cy="16.356001"
             enable-background="new    "
             cx="6.5430102"
             ry="3.6059999"
             fill="#e6e6e6"
             rx="5.1530099"
             id="ellipse1456" />
          <ellipse
             opacity="0.25"
             cy="16.356001"
             enable-background="new    "
             cx="6.5430102"
             ry="3.6059999"
             fill="#fadf47"
             rx="5.1530099"
             id="ellipse1458" />
          <polygon
             fill="#666666"
             points="3.71401,16.355 3.71401,14.167 5.76301,14.167 8.66801,11.048 3.86701,11.048 2.991,11.661 2.991,16.355 "
             id="polygon1460" />
          <polygon
             fill="#666666"
             points="6.77801,14.167 9.43101,14.167 9.43101,16.355 10.095,16.355 10.095,10.844 9.22601,10.844 9.54401,11.214 "
             id="polygon1462" />
          <path
             opacity="0.65"
             d="M 11.694,14.099 V 9.80001 c 0,-2.845 -2.303,-5.153 -5.15101,-5.153 C 3.69801,4.647 1.39,6.951 1.39,9.80001 v 9.92101 c 1.071,1.201 2.979,2.001 5.15301,2.001 3.35901,0 6.08301,-1.902 6.08301,-4.26 v -1.107 C 12.626,15.525 12.281,14.754 11.694,14.099 Z"
             enable-background="new    "
             fill="#fadf47"
             id="path1464" />
          <path
             opacity="0.5"
             d="m 8.94301,7.376 1.043,-0.199 C 9.37401,6.354 8.47301,5.754 7.41101,5.55 l 0.186,0.786 c 0.555,0.196 1.022,0.567 1.346,1.04 z"
             enable-background="new    "
             fill="#ffffff"
             id="path1466" />
          <path
             opacity="0.5"
             d="m 1.948,19.132 v 1.104 c 0.472001,0.385 1.042,0.71 1.677,0.957001 v -1.107 C 2.988,19.841 2.422,19.518 1.948,19.132 Z"
             enable-background="new    "
             fill="#ffffff"
             id="path1468" />
          <path
             opacity="0.5"
             d="m 9.44001,19.338 c -0.186,0.089 -0.385001,0.167 -0.585001,0.239 -0.042,0.015 -0.086,0.03 -0.13,0.043 -0.410001,0.131 -0.844001,0.231 -1.305,0.287 -0.054,0.007 -0.11,0.015 -0.164,0.015 -0.233,0.021 -0.468001,0.042 -0.706001,0.042 -0.108,0 -0.223,-0.012 -0.343001,-0.018 -0.873001,-0.042 -1.694,-0.229 -2.397,-0.537 v -6.098 l 3e-6,-3.50799 c 0,-1.069 0.616001,-1.984 1.507,-2.435 L 5.30201,7.33 4.395009,6.23 C 3.181,6.959 2.367,8.281 2.367,9.80101 v 8.653 c -0.036,-0.035 -0.224,-0.224 -0.349001,-0.384 l -0.224,0.499 c 1.019,1.077 2.769,1.789 4.75701,1.789 1.222,0 2.354,-0.271 3.28001,-0.728 l -0.383001,-0.298 c -0.00801,0.006 -0.00801,0.006 -0.00801,0.006 z"
             enable-background="new    "
             fill="#ffffff"
             id="path1470" />
        </g>
      </g>
    </g>
  </g>
  <g
     partID="107260"
     id="g1378"
     transform="matrix(-0.99999895,0,0,0.99999895,69.255085,-217.52117)">
    <g
       transform="translate(45.1498,258.538)"
       id="g1376">
      <g
         id="breadboard">
        <rect
           height="0.72000003"
           x="3.45101"
           y="25.421"
           width="2.151"
           fill="none"
           id="rect1351" />
        <rect
           height="0.72000003"
           x="10.651"
           y="25.421"
           width="2.154"
           fill="none"
           id="rect1353" />
        <g
           y1="29.207"
           stroke="#8c8c8c"
           stroke-width="1.988"
           y2="53.822"
           x1="4.527"
           stroke-linecap="round"
           x2="4.527"
           fill="none"
           id="connector0leg" />
        <g
           y1="29.207"
           stroke="#8c8c8c"
           stroke-width="1.988"
           y2="53.822"
           x1="11.729"
           stroke-linecap="round"
           x2="11.729"
           fill="none"
           id="connector1leg" />
        <rect
           height="9.8280096"
           x="3.45101"
           y="19.379"
           width="2.151"
           fill="#8c8c8c"
           id="rect1357" />
        <path
           d="m 12.805,29.207 c 0,-1.174 -1.065,-2.103 -2.089,-2.992 -0.416001,-0.367 -1.199,-1.001 -1.199,-1.424 l 1e-5,-5.471 h -2.161 v 5.78 c 0,1.059 0.947001,1.879 1.946,2.748 0.444001,0.377 1.349,1.25 1.349,1.771"
           fill="#8c8c8c"
           id="path1359" />
        <g
           id="g12">
          <path
             opacity="0.3"
             d="M 11.694,14.099 V 9.80001 c 0,-2.845 -2.303,-5.153 -5.15101,-5.153 C 3.69801,4.647 1.39,6.951 1.39,9.80001 v 9.92101 c 1.071,1.201 2.979,2.001 5.15301,2.001 3.35901,0 6.08301,-1.902 6.08301,-4.26 v -1.107 C 12.626,15.525 12.281,14.754 11.694,14.099 Z"
             enable-background="new    "
             fill="#e60000"
             id="color_path14" />
          <path
             opacity="0.5"
             d="M 11.694,14.099 V 9.80001 c 0,-2.845 -2.303,-5.153 -5.15101,-5.153 C 3.69801,4.647 1.39,6.951 1.39,9.80001 v 9.92101 c 1.071,1.201 2.979,2.001 5.15301,2.001 3.35901,0 6.08301,-1.902 6.08301,-4.26 v -1.107 C 12.626,15.525 12.281,14.754 11.694,14.099 Z"
             enable-background="new    "
             fill="#e6e6e6"
             id="path16" />
          <path
             opacity="0.9"
             d="m 11.694,14.099 v 2.257 c 0,1.991 -2.301,3.608 -5.15101,3.608 -2.845,0 -5.15301,-1.612 -5.15301,-3.608 v 2.257 1.109 c 1.071,1.2 2.979,2 5.15301,2 3.35901,0 6.08301,-1.902 6.08301,-4.26 v -1.106 c 0,-0.831 -0.345,-1.602 -0.932,-2.257 z"
             enable-background="new    "
             fill="#d1d1d1"
             id="path18" />
          <path
             opacity="0.7"
             d="m 11.694,14.099 v 2.257 c 0,1.991 -2.301,3.608 -5.15101,3.608 -2.845,0 -5.15301,-1.612 -5.15301,-3.608 v 2.257 1.109 c 1.071,1.2 2.979,2 5.15301,2 3.35901,0 6.08301,-1.902 6.08301,-4.26 v -1.106 c 0,-0.831 -0.345,-1.602 -0.932,-2.257 z"
             enable-background="new    "
             fill="#e60000"
             id="color_path20" />
          <path
             opacity="0.25"
             d="m 11.694,14.099 v 2.257 c 0,1.991 -2.301,3.608 -5.15101,3.608 -2.845,0 -5.15301,-1.612 -5.15301,-3.608 v 2.257 c 1.071,1.2 2.979,2.001 5.15301,2.001 3.35901,0 6.08301,-1.903 6.08301,-4.259 0,-0.83 -0.345,-1.601 -0.932,-2.256 z"
             enable-background="new    "
             fill="#e60000"
             id="color_path22" />
          <ellipse
             opacity="0.25"
             cy="16.356001"
             enable-background="new    "
             cx="6.5430102"
             ry="3.6059999"
             fill="#e6e6e6"
             rx="5.1530099"
             id="ellipse24" />
          <ellipse
             opacity="0.25"
             cy="16.356001"
             enable-background="new    "
             cx="6.5430102"
             ry="3.6059999"
             fill="#e60000"
             rx="5.1530099"
             id="color_ellipse26" />
          <polygon
             fill="#666666"
             points="2.991,11.661 2.991,16.355 3.71401,16.355 3.71401,14.167 5.76301,14.167 8.66801,11.048 3.86701,11.048 "
             id="polygon28" />
          <polygon
             fill="#666666"
             points="9.22601,10.844 9.54401,11.214 6.77801,14.167 9.43101,14.167 9.43101,16.355 10.095,16.355 10.095,10.844 "
             id="polygon30" />
          <path
             opacity="0.65"
             d="M 11.694,14.099 V 9.80001 c 0,-2.845 -2.303,-5.153 -5.15101,-5.153 C 3.69801,4.647 1.39,6.951 1.39,9.80001 v 9.92101 c 1.071,1.201 2.979,2.001 5.15301,2.001 3.35901,0 6.08301,-1.902 6.08301,-4.26 v -1.107 C 12.626,15.525 12.281,14.754 11.694,14.099 Z"
             enable-background="new    "
             fill="#e60000"
             id="color_path32" />
          <path
             opacity="0.5"
             d="m 8.94301,7.376 1.043,-0.199 C 9.37401,6.354 8.47301,5.754 7.41101,5.55 l 0.186,0.786 c 0.555,0.196 1.022,0.567 1.346,1.04 z"
             enable-background="new    "
             fill="#ffffff"
             id="path34" />
          <path
             opacity="0.5"
             d="m 1.948,19.132 v 1.104 c 0.472001,0.385 1.042,0.71 1.677,0.957001 v -1.107 C 2.988,19.841 2.422,19.518 1.948,19.132 Z"
             enable-background="new    "
             fill="#ffffff"
             id="path36" />
          <path
             opacity="0.5"
             d="m 9.44001,19.338 c -0.186,0.089 -0.385001,0.167 -0.585001,0.239 -0.042,0.015 -0.086,0.03 -0.13,0.043 -0.410001,0.131 -0.844001,0.231 -1.305,0.287 -0.054,0.007 -0.11,0.015 -0.164,0.015 -0.233,0.021 -0.468001,0.042 -0.706001,0.042 -0.108,0 -0.223,-0.012 -0.343001,-0.018 -0.873001,-0.042 -1.694,-0.229 -2.397,-0.537 v -6.098 l 3e-6,-3.50799 c 0,-1.069 0.616001,-1.984 1.507,-2.435 L 5.30201,7.33 4.395009,6.23 C 3.181,6.959 2.367,8.281 2.367,9.80101 v 8.653 c -0.036,-0.035 -0.224,-0.224 -0.349001,-0.384 l -0.224,0.499 c 1.019,1.077 2.769,1.789 4.75701,1.789 1.222,0 2.354,-0.271 3.28001,-0.728 l -0.383001,-0.298 c -0.00801,0.006 -0.00801,0.006 -0.00801,0.006 z"
             enable-background="new    "
             fill="#ffffff"
             id="path38" />
        </g>
      </g>
    </g>
  </g>
  <g
     partID="138540"
     id="g1528"
     transform="matrix(-0.99999895,0,0,0.99999895,356.13485,-217.1124)">
    <g
       transform="translate(240.74,258.538)"
       id="g1526">
      <g
         id="g1524">
        <rect
           height="0.72000003"
           x="3.45101"
           y="25.421"
           width="2.151"
           fill="none"
           id="rect1484" />
        <rect
           height="0.72000003"
           x="10.651"
           y="25.421"
           width="2.154"
           fill="none"
           id="rect1486" />
        <g
           y1="29.207"
           stroke="#8c8c8c"
           stroke-width="1.988"
           y2="53.822"
           x1="4.527"
           stroke-linecap="round"
           x2="4.527"
           fill="none"
           id="g1488" />
        <g
           y1="29.207"
           stroke="#8c8c8c"
           stroke-width="1.988"
           y2="53.822"
           x1="11.729"
           stroke-linecap="round"
           x2="11.729"
           fill="none"
           id="g1490" />
        <rect
           height="9.8280096"
           x="3.45101"
           y="19.379"
           width="2.151"
           fill="#8c8c8c"
           id="rect1492" />
        <path
           d="m 12.805,29.207 c 0,-1.174 -1.065,-2.103 -2.089,-2.992 -0.416001,-0.367 -1.199,-1.001 -1.199,-1.424 l 1e-5,-5.471 h -2.161 v 5.78 c 0,1.059 0.947001,1.879 1.946,2.748 0.444001,0.377 1.349,1.25 1.349,1.771"
           fill="#8c8c8c"
           id="path1494" />
        <g
           id="g1522">
          <path
             opacity="0.3"
             d="M 11.694,14.099 V 9.80001 c 0,-2.845 -2.303,-5.153 -5.15101,-5.153 C 3.69801,4.647 1.39,6.951 1.39,9.80001 v 9.92101 c 1.071,1.201 2.979,2.001 5.15301,2.001 3.35901,0 6.08301,-1.902 6.08301,-4.26 v -1.107 C 12.626,15.525 12.281,14.754 11.694,14.099 Z"
             enable-background="new    "
             fill="#0000ee"
             id="path1496" />
          <path
             opacity="0.5"
             d="M 11.694,14.099 V 9.80001 c 0,-2.845 -2.303,-5.153 -5.15101,-5.153 C 3.69801,4.647 1.39,6.951 1.39,9.80001 v 9.92101 c 1.071,1.201 2.979,2.001 5.15301,2.001 3.35901,0 6.08301,-1.902 6.08301,-4.26 v -1.107 C 12.626,15.525 12.281,14.754 11.694,14.099 Z"
             enable-background="new    "
             fill="#e6e6e6"
             id="path1498" />
          <path
             opacity="0.9"
             d="m 11.694,14.099 v 2.257 c 0,1.991 -2.301,3.608 -5.15101,3.608 -2.845,0 -5.15301,-1.612 -5.15301,-3.608 v 2.257 1.109 c 1.071,1.2 2.979,2 5.15301,2 3.35901,0 6.08301,-1.902 6.08301,-4.26 v -1.106 c 0,-0.831 -0.345,-1.602 -0.932,-2.257 z"
             enable-background="new    "
             fill="#d1d1d1"
             id="path1500" />
          <path
             opacity="0.7"
             d="m 11.694,14.099 v 2.257 c 0,1.991 -2.301,3.608 -5.15101,3.608 -2.845,0 -5.15301,-1.612 -5.15301,-3.608 v 2.257 1.109 c 1.071,1.2 2.979,2 5.15301,2 3.35901,0 6.08301,-1.902 6.08301,-4.26 v -1.106 c 0,-0.831 -0.345,-1.602 -0.932,-2.257 z"
             enable-background="new    "
             fill="#0000ee"
             id="path1502" />
          <path
             opacity="0.25"
             d="m 11.694,14.099 v 2.257 c 0,1.991 -2.301,3.608 -5.15101,3.608 -2.845,0 -5.15301,-1.612 -5.15301,-3.608 v 2.257 c 1.071,1.2 2.979,2.001 5.15301,2.001 3.35901,0 6.08301,-1.903 6.08301,-4.259 0,-0.83 -0.345,-1.601 -0.932,-2.256 z"
             enable-background="new    "
             fill="#0000ee"
             id="path1504" />
          <ellipse
             opacity="0.25"
             cy="16.356001"
             enable-background="new    "
             cx="6.5430102"
             ry="3.6059999"
             fill="#e6e6e6"
             rx="5.1530099"
             id="ellipse1506" />
          <ellipse
             opacity="0.25"
             cy="16.356001"
             enable-background="new    "
             cx="6.5430102"
             ry="3.6059999"
             fill="#0000ee"
             rx="5.1530099"
             id="ellipse1508" />
          <polygon
             fill="#666666"
             points="3.71401,16.355 3.71401,14.167 5.76301,14.167 8.66801,11.048 3.86701,11.048 2.991,11.661 2.991,16.355 "
             id="polygon1510" />
          <polygon
             fill="#666666"
             points="6.77801,14.167 9.43101,14.167 9.43101,16.355 10.095,16.355 10.095,10.844 9.22601,10.844 9.54401,11.214 "
             id="polygon1512" />
          <path
             opacity="0.65"
             d="M 11.694,14.099 V 9.80001 c 0,-2.845 -2.303,-5.153 -5.15101,-5.153 C 3.69801,4.647 1.39,6.951 1.39,9.80001 v 9.92101 c 1.071,1.201 2.979,2.001 5.15301,2.001 3.35901,0 6.08301,-1.902 6.08301,-4.26 v -1.107 C 12.626,15.525 12.281,14.754 11.694,14.099 Z"
             enable-background="new    "
             fill="#0000ee"
             id="path1514" />
          <path
             opacity="0.5"
             d="m 8.94301,7.376 1.043,-0.199 C 9.37401,6.354 8.47301,5.754 7.41101,5.55 l 0.186,0.786 c 0.555,0.196 1.022,0.567 1.346,1.04 z"
             enable-background="new    "
             fill="#ffffff"
             id="path1516" />
          <path
             opacity="0.5"
             d="m 1.948,19.132 v 1.104 c 0.472001,0.385 1.042,0.71 1.677,0.957001 v -1.107 C 2.988,19.841 2.422,19.518 1.948,19.132 Z"
             enable-background="new    "
             fill="#ffffff"
             id="path1518" />
          <path
             opacity="0.5"
             d="m 9.44001,19.338 c -0.186,0.089 -0.385001,0.167 -0.585001,0.239 -0.042,0.015 -0.086,0.03 -0.13,0.043 -0.410001,0.131 -0.844001,0.231 -1.305,0.287 -0.054,0.007 -0.11,0.015 -0.164,0.015 -0.233,0.021 -0.468001,0.042 -0.706001,0.042 -0.108,0 -0.223,-0.012 -0.343001,-0.018 -0.873001,-0.042 -1.694,-0.229 -2.397,-0.537 v -6.098 l 3e-6,-3.50799 c 0,-1.069 0.616001,-1.984 1.507,-2.435 L 5.30201,7.33 4.395009,6.23 C 3.181,6.959 2.367,8.281 2.367,9.80101 v 8.653 c -0.036,-0.035 -0.224,-0.224 -0.349001,-0.384 l -0.224,0.499 c 1.019,1.077 2.769,1.789 4.75701,1.789 1.222,0 2.354,-0.271 3.28001,-0.728 l -0.383001,-0.298 c -0.00801,0.006 -0.00801,0.006 -0.00801,0.006 z"
             enable-background="new    "
             fill="#ffffff"
             id="path1520" />
        </g>
      </g>
    </g>
  </g>
</svg>
