<?xml version="1.0" encoding="UTF-8" standalone="no"?>
<!-- Created with Inkscape (http://www.inkscape.org/) -->

<svg
   version="1.1"
   id="svg2"
   width="137.03331"
   height="126.26826"
   viewBox="0 0 137.03331 126.26826"
   sodipodi:docname="index.png"
   inkscape:version="1.1.1 (3bf5ae0d25, 2021-09-20)"
   xmlns:inkscape="http://www.inkscape.org/namespaces/inkscape"
   xmlns:sodipodi="http://sodipodi.sourceforge.net/DTD/sodipodi-0.dtd"
   xmlns="http://www.w3.org/2000/svg"
   xmlns:svg="http://www.w3.org/2000/svg">
  <defs
     id="defs6" />
  <sodipodi:namedview
     id="namedview4"
     pagecolor="#505050"
     bordercolor="#ffffff"
     borderopacity="1"
     inkscape:pageshadow="0"
     inkscape:pageopacity="0"
     inkscape:pagecheckerboard="1"
     showgrid="false"
     inkscape:zoom="1.8333333"
     inkscape:cx="31.090909"
     inkscape:cy="36.545455"
     inkscape:window-width="1366"
     inkscape:window-height="708"
     inkscape:window-x="0"
     inkscape:window-y="19"
     inkscape:window-maximized="1"
     inkscape:current-layer="g158" />
  <g
     inkscape:groupmode="layer"
     inkscape:label="Image"
     id="g8"
     transform="translate(-80.454431,-13.452231)">
    <g
       id="g158"
       transform="translate(-3.1418734,49.6475)">
      <path
         style="fill:#516bd3;fill-opacity:1"
         d="m 125.60381,87.025244 c 2.72228,-2.72227 2.99347,-3.52936 2.53942,-7.55761 -0.45082,-3.99966 -1.29779,-5.27619 -7.48677,-11.28376 -17.87766,-17.353643 -21.175822,-43.083018 -7.9668,-63.3000183 4.20481,-6.4356531 6.81041,-10.724301 14.21322,-15.1691957 8.18466,-4.91435 16.62678,-5.588739 26.67707,-5.591983 10.30329,-0.0033 19.23062,3.964594 26.60501,8.9537047 7.79306,5.272357 14.79063,16.5029092 17.31812,24.9389163 l 1.27633,4.260011 1.98474,-2.724608 c 4.054,-5.565245 11.75683,-6.366481 16.90081,-1.757994 1.95143,1.748282 0.87676,1.717366 0.2131,-1.719713 -0.3717,-1.925 -1.6467,-7.7580537 -4.17564,-12.9623436 -3.90905,-8.0444281 -5.96185,-10.8200084 -13.69913,-18.5226044 -6.59854,-6.568948 -10.90846,-9.935193 -15.6741,-12.242165 -20.19927,-9.778169 -43.00825,-10.242038 -61.14489,-1.24351 -17.52441,8.69477 -28.748251,22.1728393 -35.448682,39.872135 -9.020265,23.827172 -2.86433,49.138788 14.246712,67.886878 7.69425,8.43038 11.87786,11.21161 16.86485,11.21161 2.80056,0 4.45529,-0.74641 6.75663,-3.04775 z"
         id="path8219"
         sodipodi:nodetypes="sssssssscsssssssssss" />
      <path
         style="fill:#cccccc"
         d="m 179.02609,86.719681 c -2.72228,-2.72227 -2.99347,-3.52936 -2.53942,-7.55761 0.45082,-3.99966 1.29779,-5.27619 7.48677,-11.28376 17.87766,-17.353643 20.86498,-41.393878 7.65597,-61.6108799 -4.20481,-6.43565299 -7.49892,-9.523437 -14.90173,-13.968332 -8.18466,-4.9143481 -14.46226,-6.6072871 -24.51255,-6.6105311 -10.30329,-0.0033 -19.26225,2.523448 -26.63664,7.5125571 -7.79306,5.272357 -15.92418,16.072602 -18.45167,24.5086099 l -1.27633,4.260011 -1.98474,-2.724608 c -4.054,-5.565245 -11.756827,-6.366481 -16.900809,-1.757994 -1.95143,1.748282 -1.975004,1.717366 -1.311341,-1.719713 0.371697,-1.925 2.460501,-7.9061552 5.27388,-12.9623449 4.530186,-8.1416258 5.961846,-10.820008 13.69913,-18.5226031 6.59854,-6.568948 11.38266,-9.739724 15.6741,-12.242165 19.3863,-11.304622 43.00825,-10.242038 61.14489,-1.24351 17.52441,8.69477 29.50721,22.1728381 35.44867,39.872135 8.10785,24.152889 2.86433,49.138788 -14.2467,67.886878 -7.69425,8.43038 -11.87786,11.21161 -16.86485,11.21161 -2.80056,0 -4.45529,-0.74641 -6.75663,-3.04775 z"
         id="path172"
         sodipodi:nodetypes="sssssssscsssssssssss" />
    </g>
  </g>
</svg>
